<?xml version="1.0" encoding="utf-8"?>
<!-- Generator: Adobe Illustrator 16.2.1, SVG Export Plug-In . SVG Version: 6.00 Build 0)  -->
<!DOCTYPE svg PUBLIC "-//W3C//DTD SVG 1.1//EN" "http://www.w3.org/Graphics/SVG/1.1/DTD/svg11.dtd">
<svg version="1.1" id="Hilfslinien" xmlns="http://www.w3.org/2000/svg" xmlns:xlink="http://www.w3.org/1999/xlink" x="0px"
	 y="0px" width="400px" height="50px" viewBox="0 0 400 50" style="enable-background:new 0 0 400 50;" xml:space="preserve">
<style type="text/css">
<![CDATA[
	.st0{fill-rule:evenodd;clip-rule:evenodd;fill:#0069B4;}
]]>
</style>
<path class="st0" d="M12.098,26.999h15.146l0.688-3.24H16.648l1.214-5.264h10.04l0.672-3.241H18.54l0.926-4.402h10.382l0.672-3.242
	H16.147L12.098,26.999L12.098,26.999z M40.406,26.999l3.372-16.146h5.612l0.673-3.242H34.786l-0.672,3.242h5.684l-3.386,16.146
	H40.406L40.406,26.999z M60.92,26.999L71.605,7.611h-3.954L59.62,22.279L57.164,7.611h-3.982l3.476,19.388H60.92L60.92,26.999z
	 M37.18,11.828L36.3,11.83l1.719,2.768l0.217-1.066L37.18,11.828L37.18,11.828z M33.927,7.047l-0.208,0.968
	c-0.722-0.99-1.45-1.905-2.176-2.745c-1.255-1.434-2.522-2.572-3.803-3.386c-1.191-0.772-2.526-1.195-4.064-1.125
	c-1.13,0.091-2.225,0.467-3.281,1.129c-1.267,0.826-2.523,1.934-3.765,3.381c-1.426,1.614-2.896,3.659-4.395,5.999
	c-1.11,1.704-2.163,3.47-3.239,5.202h4.312l-0.155,0.758H0V16.47h8.125l3.21-5.212C12.926,8.764,14.5,6.604,16.055,4.8
	c1.2-1.394,2.478-2.596,3.877-3.493c1.376-0.835,2.612-1.234,3.74-1.301c1.464-0.056,2.975,0.297,4.562,1.307
	c1.262,0.789,2.558,1.933,3.895,3.489C32.746,5.512,33.348,6.263,33.927,7.047z M37.481,17.228l0.164-0.758l-8.33,0.001l-0.17,0.766
	L37.481,17.228L37.481,17.228z M53.927,17.228l-0.126-0.758H43.586l-0.157,0.758H53.927L53.927,17.228z M61.403,17.228l0.419-0.758
	h-2.173l0.11,0.758H61.403L61.403,17.228z M75.098,19.178v-1.95l-3.358-0.001l-3.534,5.69c-1.216,1.945-2.692,4.002-4.589,6.24
	c-0.963,1.105-2.026,2.085-3.167,2.969c-1.52,1.099-3.104,1.732-4.778,1.718c-1.406,0.021-2.966-0.471-4.751-1.72
	c-1.213-0.9-2.241-1.896-3.145-2.953c-1.684-1.937-3.21-4.04-4.614-6.28l-0.684-1.071l0.215-1.065l1.363,2.159
	c1.258,1.974,2.596,3.788,4,5.473c1.336,1.487,2.56,2.661,3.605,3.325c1.348,0.91,2.685,1.368,4.011,1.409
	c1.706-0.1,2.968-0.653,4.051-1.401c1.067-0.747,2.251-1.814,3.608-3.341c1.595-1.958,2.89-3.767,3.998-5.48l3.545-5.67
	l-3.579-0.001l0.438-0.758l7.366,0.002v-1.81l7.52,2.264L75.098,19.178z"/>
</svg>
