G04 #@! TF.GenerationSoftware,KiCad,Pcbnew,7.0.7*
G04 #@! TF.CreationDate,2023-09-14T12:08:29+02:00*
G04 #@! TF.ProjectId,pulsoximeter,70756c73-6f78-4696-9d65-7465722e6b69,rev?*
G04 #@! TF.SameCoordinates,Original*
G04 #@! TF.FileFunction,Legend,Top*
G04 #@! TF.FilePolarity,Positive*
%FSLAX46Y46*%
G04 Gerber Fmt 4.6, Leading zero omitted, Abs format (unit mm)*
G04 Created by KiCad (PCBNEW 7.0.7) date 2023-09-14 12:08:29*
%MOMM*%
%LPD*%
G01*
G04 APERTURE LIST*
G04 Aperture macros list*
%AMRoundRect*
0 Rectangle with rounded corners*
0 $1 Rounding radius*
0 $2 $3 $4 $5 $6 $7 $8 $9 X,Y pos of 4 corners*
0 Add a 4 corners polygon primitive as box body*
4,1,4,$2,$3,$4,$5,$6,$7,$8,$9,$2,$3,0*
0 Add four circle primitives for the rounded corners*
1,1,$1+$1,$2,$3*
1,1,$1+$1,$4,$5*
1,1,$1+$1,$6,$7*
1,1,$1+$1,$8,$9*
0 Add four rect primitives between the rounded corners*
20,1,$1+$1,$2,$3,$4,$5,0*
20,1,$1+$1,$4,$5,$6,$7,0*
20,1,$1+$1,$6,$7,$8,$9,0*
20,1,$1+$1,$8,$9,$2,$3,0*%
G04 Aperture macros list end*
%ADD10C,0.150000*%
%ADD11C,0.120000*%
%ADD12R,1.700000X1.700000*%
%ADD13O,1.700000X1.700000*%
%ADD14C,1.400000*%
%ADD15O,1.400000X1.400000*%
%ADD16C,1.600000*%
%ADD17R,0.800000X1.900000*%
%ADD18O,1.800000X1.800000*%
%ADD19O,1.500000X1.500000*%
%ADD20R,1.700000X3.500000*%
%ADD21R,1.800000X1.100000*%
%ADD22RoundRect,0.275000X-0.625000X0.275000X-0.625000X-0.275000X0.625000X-0.275000X0.625000X0.275000X0*%
%ADD23R,2.000000X2.000000*%
%ADD24C,2.000000*%
%ADD25C,3.450000*%
%ADD26R,3.000000X3.000000*%
%ADD27C,3.000000*%
G04 APERTURE END LIST*
D10*
X121526541Y-68905200D02*
X121983684Y-68905200D01*
X121755112Y-69133771D02*
X121755112Y-68676628D01*
X119300826Y-121267342D02*
X119243684Y-121238771D01*
X119243684Y-121238771D02*
X119157969Y-121238771D01*
X119157969Y-121238771D02*
X119072255Y-121267342D01*
X119072255Y-121267342D02*
X119015112Y-121324485D01*
X119015112Y-121324485D02*
X118986541Y-121381628D01*
X118986541Y-121381628D02*
X118957969Y-121495914D01*
X118957969Y-121495914D02*
X118957969Y-121581628D01*
X118957969Y-121581628D02*
X118986541Y-121695914D01*
X118986541Y-121695914D02*
X119015112Y-121753057D01*
X119015112Y-121753057D02*
X119072255Y-121810200D01*
X119072255Y-121810200D02*
X119157969Y-121838771D01*
X119157969Y-121838771D02*
X119215112Y-121838771D01*
X119215112Y-121838771D02*
X119300826Y-121810200D01*
X119300826Y-121810200D02*
X119329398Y-121781628D01*
X119329398Y-121781628D02*
X119329398Y-121581628D01*
X119329398Y-121581628D02*
X119215112Y-121581628D01*
X119586541Y-121838771D02*
X119586541Y-121238771D01*
X119586541Y-121238771D02*
X119929398Y-121838771D01*
X119929398Y-121838771D02*
X119929398Y-121238771D01*
X120215112Y-121838771D02*
X120215112Y-121238771D01*
X120215112Y-121238771D02*
X120357969Y-121238771D01*
X120357969Y-121238771D02*
X120443683Y-121267342D01*
X120443683Y-121267342D02*
X120500826Y-121324485D01*
X120500826Y-121324485D02*
X120529397Y-121381628D01*
X120529397Y-121381628D02*
X120557969Y-121495914D01*
X120557969Y-121495914D02*
X120557969Y-121581628D01*
X120557969Y-121581628D02*
X120529397Y-121695914D01*
X120529397Y-121695914D02*
X120500826Y-121753057D01*
X120500826Y-121753057D02*
X120443683Y-121810200D01*
X120443683Y-121810200D02*
X120357969Y-121838771D01*
X120357969Y-121838771D02*
X120215112Y-121838771D01*
X113877969Y-121810200D02*
X113963684Y-121838771D01*
X113963684Y-121838771D02*
X114106541Y-121838771D01*
X114106541Y-121838771D02*
X114163684Y-121810200D01*
X114163684Y-121810200D02*
X114192255Y-121781628D01*
X114192255Y-121781628D02*
X114220826Y-121724485D01*
X114220826Y-121724485D02*
X114220826Y-121667342D01*
X114220826Y-121667342D02*
X114192255Y-121610200D01*
X114192255Y-121610200D02*
X114163684Y-121581628D01*
X114163684Y-121581628D02*
X114106541Y-121553057D01*
X114106541Y-121553057D02*
X113992255Y-121524485D01*
X113992255Y-121524485D02*
X113935112Y-121495914D01*
X113935112Y-121495914D02*
X113906541Y-121467342D01*
X113906541Y-121467342D02*
X113877969Y-121410200D01*
X113877969Y-121410200D02*
X113877969Y-121353057D01*
X113877969Y-121353057D02*
X113906541Y-121295914D01*
X113906541Y-121295914D02*
X113935112Y-121267342D01*
X113935112Y-121267342D02*
X113992255Y-121238771D01*
X113992255Y-121238771D02*
X114135112Y-121238771D01*
X114135112Y-121238771D02*
X114220826Y-121267342D01*
X114477970Y-121838771D02*
X114477970Y-121238771D01*
X114477970Y-121238771D02*
X114620827Y-121238771D01*
X114620827Y-121238771D02*
X114706541Y-121267342D01*
X114706541Y-121267342D02*
X114763684Y-121324485D01*
X114763684Y-121324485D02*
X114792255Y-121381628D01*
X114792255Y-121381628D02*
X114820827Y-121495914D01*
X114820827Y-121495914D02*
X114820827Y-121581628D01*
X114820827Y-121581628D02*
X114792255Y-121695914D01*
X114792255Y-121695914D02*
X114763684Y-121753057D01*
X114763684Y-121753057D02*
X114706541Y-121810200D01*
X114706541Y-121810200D02*
X114620827Y-121838771D01*
X114620827Y-121838771D02*
X114477970Y-121838771D01*
X115049398Y-121667342D02*
X115335113Y-121667342D01*
X114992255Y-121838771D02*
X115192255Y-121238771D01*
X115192255Y-121238771D02*
X115392255Y-121838771D01*
X111309398Y-121238771D02*
X111680826Y-121238771D01*
X111680826Y-121238771D02*
X111480826Y-121467342D01*
X111480826Y-121467342D02*
X111566541Y-121467342D01*
X111566541Y-121467342D02*
X111623684Y-121495914D01*
X111623684Y-121495914D02*
X111652255Y-121524485D01*
X111652255Y-121524485D02*
X111680826Y-121581628D01*
X111680826Y-121581628D02*
X111680826Y-121724485D01*
X111680826Y-121724485D02*
X111652255Y-121781628D01*
X111652255Y-121781628D02*
X111623684Y-121810200D01*
X111623684Y-121810200D02*
X111566541Y-121838771D01*
X111566541Y-121838771D02*
X111395112Y-121838771D01*
X111395112Y-121838771D02*
X111337969Y-121810200D01*
X111337969Y-121810200D02*
X111309398Y-121781628D01*
X111852255Y-121238771D02*
X112052255Y-121838771D01*
X112052255Y-121838771D02*
X112252255Y-121238771D01*
X112395113Y-121238771D02*
X112766541Y-121238771D01*
X112766541Y-121238771D02*
X112566541Y-121467342D01*
X112566541Y-121467342D02*
X112652256Y-121467342D01*
X112652256Y-121467342D02*
X112709399Y-121495914D01*
X112709399Y-121495914D02*
X112737970Y-121524485D01*
X112737970Y-121524485D02*
X112766541Y-121581628D01*
X112766541Y-121581628D02*
X112766541Y-121724485D01*
X112766541Y-121724485D02*
X112737970Y-121781628D01*
X112737970Y-121781628D02*
X112709399Y-121810200D01*
X112709399Y-121810200D02*
X112652256Y-121838771D01*
X112652256Y-121838771D02*
X112480827Y-121838771D01*
X112480827Y-121838771D02*
X112423684Y-121810200D01*
X112423684Y-121810200D02*
X112395113Y-121781628D01*
X116417969Y-121810200D02*
X116503684Y-121838771D01*
X116503684Y-121838771D02*
X116646541Y-121838771D01*
X116646541Y-121838771D02*
X116703684Y-121810200D01*
X116703684Y-121810200D02*
X116732255Y-121781628D01*
X116732255Y-121781628D02*
X116760826Y-121724485D01*
X116760826Y-121724485D02*
X116760826Y-121667342D01*
X116760826Y-121667342D02*
X116732255Y-121610200D01*
X116732255Y-121610200D02*
X116703684Y-121581628D01*
X116703684Y-121581628D02*
X116646541Y-121553057D01*
X116646541Y-121553057D02*
X116532255Y-121524485D01*
X116532255Y-121524485D02*
X116475112Y-121495914D01*
X116475112Y-121495914D02*
X116446541Y-121467342D01*
X116446541Y-121467342D02*
X116417969Y-121410200D01*
X116417969Y-121410200D02*
X116417969Y-121353057D01*
X116417969Y-121353057D02*
X116446541Y-121295914D01*
X116446541Y-121295914D02*
X116475112Y-121267342D01*
X116475112Y-121267342D02*
X116532255Y-121238771D01*
X116532255Y-121238771D02*
X116675112Y-121238771D01*
X116675112Y-121238771D02*
X116760826Y-121267342D01*
X117360827Y-121781628D02*
X117332255Y-121810200D01*
X117332255Y-121810200D02*
X117246541Y-121838771D01*
X117246541Y-121838771D02*
X117189398Y-121838771D01*
X117189398Y-121838771D02*
X117103684Y-121810200D01*
X117103684Y-121810200D02*
X117046541Y-121753057D01*
X117046541Y-121753057D02*
X117017970Y-121695914D01*
X117017970Y-121695914D02*
X116989398Y-121581628D01*
X116989398Y-121581628D02*
X116989398Y-121495914D01*
X116989398Y-121495914D02*
X117017970Y-121381628D01*
X117017970Y-121381628D02*
X117046541Y-121324485D01*
X117046541Y-121324485D02*
X117103684Y-121267342D01*
X117103684Y-121267342D02*
X117189398Y-121238771D01*
X117189398Y-121238771D02*
X117246541Y-121238771D01*
X117246541Y-121238771D02*
X117332255Y-121267342D01*
X117332255Y-121267342D02*
X117360827Y-121295914D01*
X117903684Y-121838771D02*
X117617970Y-121838771D01*
X117617970Y-121838771D02*
X117617970Y-121238771D01*
X93265826Y-121267342D02*
X93208684Y-121238771D01*
X93208684Y-121238771D02*
X93122969Y-121238771D01*
X93122969Y-121238771D02*
X93037255Y-121267342D01*
X93037255Y-121267342D02*
X92980112Y-121324485D01*
X92980112Y-121324485D02*
X92951541Y-121381628D01*
X92951541Y-121381628D02*
X92922969Y-121495914D01*
X92922969Y-121495914D02*
X92922969Y-121581628D01*
X92922969Y-121581628D02*
X92951541Y-121695914D01*
X92951541Y-121695914D02*
X92980112Y-121753057D01*
X92980112Y-121753057D02*
X93037255Y-121810200D01*
X93037255Y-121810200D02*
X93122969Y-121838771D01*
X93122969Y-121838771D02*
X93180112Y-121838771D01*
X93180112Y-121838771D02*
X93265826Y-121810200D01*
X93265826Y-121810200D02*
X93294398Y-121781628D01*
X93294398Y-121781628D02*
X93294398Y-121581628D01*
X93294398Y-121581628D02*
X93180112Y-121581628D01*
X93551541Y-121838771D02*
X93551541Y-121238771D01*
X93551541Y-121238771D02*
X93894398Y-121838771D01*
X93894398Y-121838771D02*
X93894398Y-121238771D01*
X94180112Y-121838771D02*
X94180112Y-121238771D01*
X94180112Y-121238771D02*
X94322969Y-121238771D01*
X94322969Y-121238771D02*
X94408683Y-121267342D01*
X94408683Y-121267342D02*
X94465826Y-121324485D01*
X94465826Y-121324485D02*
X94494397Y-121381628D01*
X94494397Y-121381628D02*
X94522969Y-121495914D01*
X94522969Y-121495914D02*
X94522969Y-121581628D01*
X94522969Y-121581628D02*
X94494397Y-121695914D01*
X94494397Y-121695914D02*
X94465826Y-121753057D01*
X94465826Y-121753057D02*
X94408683Y-121810200D01*
X94408683Y-121810200D02*
X94322969Y-121838771D01*
X94322969Y-121838771D02*
X94180112Y-121838771D01*
X90382969Y-121810200D02*
X90468684Y-121838771D01*
X90468684Y-121838771D02*
X90611541Y-121838771D01*
X90611541Y-121838771D02*
X90668684Y-121810200D01*
X90668684Y-121810200D02*
X90697255Y-121781628D01*
X90697255Y-121781628D02*
X90725826Y-121724485D01*
X90725826Y-121724485D02*
X90725826Y-121667342D01*
X90725826Y-121667342D02*
X90697255Y-121610200D01*
X90697255Y-121610200D02*
X90668684Y-121581628D01*
X90668684Y-121581628D02*
X90611541Y-121553057D01*
X90611541Y-121553057D02*
X90497255Y-121524485D01*
X90497255Y-121524485D02*
X90440112Y-121495914D01*
X90440112Y-121495914D02*
X90411541Y-121467342D01*
X90411541Y-121467342D02*
X90382969Y-121410200D01*
X90382969Y-121410200D02*
X90382969Y-121353057D01*
X90382969Y-121353057D02*
X90411541Y-121295914D01*
X90411541Y-121295914D02*
X90440112Y-121267342D01*
X90440112Y-121267342D02*
X90497255Y-121238771D01*
X90497255Y-121238771D02*
X90640112Y-121238771D01*
X90640112Y-121238771D02*
X90725826Y-121267342D01*
X91325827Y-121781628D02*
X91297255Y-121810200D01*
X91297255Y-121810200D02*
X91211541Y-121838771D01*
X91211541Y-121838771D02*
X91154398Y-121838771D01*
X91154398Y-121838771D02*
X91068684Y-121810200D01*
X91068684Y-121810200D02*
X91011541Y-121753057D01*
X91011541Y-121753057D02*
X90982970Y-121695914D01*
X90982970Y-121695914D02*
X90954398Y-121581628D01*
X90954398Y-121581628D02*
X90954398Y-121495914D01*
X90954398Y-121495914D02*
X90982970Y-121381628D01*
X90982970Y-121381628D02*
X91011541Y-121324485D01*
X91011541Y-121324485D02*
X91068684Y-121267342D01*
X91068684Y-121267342D02*
X91154398Y-121238771D01*
X91154398Y-121238771D02*
X91211541Y-121238771D01*
X91211541Y-121238771D02*
X91297255Y-121267342D01*
X91297255Y-121267342D02*
X91325827Y-121295914D01*
X91868684Y-121838771D02*
X91582970Y-121838771D01*
X91582970Y-121838771D02*
X91582970Y-121238771D01*
X87842969Y-121810200D02*
X87928684Y-121838771D01*
X87928684Y-121838771D02*
X88071541Y-121838771D01*
X88071541Y-121838771D02*
X88128684Y-121810200D01*
X88128684Y-121810200D02*
X88157255Y-121781628D01*
X88157255Y-121781628D02*
X88185826Y-121724485D01*
X88185826Y-121724485D02*
X88185826Y-121667342D01*
X88185826Y-121667342D02*
X88157255Y-121610200D01*
X88157255Y-121610200D02*
X88128684Y-121581628D01*
X88128684Y-121581628D02*
X88071541Y-121553057D01*
X88071541Y-121553057D02*
X87957255Y-121524485D01*
X87957255Y-121524485D02*
X87900112Y-121495914D01*
X87900112Y-121495914D02*
X87871541Y-121467342D01*
X87871541Y-121467342D02*
X87842969Y-121410200D01*
X87842969Y-121410200D02*
X87842969Y-121353057D01*
X87842969Y-121353057D02*
X87871541Y-121295914D01*
X87871541Y-121295914D02*
X87900112Y-121267342D01*
X87900112Y-121267342D02*
X87957255Y-121238771D01*
X87957255Y-121238771D02*
X88100112Y-121238771D01*
X88100112Y-121238771D02*
X88185826Y-121267342D01*
X88442970Y-121838771D02*
X88442970Y-121238771D01*
X88442970Y-121238771D02*
X88585827Y-121238771D01*
X88585827Y-121238771D02*
X88671541Y-121267342D01*
X88671541Y-121267342D02*
X88728684Y-121324485D01*
X88728684Y-121324485D02*
X88757255Y-121381628D01*
X88757255Y-121381628D02*
X88785827Y-121495914D01*
X88785827Y-121495914D02*
X88785827Y-121581628D01*
X88785827Y-121581628D02*
X88757255Y-121695914D01*
X88757255Y-121695914D02*
X88728684Y-121753057D01*
X88728684Y-121753057D02*
X88671541Y-121810200D01*
X88671541Y-121810200D02*
X88585827Y-121838771D01*
X88585827Y-121838771D02*
X88442970Y-121838771D01*
X89014398Y-121667342D02*
X89300113Y-121667342D01*
X88957255Y-121838771D02*
X89157255Y-121238771D01*
X89157255Y-121238771D02*
X89357255Y-121838771D01*
X85274398Y-121238771D02*
X85645826Y-121238771D01*
X85645826Y-121238771D02*
X85445826Y-121467342D01*
X85445826Y-121467342D02*
X85531541Y-121467342D01*
X85531541Y-121467342D02*
X85588684Y-121495914D01*
X85588684Y-121495914D02*
X85617255Y-121524485D01*
X85617255Y-121524485D02*
X85645826Y-121581628D01*
X85645826Y-121581628D02*
X85645826Y-121724485D01*
X85645826Y-121724485D02*
X85617255Y-121781628D01*
X85617255Y-121781628D02*
X85588684Y-121810200D01*
X85588684Y-121810200D02*
X85531541Y-121838771D01*
X85531541Y-121838771D02*
X85360112Y-121838771D01*
X85360112Y-121838771D02*
X85302969Y-121810200D01*
X85302969Y-121810200D02*
X85274398Y-121781628D01*
X85817255Y-121238771D02*
X86017255Y-121838771D01*
X86017255Y-121838771D02*
X86217255Y-121238771D01*
X86360113Y-121238771D02*
X86731541Y-121238771D01*
X86731541Y-121238771D02*
X86531541Y-121467342D01*
X86531541Y-121467342D02*
X86617256Y-121467342D01*
X86617256Y-121467342D02*
X86674399Y-121495914D01*
X86674399Y-121495914D02*
X86702970Y-121524485D01*
X86702970Y-121524485D02*
X86731541Y-121581628D01*
X86731541Y-121581628D02*
X86731541Y-121724485D01*
X86731541Y-121724485D02*
X86702970Y-121781628D01*
X86702970Y-121781628D02*
X86674399Y-121810200D01*
X86674399Y-121810200D02*
X86617256Y-121838771D01*
X86617256Y-121838771D02*
X86445827Y-121838771D01*
X86445827Y-121838771D02*
X86388684Y-121810200D01*
X86388684Y-121810200D02*
X86360113Y-121781628D01*
X82070826Y-121238771D02*
X82270826Y-121838771D01*
X82270826Y-121838771D02*
X82470826Y-121238771D01*
X82642255Y-121810200D02*
X82727970Y-121838771D01*
X82727970Y-121838771D02*
X82870827Y-121838771D01*
X82870827Y-121838771D02*
X82927970Y-121810200D01*
X82927970Y-121810200D02*
X82956541Y-121781628D01*
X82956541Y-121781628D02*
X82985112Y-121724485D01*
X82985112Y-121724485D02*
X82985112Y-121667342D01*
X82985112Y-121667342D02*
X82956541Y-121610200D01*
X82956541Y-121610200D02*
X82927970Y-121581628D01*
X82927970Y-121581628D02*
X82870827Y-121553057D01*
X82870827Y-121553057D02*
X82756541Y-121524485D01*
X82756541Y-121524485D02*
X82699398Y-121495914D01*
X82699398Y-121495914D02*
X82670827Y-121467342D01*
X82670827Y-121467342D02*
X82642255Y-121410200D01*
X82642255Y-121410200D02*
X82642255Y-121353057D01*
X82642255Y-121353057D02*
X82670827Y-121295914D01*
X82670827Y-121295914D02*
X82699398Y-121267342D01*
X82699398Y-121267342D02*
X82756541Y-121238771D01*
X82756541Y-121238771D02*
X82899398Y-121238771D01*
X82899398Y-121238771D02*
X82985112Y-121267342D01*
X83356541Y-121553057D02*
X83356541Y-121838771D01*
X83156541Y-121238771D02*
X83356541Y-121553057D01*
X83356541Y-121553057D02*
X83556541Y-121238771D01*
X83727970Y-121810200D02*
X83813685Y-121838771D01*
X83813685Y-121838771D02*
X83956542Y-121838771D01*
X83956542Y-121838771D02*
X84013685Y-121810200D01*
X84013685Y-121810200D02*
X84042256Y-121781628D01*
X84042256Y-121781628D02*
X84070827Y-121724485D01*
X84070827Y-121724485D02*
X84070827Y-121667342D01*
X84070827Y-121667342D02*
X84042256Y-121610200D01*
X84042256Y-121610200D02*
X84013685Y-121581628D01*
X84013685Y-121581628D02*
X83956542Y-121553057D01*
X83956542Y-121553057D02*
X83842256Y-121524485D01*
X83842256Y-121524485D02*
X83785113Y-121495914D01*
X83785113Y-121495914D02*
X83756542Y-121467342D01*
X83756542Y-121467342D02*
X83727970Y-121410200D01*
X83727970Y-121410200D02*
X83727970Y-121353057D01*
X83727970Y-121353057D02*
X83756542Y-121295914D01*
X83756542Y-121295914D02*
X83785113Y-121267342D01*
X83785113Y-121267342D02*
X83842256Y-121238771D01*
X83842256Y-121238771D02*
X83985113Y-121238771D01*
X83985113Y-121238771D02*
X84070827Y-121267342D01*
X116541779Y-52234819D02*
X116541779Y-51234819D01*
X116541779Y-51234819D02*
X116922731Y-51234819D01*
X116922731Y-51234819D02*
X117017969Y-51282438D01*
X117017969Y-51282438D02*
X117065588Y-51330057D01*
X117065588Y-51330057D02*
X117113207Y-51425295D01*
X117113207Y-51425295D02*
X117113207Y-51568152D01*
X117113207Y-51568152D02*
X117065588Y-51663390D01*
X117065588Y-51663390D02*
X117017969Y-51711009D01*
X117017969Y-51711009D02*
X116922731Y-51758628D01*
X116922731Y-51758628D02*
X116541779Y-51758628D01*
X117970350Y-51568152D02*
X117970350Y-52234819D01*
X117541779Y-51568152D02*
X117541779Y-52091961D01*
X117541779Y-52091961D02*
X117589398Y-52187200D01*
X117589398Y-52187200D02*
X117684636Y-52234819D01*
X117684636Y-52234819D02*
X117827493Y-52234819D01*
X117827493Y-52234819D02*
X117922731Y-52187200D01*
X117922731Y-52187200D02*
X117970350Y-52139580D01*
X118589398Y-52234819D02*
X118494160Y-52187200D01*
X118494160Y-52187200D02*
X118446541Y-52091961D01*
X118446541Y-52091961D02*
X118446541Y-51234819D01*
X118922732Y-52187200D02*
X119017970Y-52234819D01*
X119017970Y-52234819D02*
X119208446Y-52234819D01*
X119208446Y-52234819D02*
X119303684Y-52187200D01*
X119303684Y-52187200D02*
X119351303Y-52091961D01*
X119351303Y-52091961D02*
X119351303Y-52044342D01*
X119351303Y-52044342D02*
X119303684Y-51949104D01*
X119303684Y-51949104D02*
X119208446Y-51901485D01*
X119208446Y-51901485D02*
X119065589Y-51901485D01*
X119065589Y-51901485D02*
X118970351Y-51853866D01*
X118970351Y-51853866D02*
X118922732Y-51758628D01*
X118922732Y-51758628D02*
X118922732Y-51711009D01*
X118922732Y-51711009D02*
X118970351Y-51615771D01*
X118970351Y-51615771D02*
X119065589Y-51568152D01*
X119065589Y-51568152D02*
X119208446Y-51568152D01*
X119208446Y-51568152D02*
X119303684Y-51615771D01*
X119922732Y-52234819D02*
X119827494Y-52187200D01*
X119827494Y-52187200D02*
X119779875Y-52139580D01*
X119779875Y-52139580D02*
X119732256Y-52044342D01*
X119732256Y-52044342D02*
X119732256Y-51758628D01*
X119732256Y-51758628D02*
X119779875Y-51663390D01*
X119779875Y-51663390D02*
X119827494Y-51615771D01*
X119827494Y-51615771D02*
X119922732Y-51568152D01*
X119922732Y-51568152D02*
X120065589Y-51568152D01*
X120065589Y-51568152D02*
X120160827Y-51615771D01*
X120160827Y-51615771D02*
X120208446Y-51663390D01*
X120208446Y-51663390D02*
X120256065Y-51758628D01*
X120256065Y-51758628D02*
X120256065Y-52044342D01*
X120256065Y-52044342D02*
X120208446Y-52139580D01*
X120208446Y-52139580D02*
X120160827Y-52187200D01*
X120160827Y-52187200D02*
X120065589Y-52234819D01*
X120065589Y-52234819D02*
X119922732Y-52234819D01*
X120589399Y-52234819D02*
X121113208Y-51568152D01*
X120589399Y-51568152D02*
X121113208Y-52234819D01*
X121494161Y-52234819D02*
X121494161Y-51568152D01*
X121494161Y-51234819D02*
X121446542Y-51282438D01*
X121446542Y-51282438D02*
X121494161Y-51330057D01*
X121494161Y-51330057D02*
X121541780Y-51282438D01*
X121541780Y-51282438D02*
X121494161Y-51234819D01*
X121494161Y-51234819D02*
X121494161Y-51330057D01*
X121970351Y-52234819D02*
X121970351Y-51568152D01*
X121970351Y-51663390D02*
X122017970Y-51615771D01*
X122017970Y-51615771D02*
X122113208Y-51568152D01*
X122113208Y-51568152D02*
X122256065Y-51568152D01*
X122256065Y-51568152D02*
X122351303Y-51615771D01*
X122351303Y-51615771D02*
X122398922Y-51711009D01*
X122398922Y-51711009D02*
X122398922Y-52234819D01*
X122398922Y-51711009D02*
X122446541Y-51615771D01*
X122446541Y-51615771D02*
X122541779Y-51568152D01*
X122541779Y-51568152D02*
X122684636Y-51568152D01*
X122684636Y-51568152D02*
X122779875Y-51615771D01*
X122779875Y-51615771D02*
X122827494Y-51711009D01*
X122827494Y-51711009D02*
X122827494Y-52234819D01*
X123684636Y-52187200D02*
X123589398Y-52234819D01*
X123589398Y-52234819D02*
X123398922Y-52234819D01*
X123398922Y-52234819D02*
X123303684Y-52187200D01*
X123303684Y-52187200D02*
X123256065Y-52091961D01*
X123256065Y-52091961D02*
X123256065Y-51711009D01*
X123256065Y-51711009D02*
X123303684Y-51615771D01*
X123303684Y-51615771D02*
X123398922Y-51568152D01*
X123398922Y-51568152D02*
X123589398Y-51568152D01*
X123589398Y-51568152D02*
X123684636Y-51615771D01*
X123684636Y-51615771D02*
X123732255Y-51711009D01*
X123732255Y-51711009D02*
X123732255Y-51806247D01*
X123732255Y-51806247D02*
X123256065Y-51901485D01*
X124017970Y-51568152D02*
X124398922Y-51568152D01*
X124160827Y-51234819D02*
X124160827Y-52091961D01*
X124160827Y-52091961D02*
X124208446Y-52187200D01*
X124208446Y-52187200D02*
X124303684Y-52234819D01*
X124303684Y-52234819D02*
X124398922Y-52234819D01*
X125113208Y-52187200D02*
X125017970Y-52234819D01*
X125017970Y-52234819D02*
X124827494Y-52234819D01*
X124827494Y-52234819D02*
X124732256Y-52187200D01*
X124732256Y-52187200D02*
X124684637Y-52091961D01*
X124684637Y-52091961D02*
X124684637Y-51711009D01*
X124684637Y-51711009D02*
X124732256Y-51615771D01*
X124732256Y-51615771D02*
X124827494Y-51568152D01*
X124827494Y-51568152D02*
X125017970Y-51568152D01*
X125017970Y-51568152D02*
X125113208Y-51615771D01*
X125113208Y-51615771D02*
X125160827Y-51711009D01*
X125160827Y-51711009D02*
X125160827Y-51806247D01*
X125160827Y-51806247D02*
X124684637Y-51901485D01*
X125589399Y-52234819D02*
X125589399Y-51568152D01*
X125589399Y-51758628D02*
X125637018Y-51663390D01*
X125637018Y-51663390D02*
X125684637Y-51615771D01*
X125684637Y-51615771D02*
X125779875Y-51568152D01*
X125779875Y-51568152D02*
X125875113Y-51568152D01*
X126970352Y-51711009D02*
X127303685Y-51711009D01*
X127446542Y-52234819D02*
X126970352Y-52234819D01*
X126970352Y-52234819D02*
X126970352Y-51234819D01*
X126970352Y-51234819D02*
X127446542Y-51234819D01*
X127779876Y-52234819D02*
X128303685Y-51568152D01*
X127779876Y-51568152D02*
X128303685Y-52234819D01*
X129113209Y-52234819D02*
X129113209Y-51711009D01*
X129113209Y-51711009D02*
X129065590Y-51615771D01*
X129065590Y-51615771D02*
X128970352Y-51568152D01*
X128970352Y-51568152D02*
X128779876Y-51568152D01*
X128779876Y-51568152D02*
X128684638Y-51615771D01*
X129113209Y-52187200D02*
X129017971Y-52234819D01*
X129017971Y-52234819D02*
X128779876Y-52234819D01*
X128779876Y-52234819D02*
X128684638Y-52187200D01*
X128684638Y-52187200D02*
X128637019Y-52091961D01*
X128637019Y-52091961D02*
X128637019Y-51996723D01*
X128637019Y-51996723D02*
X128684638Y-51901485D01*
X128684638Y-51901485D02*
X128779876Y-51853866D01*
X128779876Y-51853866D02*
X129017971Y-51853866D01*
X129017971Y-51853866D02*
X129113209Y-51806247D01*
X129589400Y-52234819D02*
X129589400Y-51568152D01*
X129589400Y-51663390D02*
X129637019Y-51615771D01*
X129637019Y-51615771D02*
X129732257Y-51568152D01*
X129732257Y-51568152D02*
X129875114Y-51568152D01*
X129875114Y-51568152D02*
X129970352Y-51615771D01*
X129970352Y-51615771D02*
X130017971Y-51711009D01*
X130017971Y-51711009D02*
X130017971Y-52234819D01*
X130017971Y-51711009D02*
X130065590Y-51615771D01*
X130065590Y-51615771D02*
X130160828Y-51568152D01*
X130160828Y-51568152D02*
X130303685Y-51568152D01*
X130303685Y-51568152D02*
X130398924Y-51615771D01*
X130398924Y-51615771D02*
X130446543Y-51711009D01*
X130446543Y-51711009D02*
X130446543Y-52234819D01*
X130922733Y-51568152D02*
X130922733Y-52568152D01*
X130922733Y-51615771D02*
X131017971Y-51568152D01*
X131017971Y-51568152D02*
X131208447Y-51568152D01*
X131208447Y-51568152D02*
X131303685Y-51615771D01*
X131303685Y-51615771D02*
X131351304Y-51663390D01*
X131351304Y-51663390D02*
X131398923Y-51758628D01*
X131398923Y-51758628D02*
X131398923Y-52044342D01*
X131398923Y-52044342D02*
X131351304Y-52139580D01*
X131351304Y-52139580D02*
X131303685Y-52187200D01*
X131303685Y-52187200D02*
X131208447Y-52234819D01*
X131208447Y-52234819D02*
X131017971Y-52234819D01*
X131017971Y-52234819D02*
X130922733Y-52187200D01*
X131970352Y-52234819D02*
X131875114Y-52187200D01*
X131875114Y-52187200D02*
X131827495Y-52091961D01*
X131827495Y-52091961D02*
X131827495Y-51234819D01*
X132732257Y-52187200D02*
X132637019Y-52234819D01*
X132637019Y-52234819D02*
X132446543Y-52234819D01*
X132446543Y-52234819D02*
X132351305Y-52187200D01*
X132351305Y-52187200D02*
X132303686Y-52091961D01*
X132303686Y-52091961D02*
X132303686Y-51711009D01*
X132303686Y-51711009D02*
X132351305Y-51615771D01*
X132351305Y-51615771D02*
X132446543Y-51568152D01*
X132446543Y-51568152D02*
X132637019Y-51568152D01*
X132637019Y-51568152D02*
X132732257Y-51615771D01*
X132732257Y-51615771D02*
X132779876Y-51711009D01*
X132779876Y-51711009D02*
X132779876Y-51806247D01*
X132779876Y-51806247D02*
X132303686Y-51901485D01*
X134303686Y-51711009D02*
X134446543Y-51758628D01*
X134446543Y-51758628D02*
X134494162Y-51806247D01*
X134494162Y-51806247D02*
X134541781Y-51901485D01*
X134541781Y-51901485D02*
X134541781Y-52044342D01*
X134541781Y-52044342D02*
X134494162Y-52139580D01*
X134494162Y-52139580D02*
X134446543Y-52187200D01*
X134446543Y-52187200D02*
X134351305Y-52234819D01*
X134351305Y-52234819D02*
X133970353Y-52234819D01*
X133970353Y-52234819D02*
X133970353Y-51234819D01*
X133970353Y-51234819D02*
X134303686Y-51234819D01*
X134303686Y-51234819D02*
X134398924Y-51282438D01*
X134398924Y-51282438D02*
X134446543Y-51330057D01*
X134446543Y-51330057D02*
X134494162Y-51425295D01*
X134494162Y-51425295D02*
X134494162Y-51520533D01*
X134494162Y-51520533D02*
X134446543Y-51615771D01*
X134446543Y-51615771D02*
X134398924Y-51663390D01*
X134398924Y-51663390D02*
X134303686Y-51711009D01*
X134303686Y-51711009D02*
X133970353Y-51711009D01*
X135113210Y-52234819D02*
X135017972Y-52187200D01*
X135017972Y-52187200D02*
X134970353Y-52139580D01*
X134970353Y-52139580D02*
X134922734Y-52044342D01*
X134922734Y-52044342D02*
X134922734Y-51758628D01*
X134922734Y-51758628D02*
X134970353Y-51663390D01*
X134970353Y-51663390D02*
X135017972Y-51615771D01*
X135017972Y-51615771D02*
X135113210Y-51568152D01*
X135113210Y-51568152D02*
X135256067Y-51568152D01*
X135256067Y-51568152D02*
X135351305Y-51615771D01*
X135351305Y-51615771D02*
X135398924Y-51663390D01*
X135398924Y-51663390D02*
X135446543Y-51758628D01*
X135446543Y-51758628D02*
X135446543Y-52044342D01*
X135446543Y-52044342D02*
X135398924Y-52139580D01*
X135398924Y-52139580D02*
X135351305Y-52187200D01*
X135351305Y-52187200D02*
X135256067Y-52234819D01*
X135256067Y-52234819D02*
X135113210Y-52234819D01*
X136303686Y-52234819D02*
X136303686Y-51711009D01*
X136303686Y-51711009D02*
X136256067Y-51615771D01*
X136256067Y-51615771D02*
X136160829Y-51568152D01*
X136160829Y-51568152D02*
X135970353Y-51568152D01*
X135970353Y-51568152D02*
X135875115Y-51615771D01*
X136303686Y-52187200D02*
X136208448Y-52234819D01*
X136208448Y-52234819D02*
X135970353Y-52234819D01*
X135970353Y-52234819D02*
X135875115Y-52187200D01*
X135875115Y-52187200D02*
X135827496Y-52091961D01*
X135827496Y-52091961D02*
X135827496Y-51996723D01*
X135827496Y-51996723D02*
X135875115Y-51901485D01*
X135875115Y-51901485D02*
X135970353Y-51853866D01*
X135970353Y-51853866D02*
X136208448Y-51853866D01*
X136208448Y-51853866D02*
X136303686Y-51806247D01*
X136779877Y-52234819D02*
X136779877Y-51568152D01*
X136779877Y-51758628D02*
X136827496Y-51663390D01*
X136827496Y-51663390D02*
X136875115Y-51615771D01*
X136875115Y-51615771D02*
X136970353Y-51568152D01*
X136970353Y-51568152D02*
X137065591Y-51568152D01*
X137827496Y-52234819D02*
X137827496Y-51234819D01*
X137827496Y-52187200D02*
X137732258Y-52234819D01*
X137732258Y-52234819D02*
X137541782Y-52234819D01*
X137541782Y-52234819D02*
X137446544Y-52187200D01*
X137446544Y-52187200D02*
X137398925Y-52139580D01*
X137398925Y-52139580D02*
X137351306Y-52044342D01*
X137351306Y-52044342D02*
X137351306Y-51758628D01*
X137351306Y-51758628D02*
X137398925Y-51663390D01*
X137398925Y-51663390D02*
X137446544Y-51615771D01*
X137446544Y-51615771D02*
X137541782Y-51568152D01*
X137541782Y-51568152D02*
X137732258Y-51568152D01*
X137732258Y-51568152D02*
X137827496Y-51615771D01*
X138922735Y-51234819D02*
X139256068Y-52234819D01*
X139256068Y-52234819D02*
X139589401Y-51234819D01*
X140446544Y-52234819D02*
X139875116Y-52234819D01*
X140160830Y-52234819D02*
X140160830Y-51234819D01*
X140160830Y-51234819D02*
X140065592Y-51377676D01*
X140065592Y-51377676D02*
X139970354Y-51472914D01*
X139970354Y-51472914D02*
X139875116Y-51520533D01*
X116446541Y-53178152D02*
X116637017Y-53844819D01*
X116637017Y-53844819D02*
X116827493Y-53368628D01*
X116827493Y-53368628D02*
X117017969Y-53844819D01*
X117017969Y-53844819D02*
X117208445Y-53178152D01*
X117494160Y-53178152D02*
X117684636Y-53844819D01*
X117684636Y-53844819D02*
X117875112Y-53368628D01*
X117875112Y-53368628D02*
X118065588Y-53844819D01*
X118065588Y-53844819D02*
X118256064Y-53178152D01*
X118541779Y-53178152D02*
X118732255Y-53844819D01*
X118732255Y-53844819D02*
X118922731Y-53368628D01*
X118922731Y-53368628D02*
X119113207Y-53844819D01*
X119113207Y-53844819D02*
X119303683Y-53178152D01*
X119684636Y-53749580D02*
X119732255Y-53797200D01*
X119732255Y-53797200D02*
X119684636Y-53844819D01*
X119684636Y-53844819D02*
X119637017Y-53797200D01*
X119637017Y-53797200D02*
X119684636Y-53749580D01*
X119684636Y-53749580D02*
X119684636Y-53844819D01*
X120541778Y-53797200D02*
X120446540Y-53844819D01*
X120446540Y-53844819D02*
X120256064Y-53844819D01*
X120256064Y-53844819D02*
X120160826Y-53797200D01*
X120160826Y-53797200D02*
X120113207Y-53701961D01*
X120113207Y-53701961D02*
X120113207Y-53321009D01*
X120113207Y-53321009D02*
X120160826Y-53225771D01*
X120160826Y-53225771D02*
X120256064Y-53178152D01*
X120256064Y-53178152D02*
X120446540Y-53178152D01*
X120446540Y-53178152D02*
X120541778Y-53225771D01*
X120541778Y-53225771D02*
X120589397Y-53321009D01*
X120589397Y-53321009D02*
X120589397Y-53416247D01*
X120589397Y-53416247D02*
X120113207Y-53511485D01*
X120875112Y-53178152D02*
X121256064Y-53178152D01*
X121017969Y-52844819D02*
X121017969Y-53701961D01*
X121017969Y-53701961D02*
X121065588Y-53797200D01*
X121065588Y-53797200D02*
X121160826Y-53844819D01*
X121160826Y-53844819D02*
X121256064Y-53844819D01*
X121494160Y-53178152D02*
X121732255Y-53844819D01*
X121732255Y-53844819D02*
X121970350Y-53178152D01*
X122351303Y-53463866D02*
X123113208Y-53463866D01*
X124017969Y-53844819D02*
X124017969Y-52844819D01*
X124017969Y-53797200D02*
X123922731Y-53844819D01*
X123922731Y-53844819D02*
X123732255Y-53844819D01*
X123732255Y-53844819D02*
X123637017Y-53797200D01*
X123637017Y-53797200D02*
X123589398Y-53749580D01*
X123589398Y-53749580D02*
X123541779Y-53654342D01*
X123541779Y-53654342D02*
X123541779Y-53368628D01*
X123541779Y-53368628D02*
X123589398Y-53273390D01*
X123589398Y-53273390D02*
X123637017Y-53225771D01*
X123637017Y-53225771D02*
X123732255Y-53178152D01*
X123732255Y-53178152D02*
X123922731Y-53178152D01*
X123922731Y-53178152D02*
X124017969Y-53225771D01*
X124922731Y-53844819D02*
X124922731Y-53321009D01*
X124922731Y-53321009D02*
X124875112Y-53225771D01*
X124875112Y-53225771D02*
X124779874Y-53178152D01*
X124779874Y-53178152D02*
X124589398Y-53178152D01*
X124589398Y-53178152D02*
X124494160Y-53225771D01*
X124922731Y-53797200D02*
X124827493Y-53844819D01*
X124827493Y-53844819D02*
X124589398Y-53844819D01*
X124589398Y-53844819D02*
X124494160Y-53797200D01*
X124494160Y-53797200D02*
X124446541Y-53701961D01*
X124446541Y-53701961D02*
X124446541Y-53606723D01*
X124446541Y-53606723D02*
X124494160Y-53511485D01*
X124494160Y-53511485D02*
X124589398Y-53463866D01*
X124589398Y-53463866D02*
X124827493Y-53463866D01*
X124827493Y-53463866D02*
X124922731Y-53416247D01*
X125398922Y-53844819D02*
X125398922Y-53178152D01*
X125398922Y-53368628D02*
X125446541Y-53273390D01*
X125446541Y-53273390D02*
X125494160Y-53225771D01*
X125494160Y-53225771D02*
X125589398Y-53178152D01*
X125589398Y-53178152D02*
X125684636Y-53178152D01*
X126017970Y-53844819D02*
X126017970Y-53178152D01*
X126017970Y-53273390D02*
X126065589Y-53225771D01*
X126065589Y-53225771D02*
X126160827Y-53178152D01*
X126160827Y-53178152D02*
X126303684Y-53178152D01*
X126303684Y-53178152D02*
X126398922Y-53225771D01*
X126398922Y-53225771D02*
X126446541Y-53321009D01*
X126446541Y-53321009D02*
X126446541Y-53844819D01*
X126446541Y-53321009D02*
X126494160Y-53225771D01*
X126494160Y-53225771D02*
X126589398Y-53178152D01*
X126589398Y-53178152D02*
X126732255Y-53178152D01*
X126732255Y-53178152D02*
X126827494Y-53225771D01*
X126827494Y-53225771D02*
X126875113Y-53321009D01*
X126875113Y-53321009D02*
X126875113Y-53844819D01*
X127303684Y-53797200D02*
X127398922Y-53844819D01*
X127398922Y-53844819D02*
X127589398Y-53844819D01*
X127589398Y-53844819D02*
X127684636Y-53797200D01*
X127684636Y-53797200D02*
X127732255Y-53701961D01*
X127732255Y-53701961D02*
X127732255Y-53654342D01*
X127732255Y-53654342D02*
X127684636Y-53559104D01*
X127684636Y-53559104D02*
X127589398Y-53511485D01*
X127589398Y-53511485D02*
X127446541Y-53511485D01*
X127446541Y-53511485D02*
X127351303Y-53463866D01*
X127351303Y-53463866D02*
X127303684Y-53368628D01*
X127303684Y-53368628D02*
X127303684Y-53321009D01*
X127303684Y-53321009D02*
X127351303Y-53225771D01*
X127351303Y-53225771D02*
X127446541Y-53178152D01*
X127446541Y-53178152D02*
X127589398Y-53178152D01*
X127589398Y-53178152D02*
X127684636Y-53225771D01*
X128017970Y-53178152D02*
X128398922Y-53178152D01*
X128160827Y-52844819D02*
X128160827Y-53701961D01*
X128160827Y-53701961D02*
X128208446Y-53797200D01*
X128208446Y-53797200D02*
X128303684Y-53844819D01*
X128303684Y-53844819D02*
X128398922Y-53844819D01*
X129160827Y-53844819D02*
X129160827Y-53321009D01*
X129160827Y-53321009D02*
X129113208Y-53225771D01*
X129113208Y-53225771D02*
X129017970Y-53178152D01*
X129017970Y-53178152D02*
X128827494Y-53178152D01*
X128827494Y-53178152D02*
X128732256Y-53225771D01*
X129160827Y-53797200D02*
X129065589Y-53844819D01*
X129065589Y-53844819D02*
X128827494Y-53844819D01*
X128827494Y-53844819D02*
X128732256Y-53797200D01*
X128732256Y-53797200D02*
X128684637Y-53701961D01*
X128684637Y-53701961D02*
X128684637Y-53606723D01*
X128684637Y-53606723D02*
X128732256Y-53511485D01*
X128732256Y-53511485D02*
X128827494Y-53463866D01*
X128827494Y-53463866D02*
X129065589Y-53463866D01*
X129065589Y-53463866D02*
X129160827Y-53416247D01*
X130065589Y-53844819D02*
X130065589Y-52844819D01*
X130065589Y-53797200D02*
X129970351Y-53844819D01*
X129970351Y-53844819D02*
X129779875Y-53844819D01*
X129779875Y-53844819D02*
X129684637Y-53797200D01*
X129684637Y-53797200D02*
X129637018Y-53749580D01*
X129637018Y-53749580D02*
X129589399Y-53654342D01*
X129589399Y-53654342D02*
X129589399Y-53368628D01*
X129589399Y-53368628D02*
X129637018Y-53273390D01*
X129637018Y-53273390D02*
X129684637Y-53225771D01*
X129684637Y-53225771D02*
X129779875Y-53178152D01*
X129779875Y-53178152D02*
X129970351Y-53178152D01*
X129970351Y-53178152D02*
X130065589Y-53225771D01*
X130398923Y-53178152D02*
X130779875Y-53178152D01*
X130541780Y-52844819D02*
X130541780Y-53701961D01*
X130541780Y-53701961D02*
X130589399Y-53797200D01*
X130589399Y-53797200D02*
X130684637Y-53844819D01*
X130684637Y-53844819D02*
X130779875Y-53844819D01*
X131113209Y-53749580D02*
X131160828Y-53797200D01*
X131160828Y-53797200D02*
X131113209Y-53844819D01*
X131113209Y-53844819D02*
X131065590Y-53797200D01*
X131065590Y-53797200D02*
X131113209Y-53749580D01*
X131113209Y-53749580D02*
X131113209Y-53844819D01*
X131732256Y-53844819D02*
X131637018Y-53797200D01*
X131637018Y-53797200D02*
X131589399Y-53749580D01*
X131589399Y-53749580D02*
X131541780Y-53654342D01*
X131541780Y-53654342D02*
X131541780Y-53368628D01*
X131541780Y-53368628D02*
X131589399Y-53273390D01*
X131589399Y-53273390D02*
X131637018Y-53225771D01*
X131637018Y-53225771D02*
X131732256Y-53178152D01*
X131732256Y-53178152D02*
X131875113Y-53178152D01*
X131875113Y-53178152D02*
X131970351Y-53225771D01*
X131970351Y-53225771D02*
X132017970Y-53273390D01*
X132017970Y-53273390D02*
X132065589Y-53368628D01*
X132065589Y-53368628D02*
X132065589Y-53654342D01*
X132065589Y-53654342D02*
X132017970Y-53749580D01*
X132017970Y-53749580D02*
X131970351Y-53797200D01*
X131970351Y-53797200D02*
X131875113Y-53844819D01*
X131875113Y-53844819D02*
X131732256Y-53844819D01*
X132494161Y-53844819D02*
X132494161Y-53178152D01*
X132494161Y-53368628D02*
X132541780Y-53273390D01*
X132541780Y-53273390D02*
X132589399Y-53225771D01*
X132589399Y-53225771D02*
X132684637Y-53178152D01*
X132684637Y-53178152D02*
X132779875Y-53178152D01*
X133541780Y-53178152D02*
X133541780Y-53987676D01*
X133541780Y-53987676D02*
X133494161Y-54082914D01*
X133494161Y-54082914D02*
X133446542Y-54130533D01*
X133446542Y-54130533D02*
X133351304Y-54178152D01*
X133351304Y-54178152D02*
X133208447Y-54178152D01*
X133208447Y-54178152D02*
X133113209Y-54130533D01*
X133541780Y-53797200D02*
X133446542Y-53844819D01*
X133446542Y-53844819D02*
X133256066Y-53844819D01*
X133256066Y-53844819D02*
X133160828Y-53797200D01*
X133160828Y-53797200D02*
X133113209Y-53749580D01*
X133113209Y-53749580D02*
X133065590Y-53654342D01*
X133065590Y-53654342D02*
X133065590Y-53368628D01*
X133065590Y-53368628D02*
X133113209Y-53273390D01*
X133113209Y-53273390D02*
X133160828Y-53225771D01*
X133160828Y-53225771D02*
X133256066Y-53178152D01*
X133256066Y-53178152D02*
X133446542Y-53178152D01*
X133446542Y-53178152D02*
X133541780Y-53225771D01*
X134732256Y-52797200D02*
X133875114Y-54082914D01*
X135494161Y-53844819D02*
X135494161Y-52844819D01*
X135494161Y-53797200D02*
X135398923Y-53844819D01*
X135398923Y-53844819D02*
X135208447Y-53844819D01*
X135208447Y-53844819D02*
X135113209Y-53797200D01*
X135113209Y-53797200D02*
X135065590Y-53749580D01*
X135065590Y-53749580D02*
X135017971Y-53654342D01*
X135017971Y-53654342D02*
X135017971Y-53368628D01*
X135017971Y-53368628D02*
X135065590Y-53273390D01*
X135065590Y-53273390D02*
X135113209Y-53225771D01*
X135113209Y-53225771D02*
X135208447Y-53178152D01*
X135208447Y-53178152D02*
X135398923Y-53178152D01*
X135398923Y-53178152D02*
X135494161Y-53225771D01*
X136351304Y-53797200D02*
X136256066Y-53844819D01*
X136256066Y-53844819D02*
X136065590Y-53844819D01*
X136065590Y-53844819D02*
X135970352Y-53797200D01*
X135970352Y-53797200D02*
X135922733Y-53701961D01*
X135922733Y-53701961D02*
X135922733Y-53321009D01*
X135922733Y-53321009D02*
X135970352Y-53225771D01*
X135970352Y-53225771D02*
X136065590Y-53178152D01*
X136065590Y-53178152D02*
X136256066Y-53178152D01*
X136256066Y-53178152D02*
X136351304Y-53225771D01*
X136351304Y-53225771D02*
X136398923Y-53321009D01*
X136398923Y-53321009D02*
X136398923Y-53416247D01*
X136398923Y-53416247D02*
X135922733Y-53511485D01*
X85931666Y-117247200D02*
X86074523Y-117294819D01*
X86074523Y-117294819D02*
X86312618Y-117294819D01*
X86312618Y-117294819D02*
X86407856Y-117247200D01*
X86407856Y-117247200D02*
X86455475Y-117199580D01*
X86455475Y-117199580D02*
X86503094Y-117104342D01*
X86503094Y-117104342D02*
X86503094Y-117009104D01*
X86503094Y-117009104D02*
X86455475Y-116913866D01*
X86455475Y-116913866D02*
X86407856Y-116866247D01*
X86407856Y-116866247D02*
X86312618Y-116818628D01*
X86312618Y-116818628D02*
X86122142Y-116771009D01*
X86122142Y-116771009D02*
X86026904Y-116723390D01*
X86026904Y-116723390D02*
X85979285Y-116675771D01*
X85979285Y-116675771D02*
X85931666Y-116580533D01*
X85931666Y-116580533D02*
X85931666Y-116485295D01*
X85931666Y-116485295D02*
X85979285Y-116390057D01*
X85979285Y-116390057D02*
X86026904Y-116342438D01*
X86026904Y-116342438D02*
X86122142Y-116294819D01*
X86122142Y-116294819D02*
X86360237Y-116294819D01*
X86360237Y-116294819D02*
X86503094Y-116342438D01*
X87312618Y-117247200D02*
X87217380Y-117294819D01*
X87217380Y-117294819D02*
X87026904Y-117294819D01*
X87026904Y-117294819D02*
X86931666Y-117247200D01*
X86931666Y-117247200D02*
X86884047Y-117151961D01*
X86884047Y-117151961D02*
X86884047Y-116771009D01*
X86884047Y-116771009D02*
X86931666Y-116675771D01*
X86931666Y-116675771D02*
X87026904Y-116628152D01*
X87026904Y-116628152D02*
X87217380Y-116628152D01*
X87217380Y-116628152D02*
X87312618Y-116675771D01*
X87312618Y-116675771D02*
X87360237Y-116771009D01*
X87360237Y-116771009D02*
X87360237Y-116866247D01*
X87360237Y-116866247D02*
X86884047Y-116961485D01*
X87788809Y-116628152D02*
X87788809Y-117294819D01*
X87788809Y-116723390D02*
X87836428Y-116675771D01*
X87836428Y-116675771D02*
X87931666Y-116628152D01*
X87931666Y-116628152D02*
X88074523Y-116628152D01*
X88074523Y-116628152D02*
X88169761Y-116675771D01*
X88169761Y-116675771D02*
X88217380Y-116771009D01*
X88217380Y-116771009D02*
X88217380Y-117294819D01*
X88645952Y-117247200D02*
X88741190Y-117294819D01*
X88741190Y-117294819D02*
X88931666Y-117294819D01*
X88931666Y-117294819D02*
X89026904Y-117247200D01*
X89026904Y-117247200D02*
X89074523Y-117151961D01*
X89074523Y-117151961D02*
X89074523Y-117104342D01*
X89074523Y-117104342D02*
X89026904Y-117009104D01*
X89026904Y-117009104D02*
X88931666Y-116961485D01*
X88931666Y-116961485D02*
X88788809Y-116961485D01*
X88788809Y-116961485D02*
X88693571Y-116913866D01*
X88693571Y-116913866D02*
X88645952Y-116818628D01*
X88645952Y-116818628D02*
X88645952Y-116771009D01*
X88645952Y-116771009D02*
X88693571Y-116675771D01*
X88693571Y-116675771D02*
X88788809Y-116628152D01*
X88788809Y-116628152D02*
X88931666Y-116628152D01*
X88931666Y-116628152D02*
X89026904Y-116675771D01*
X89645952Y-117294819D02*
X89550714Y-117247200D01*
X89550714Y-117247200D02*
X89503095Y-117199580D01*
X89503095Y-117199580D02*
X89455476Y-117104342D01*
X89455476Y-117104342D02*
X89455476Y-116818628D01*
X89455476Y-116818628D02*
X89503095Y-116723390D01*
X89503095Y-116723390D02*
X89550714Y-116675771D01*
X89550714Y-116675771D02*
X89645952Y-116628152D01*
X89645952Y-116628152D02*
X89788809Y-116628152D01*
X89788809Y-116628152D02*
X89884047Y-116675771D01*
X89884047Y-116675771D02*
X89931666Y-116723390D01*
X89931666Y-116723390D02*
X89979285Y-116818628D01*
X89979285Y-116818628D02*
X89979285Y-117104342D01*
X89979285Y-117104342D02*
X89931666Y-117199580D01*
X89931666Y-117199580D02*
X89884047Y-117247200D01*
X89884047Y-117247200D02*
X89788809Y-117294819D01*
X89788809Y-117294819D02*
X89645952Y-117294819D01*
X90407857Y-117294819D02*
X90407857Y-116628152D01*
X90407857Y-116818628D02*
X90455476Y-116723390D01*
X90455476Y-116723390D02*
X90503095Y-116675771D01*
X90503095Y-116675771D02*
X90598333Y-116628152D01*
X90598333Y-116628152D02*
X90693571Y-116628152D01*
X139789819Y-117808333D02*
X140504104Y-117808333D01*
X140504104Y-117808333D02*
X140646961Y-117855952D01*
X140646961Y-117855952D02*
X140742200Y-117951190D01*
X140742200Y-117951190D02*
X140789819Y-118094047D01*
X140789819Y-118094047D02*
X140789819Y-118189285D01*
X139789819Y-117427380D02*
X139789819Y-116760714D01*
X139789819Y-116760714D02*
X140789819Y-117189285D01*
X105243333Y-140804819D02*
X104910000Y-140328628D01*
X104671905Y-140804819D02*
X104671905Y-139804819D01*
X104671905Y-139804819D02*
X105052857Y-139804819D01*
X105052857Y-139804819D02*
X105148095Y-139852438D01*
X105148095Y-139852438D02*
X105195714Y-139900057D01*
X105195714Y-139900057D02*
X105243333Y-139995295D01*
X105243333Y-139995295D02*
X105243333Y-140138152D01*
X105243333Y-140138152D02*
X105195714Y-140233390D01*
X105195714Y-140233390D02*
X105148095Y-140281009D01*
X105148095Y-140281009D02*
X105052857Y-140328628D01*
X105052857Y-140328628D02*
X104671905Y-140328628D01*
X106100476Y-140138152D02*
X106100476Y-140804819D01*
X105862381Y-139757200D02*
X105624286Y-140471485D01*
X105624286Y-140471485D02*
X106243333Y-140471485D01*
X102478333Y-73689819D02*
X102145000Y-73213628D01*
X101906905Y-73689819D02*
X101906905Y-72689819D01*
X101906905Y-72689819D02*
X102287857Y-72689819D01*
X102287857Y-72689819D02*
X102383095Y-72737438D01*
X102383095Y-72737438D02*
X102430714Y-72785057D01*
X102430714Y-72785057D02*
X102478333Y-72880295D01*
X102478333Y-72880295D02*
X102478333Y-73023152D01*
X102478333Y-73023152D02*
X102430714Y-73118390D01*
X102430714Y-73118390D02*
X102383095Y-73166009D01*
X102383095Y-73166009D02*
X102287857Y-73213628D01*
X102287857Y-73213628D02*
X101906905Y-73213628D01*
X102859286Y-72785057D02*
X102906905Y-72737438D01*
X102906905Y-72737438D02*
X103002143Y-72689819D01*
X103002143Y-72689819D02*
X103240238Y-72689819D01*
X103240238Y-72689819D02*
X103335476Y-72737438D01*
X103335476Y-72737438D02*
X103383095Y-72785057D01*
X103383095Y-72785057D02*
X103430714Y-72880295D01*
X103430714Y-72880295D02*
X103430714Y-72975533D01*
X103430714Y-72975533D02*
X103383095Y-73118390D01*
X103383095Y-73118390D02*
X102811667Y-73689819D01*
X102811667Y-73689819D02*
X103430714Y-73689819D01*
X117718333Y-72194819D02*
X117385000Y-71718628D01*
X117146905Y-72194819D02*
X117146905Y-71194819D01*
X117146905Y-71194819D02*
X117527857Y-71194819D01*
X117527857Y-71194819D02*
X117623095Y-71242438D01*
X117623095Y-71242438D02*
X117670714Y-71290057D01*
X117670714Y-71290057D02*
X117718333Y-71385295D01*
X117718333Y-71385295D02*
X117718333Y-71528152D01*
X117718333Y-71528152D02*
X117670714Y-71623390D01*
X117670714Y-71623390D02*
X117623095Y-71671009D01*
X117623095Y-71671009D02*
X117527857Y-71718628D01*
X117527857Y-71718628D02*
X117146905Y-71718628D01*
X118051667Y-71194819D02*
X118670714Y-71194819D01*
X118670714Y-71194819D02*
X118337381Y-71575771D01*
X118337381Y-71575771D02*
X118480238Y-71575771D01*
X118480238Y-71575771D02*
X118575476Y-71623390D01*
X118575476Y-71623390D02*
X118623095Y-71671009D01*
X118623095Y-71671009D02*
X118670714Y-71766247D01*
X118670714Y-71766247D02*
X118670714Y-72004342D01*
X118670714Y-72004342D02*
X118623095Y-72099580D01*
X118623095Y-72099580D02*
X118575476Y-72147200D01*
X118575476Y-72147200D02*
X118480238Y-72194819D01*
X118480238Y-72194819D02*
X118194524Y-72194819D01*
X118194524Y-72194819D02*
X118099286Y-72147200D01*
X118099286Y-72147200D02*
X118051667Y-72099580D01*
X116627200Y-147383332D02*
X116674819Y-147240475D01*
X116674819Y-147240475D02*
X116674819Y-147002380D01*
X116674819Y-147002380D02*
X116627200Y-146907142D01*
X116627200Y-146907142D02*
X116579580Y-146859523D01*
X116579580Y-146859523D02*
X116484342Y-146811904D01*
X116484342Y-146811904D02*
X116389104Y-146811904D01*
X116389104Y-146811904D02*
X116293866Y-146859523D01*
X116293866Y-146859523D02*
X116246247Y-146907142D01*
X116246247Y-146907142D02*
X116198628Y-147002380D01*
X116198628Y-147002380D02*
X116151009Y-147192856D01*
X116151009Y-147192856D02*
X116103390Y-147288094D01*
X116103390Y-147288094D02*
X116055771Y-147335713D01*
X116055771Y-147335713D02*
X115960533Y-147383332D01*
X115960533Y-147383332D02*
X115865295Y-147383332D01*
X115865295Y-147383332D02*
X115770057Y-147335713D01*
X115770057Y-147335713D02*
X115722438Y-147288094D01*
X115722438Y-147288094D02*
X115674819Y-147192856D01*
X115674819Y-147192856D02*
X115674819Y-146954761D01*
X115674819Y-146954761D02*
X115722438Y-146811904D01*
X115674819Y-146478570D02*
X116674819Y-146240475D01*
X116674819Y-146240475D02*
X115960533Y-146049999D01*
X115960533Y-146049999D02*
X116674819Y-145859523D01*
X116674819Y-145859523D02*
X115674819Y-145621428D01*
X115674819Y-145335713D02*
X115674819Y-144716666D01*
X115674819Y-144716666D02*
X116055771Y-145049999D01*
X116055771Y-145049999D02*
X116055771Y-144907142D01*
X116055771Y-144907142D02*
X116103390Y-144811904D01*
X116103390Y-144811904D02*
X116151009Y-144764285D01*
X116151009Y-144764285D02*
X116246247Y-144716666D01*
X116246247Y-144716666D02*
X116484342Y-144716666D01*
X116484342Y-144716666D02*
X116579580Y-144764285D01*
X116579580Y-144764285D02*
X116627200Y-144811904D01*
X116627200Y-144811904D02*
X116674819Y-144907142D01*
X116674819Y-144907142D02*
X116674819Y-145192856D01*
X116674819Y-145192856D02*
X116627200Y-145288094D01*
X116627200Y-145288094D02*
X116579580Y-145335713D01*
X102723333Y-142009580D02*
X102675714Y-142057200D01*
X102675714Y-142057200D02*
X102532857Y-142104819D01*
X102532857Y-142104819D02*
X102437619Y-142104819D01*
X102437619Y-142104819D02*
X102294762Y-142057200D01*
X102294762Y-142057200D02*
X102199524Y-141961961D01*
X102199524Y-141961961D02*
X102151905Y-141866723D01*
X102151905Y-141866723D02*
X102104286Y-141676247D01*
X102104286Y-141676247D02*
X102104286Y-141533390D01*
X102104286Y-141533390D02*
X102151905Y-141342914D01*
X102151905Y-141342914D02*
X102199524Y-141247676D01*
X102199524Y-141247676D02*
X102294762Y-141152438D01*
X102294762Y-141152438D02*
X102437619Y-141104819D01*
X102437619Y-141104819D02*
X102532857Y-141104819D01*
X102532857Y-141104819D02*
X102675714Y-141152438D01*
X102675714Y-141152438D02*
X102723333Y-141200057D01*
X103104286Y-141200057D02*
X103151905Y-141152438D01*
X103151905Y-141152438D02*
X103247143Y-141104819D01*
X103247143Y-141104819D02*
X103485238Y-141104819D01*
X103485238Y-141104819D02*
X103580476Y-141152438D01*
X103580476Y-141152438D02*
X103628095Y-141200057D01*
X103628095Y-141200057D02*
X103675714Y-141295295D01*
X103675714Y-141295295D02*
X103675714Y-141390533D01*
X103675714Y-141390533D02*
X103628095Y-141533390D01*
X103628095Y-141533390D02*
X103056667Y-142104819D01*
X103056667Y-142104819D02*
X103675714Y-142104819D01*
X79330057Y-92575238D02*
X79282438Y-92670476D01*
X79282438Y-92670476D02*
X79187200Y-92765714D01*
X79187200Y-92765714D02*
X79044342Y-92908571D01*
X79044342Y-92908571D02*
X78996723Y-93003809D01*
X78996723Y-93003809D02*
X78996723Y-93099047D01*
X79234819Y-93051428D02*
X79187200Y-93146666D01*
X79187200Y-93146666D02*
X79091961Y-93241904D01*
X79091961Y-93241904D02*
X78901485Y-93289523D01*
X78901485Y-93289523D02*
X78568152Y-93289523D01*
X78568152Y-93289523D02*
X78377676Y-93241904D01*
X78377676Y-93241904D02*
X78282438Y-93146666D01*
X78282438Y-93146666D02*
X78234819Y-93051428D01*
X78234819Y-93051428D02*
X78234819Y-92860952D01*
X78234819Y-92860952D02*
X78282438Y-92765714D01*
X78282438Y-92765714D02*
X78377676Y-92670476D01*
X78377676Y-92670476D02*
X78568152Y-92622857D01*
X78568152Y-92622857D02*
X78901485Y-92622857D01*
X78901485Y-92622857D02*
X79091961Y-92670476D01*
X79091961Y-92670476D02*
X79187200Y-92765714D01*
X79187200Y-92765714D02*
X79234819Y-92860952D01*
X79234819Y-92860952D02*
X79234819Y-93051428D01*
X79234819Y-91670476D02*
X79234819Y-92241904D01*
X79234819Y-91956190D02*
X78234819Y-91956190D01*
X78234819Y-91956190D02*
X78377676Y-92051428D01*
X78377676Y-92051428D02*
X78472914Y-92146666D01*
X78472914Y-92146666D02*
X78520533Y-92241904D01*
X111547200Y-147383332D02*
X111594819Y-147240475D01*
X111594819Y-147240475D02*
X111594819Y-147002380D01*
X111594819Y-147002380D02*
X111547200Y-146907142D01*
X111547200Y-146907142D02*
X111499580Y-146859523D01*
X111499580Y-146859523D02*
X111404342Y-146811904D01*
X111404342Y-146811904D02*
X111309104Y-146811904D01*
X111309104Y-146811904D02*
X111213866Y-146859523D01*
X111213866Y-146859523D02*
X111166247Y-146907142D01*
X111166247Y-146907142D02*
X111118628Y-147002380D01*
X111118628Y-147002380D02*
X111071009Y-147192856D01*
X111071009Y-147192856D02*
X111023390Y-147288094D01*
X111023390Y-147288094D02*
X110975771Y-147335713D01*
X110975771Y-147335713D02*
X110880533Y-147383332D01*
X110880533Y-147383332D02*
X110785295Y-147383332D01*
X110785295Y-147383332D02*
X110690057Y-147335713D01*
X110690057Y-147335713D02*
X110642438Y-147288094D01*
X110642438Y-147288094D02*
X110594819Y-147192856D01*
X110594819Y-147192856D02*
X110594819Y-146954761D01*
X110594819Y-146954761D02*
X110642438Y-146811904D01*
X110594819Y-146478570D02*
X111594819Y-146240475D01*
X111594819Y-146240475D02*
X110880533Y-146049999D01*
X110880533Y-146049999D02*
X111594819Y-145859523D01*
X111594819Y-145859523D02*
X110594819Y-145621428D01*
X110690057Y-145288094D02*
X110642438Y-145240475D01*
X110642438Y-145240475D02*
X110594819Y-145145237D01*
X110594819Y-145145237D02*
X110594819Y-144907142D01*
X110594819Y-144907142D02*
X110642438Y-144811904D01*
X110642438Y-144811904D02*
X110690057Y-144764285D01*
X110690057Y-144764285D02*
X110785295Y-144716666D01*
X110785295Y-144716666D02*
X110880533Y-144716666D01*
X110880533Y-144716666D02*
X111023390Y-144764285D01*
X111023390Y-144764285D02*
X111594819Y-145335713D01*
X111594819Y-145335713D02*
X111594819Y-144716666D01*
X115024819Y-98551904D02*
X115834342Y-98551904D01*
X115834342Y-98551904D02*
X115929580Y-98504285D01*
X115929580Y-98504285D02*
X115977200Y-98456666D01*
X115977200Y-98456666D02*
X116024819Y-98361428D01*
X116024819Y-98361428D02*
X116024819Y-98170952D01*
X116024819Y-98170952D02*
X115977200Y-98075714D01*
X115977200Y-98075714D02*
X115929580Y-98028095D01*
X115929580Y-98028095D02*
X115834342Y-97980476D01*
X115834342Y-97980476D02*
X115024819Y-97980476D01*
X115120057Y-97551904D02*
X115072438Y-97504285D01*
X115072438Y-97504285D02*
X115024819Y-97409047D01*
X115024819Y-97409047D02*
X115024819Y-97170952D01*
X115024819Y-97170952D02*
X115072438Y-97075714D01*
X115072438Y-97075714D02*
X115120057Y-97028095D01*
X115120057Y-97028095D02*
X115215295Y-96980476D01*
X115215295Y-96980476D02*
X115310533Y-96980476D01*
X115310533Y-96980476D02*
X115453390Y-97028095D01*
X115453390Y-97028095D02*
X116024819Y-97599523D01*
X116024819Y-97599523D02*
X116024819Y-96980476D01*
X102768011Y-83195997D02*
X103030651Y-83458637D01*
X103030651Y-83458637D02*
X102727605Y-83478840D01*
X102727605Y-83478840D02*
X102788214Y-83539449D01*
X102788214Y-83539449D02*
X102808417Y-83600058D01*
X102808417Y-83600058D02*
X102808417Y-83640464D01*
X102808417Y-83640464D02*
X102788214Y-83701073D01*
X102788214Y-83701073D02*
X102687199Y-83802089D01*
X102687199Y-83802089D02*
X102626590Y-83822292D01*
X102626590Y-83822292D02*
X102586183Y-83822292D01*
X102586183Y-83822292D02*
X102525574Y-83802089D01*
X102525574Y-83802089D02*
X102404356Y-83680870D01*
X102404356Y-83680870D02*
X102384153Y-83620261D01*
X102384153Y-83620261D02*
X102384153Y-83579855D01*
X103151869Y-83579855D02*
X102869026Y-84145541D01*
X102869026Y-84145541D02*
X103434712Y-83862698D01*
X103535727Y-83963714D02*
X103798367Y-84226353D01*
X103798367Y-84226353D02*
X103495321Y-84246556D01*
X103495321Y-84246556D02*
X103555930Y-84307165D01*
X103555930Y-84307165D02*
X103576133Y-84367775D01*
X103576133Y-84367775D02*
X103576133Y-84408181D01*
X103576133Y-84408181D02*
X103555930Y-84468790D01*
X103555930Y-84468790D02*
X103454915Y-84569805D01*
X103454915Y-84569805D02*
X103394306Y-84590008D01*
X103394306Y-84590008D02*
X103353900Y-84590008D01*
X103353900Y-84590008D02*
X103293291Y-84569805D01*
X103293291Y-84569805D02*
X103172072Y-84448587D01*
X103172072Y-84448587D02*
X103151869Y-84387978D01*
X103151869Y-84387978D02*
X103151869Y-84347572D01*
X103414509Y-84771836D02*
X103737758Y-85095085D01*
X103980195Y-85014273D02*
X104182225Y-85216303D01*
X103818570Y-85095085D02*
X104384256Y-84812242D01*
X104384256Y-84812242D02*
X104101413Y-85377928D01*
X104242835Y-85519349D02*
X104667099Y-85095085D01*
X104667099Y-85095085D02*
X104768114Y-85196100D01*
X104768114Y-85196100D02*
X104808520Y-85276913D01*
X104808520Y-85276913D02*
X104808520Y-85357725D01*
X104808520Y-85357725D02*
X104788317Y-85418334D01*
X104788317Y-85418334D02*
X104727708Y-85519349D01*
X104727708Y-85519349D02*
X104667099Y-85579958D01*
X104667099Y-85579958D02*
X104566084Y-85640567D01*
X104566084Y-85640567D02*
X104505474Y-85660770D01*
X104505474Y-85660770D02*
X104424662Y-85660770D01*
X104424662Y-85660770D02*
X104343850Y-85620364D01*
X104343850Y-85620364D02*
X104242835Y-85519349D01*
X104949942Y-86145644D02*
X104909535Y-86145644D01*
X104909535Y-86145644D02*
X104828723Y-86105238D01*
X104828723Y-86105238D02*
X104788317Y-86064832D01*
X104788317Y-86064832D02*
X104747911Y-85984019D01*
X104747911Y-85984019D02*
X104747911Y-85903207D01*
X104747911Y-85903207D02*
X104768114Y-85842598D01*
X104768114Y-85842598D02*
X104828723Y-85741583D01*
X104828723Y-85741583D02*
X104889332Y-85680974D01*
X104889332Y-85680974D02*
X104990348Y-85620364D01*
X104990348Y-85620364D02*
X105050957Y-85600161D01*
X105050957Y-85600161D02*
X105131769Y-85600161D01*
X105131769Y-85600161D02*
X105212581Y-85640567D01*
X105212581Y-85640567D02*
X105252987Y-85680974D01*
X105252987Y-85680974D02*
X105293393Y-85761786D01*
X105293393Y-85761786D02*
X105293393Y-85802192D01*
X121771568Y-84276435D02*
X121744631Y-84195623D01*
X121744631Y-84195623D02*
X121663819Y-84114811D01*
X121663819Y-84114811D02*
X121556069Y-84060936D01*
X121556069Y-84060936D02*
X121448319Y-84060936D01*
X121448319Y-84060936D02*
X121367507Y-84087873D01*
X121367507Y-84087873D02*
X121232820Y-84168685D01*
X121232820Y-84168685D02*
X121152008Y-84249498D01*
X121152008Y-84249498D02*
X121071196Y-84384185D01*
X121071196Y-84384185D02*
X121044258Y-84464997D01*
X121044258Y-84464997D02*
X121044258Y-84572746D01*
X121044258Y-84572746D02*
X121098133Y-84680496D01*
X121098133Y-84680496D02*
X121152008Y-84734371D01*
X121152008Y-84734371D02*
X121259758Y-84788246D01*
X121259758Y-84788246D02*
X121313632Y-84788246D01*
X121313632Y-84788246D02*
X121502194Y-84599684D01*
X121502194Y-84599684D02*
X121394445Y-84491934D01*
X121502194Y-85084557D02*
X122067880Y-84518872D01*
X122067880Y-84518872D02*
X121825443Y-85407806D01*
X121825443Y-85407806D02*
X122391128Y-84842120D01*
X122094817Y-85677180D02*
X122660502Y-85111494D01*
X122660502Y-85111494D02*
X122795189Y-85246181D01*
X122795189Y-85246181D02*
X122849064Y-85353931D01*
X122849064Y-85353931D02*
X122849064Y-85461680D01*
X122849064Y-85461680D02*
X122822127Y-85542493D01*
X122822127Y-85542493D02*
X122741314Y-85677180D01*
X122741314Y-85677180D02*
X122660502Y-85757992D01*
X122660502Y-85757992D02*
X122525815Y-85838804D01*
X122525815Y-85838804D02*
X122445003Y-85865741D01*
X122445003Y-85865741D02*
X122337253Y-85865741D01*
X122337253Y-85865741D02*
X122229504Y-85811867D01*
X122229504Y-85811867D02*
X122094817Y-85677180D01*
X97874478Y-109962966D02*
X97928352Y-110070715D01*
X97928352Y-110070715D02*
X98063039Y-110205402D01*
X98063039Y-110205402D02*
X98143852Y-110232340D01*
X98143852Y-110232340D02*
X98197726Y-110232340D01*
X98197726Y-110232340D02*
X98278539Y-110205402D01*
X98278539Y-110205402D02*
X98332413Y-110151528D01*
X98332413Y-110151528D02*
X98359351Y-110070715D01*
X98359351Y-110070715D02*
X98359351Y-110016841D01*
X98359351Y-110016841D02*
X98332413Y-109936028D01*
X98332413Y-109936028D02*
X98251601Y-109801341D01*
X98251601Y-109801341D02*
X98224664Y-109720529D01*
X98224664Y-109720529D02*
X98224664Y-109666654D01*
X98224664Y-109666654D02*
X98251601Y-109585842D01*
X98251601Y-109585842D02*
X98305476Y-109531967D01*
X98305476Y-109531967D02*
X98386288Y-109505030D01*
X98386288Y-109505030D02*
X98440163Y-109505030D01*
X98440163Y-109505030D02*
X98520975Y-109531967D01*
X98520975Y-109531967D02*
X98655662Y-109666654D01*
X98655662Y-109666654D02*
X98709537Y-109774404D01*
X98413226Y-110555589D02*
X98978911Y-109989903D01*
X98978911Y-109989903D02*
X99113598Y-110124590D01*
X99113598Y-110124590D02*
X99167473Y-110232340D01*
X99167473Y-110232340D02*
X99167473Y-110340089D01*
X99167473Y-110340089D02*
X99140536Y-110420902D01*
X99140536Y-110420902D02*
X99059723Y-110555589D01*
X99059723Y-110555589D02*
X98978911Y-110636401D01*
X98978911Y-110636401D02*
X98844224Y-110717213D01*
X98844224Y-110717213D02*
X98763412Y-110744151D01*
X98763412Y-110744151D02*
X98655662Y-110744151D01*
X98655662Y-110744151D02*
X98547913Y-110690276D01*
X98547913Y-110690276D02*
X98413226Y-110555589D01*
X99113598Y-110932712D02*
X99382972Y-111202086D01*
X98898099Y-111040462D02*
X99652346Y-110663338D01*
X99652346Y-110663338D02*
X99275223Y-111417586D01*
X99760096Y-111902459D02*
X99436847Y-111579210D01*
X99598471Y-111740834D02*
X100164157Y-111175149D01*
X100164157Y-111175149D02*
X100029470Y-111202086D01*
X100029470Y-111202086D02*
X99921720Y-111202086D01*
X99921720Y-111202086D02*
X99840908Y-111175149D01*
X134471568Y-84276435D02*
X134444631Y-84195623D01*
X134444631Y-84195623D02*
X134363819Y-84114811D01*
X134363819Y-84114811D02*
X134256069Y-84060936D01*
X134256069Y-84060936D02*
X134148319Y-84060936D01*
X134148319Y-84060936D02*
X134067507Y-84087873D01*
X134067507Y-84087873D02*
X133932820Y-84168685D01*
X133932820Y-84168685D02*
X133852008Y-84249498D01*
X133852008Y-84249498D02*
X133771196Y-84384185D01*
X133771196Y-84384185D02*
X133744258Y-84464997D01*
X133744258Y-84464997D02*
X133744258Y-84572746D01*
X133744258Y-84572746D02*
X133798133Y-84680496D01*
X133798133Y-84680496D02*
X133852008Y-84734371D01*
X133852008Y-84734371D02*
X133959758Y-84788246D01*
X133959758Y-84788246D02*
X134013632Y-84788246D01*
X134013632Y-84788246D02*
X134202194Y-84599684D01*
X134202194Y-84599684D02*
X134094445Y-84491934D01*
X134202194Y-85084557D02*
X134767880Y-84518872D01*
X134767880Y-84518872D02*
X134525443Y-85407806D01*
X134525443Y-85407806D02*
X135091128Y-84842120D01*
X134794817Y-85677180D02*
X135360502Y-85111494D01*
X135360502Y-85111494D02*
X135495189Y-85246181D01*
X135495189Y-85246181D02*
X135549064Y-85353931D01*
X135549064Y-85353931D02*
X135549064Y-85461680D01*
X135549064Y-85461680D02*
X135522127Y-85542493D01*
X135522127Y-85542493D02*
X135441314Y-85677180D01*
X135441314Y-85677180D02*
X135360502Y-85757992D01*
X135360502Y-85757992D02*
X135225815Y-85838804D01*
X135225815Y-85838804D02*
X135145003Y-85865741D01*
X135145003Y-85865741D02*
X135037253Y-85865741D01*
X135037253Y-85865741D02*
X134929504Y-85811867D01*
X134929504Y-85811867D02*
X134794817Y-85677180D01*
X136769131Y-109933998D02*
X136742194Y-109853185D01*
X136742194Y-109853185D02*
X136661381Y-109772373D01*
X136661381Y-109772373D02*
X136553632Y-109718498D01*
X136553632Y-109718498D02*
X136445882Y-109718498D01*
X136445882Y-109718498D02*
X136365070Y-109745436D01*
X136365070Y-109745436D02*
X136230383Y-109826248D01*
X136230383Y-109826248D02*
X136149571Y-109907060D01*
X136149571Y-109907060D02*
X136068758Y-110041747D01*
X136068758Y-110041747D02*
X136041821Y-110122560D01*
X136041821Y-110122560D02*
X136041821Y-110230309D01*
X136041821Y-110230309D02*
X136095696Y-110338059D01*
X136095696Y-110338059D02*
X136149571Y-110391934D01*
X136149571Y-110391934D02*
X136257320Y-110445808D01*
X136257320Y-110445808D02*
X136311195Y-110445808D01*
X136311195Y-110445808D02*
X136499757Y-110257247D01*
X136499757Y-110257247D02*
X136392007Y-110149497D01*
X136499757Y-110742120D02*
X137065442Y-110176434D01*
X137065442Y-110176434D02*
X137280942Y-110391934D01*
X137280942Y-110391934D02*
X137307879Y-110472746D01*
X137307879Y-110472746D02*
X137307879Y-110526621D01*
X137307879Y-110526621D02*
X137280942Y-110607433D01*
X137280942Y-110607433D02*
X137200129Y-110688245D01*
X137200129Y-110688245D02*
X137119317Y-110715182D01*
X137119317Y-110715182D02*
X137065442Y-110715182D01*
X137065442Y-110715182D02*
X136984630Y-110688245D01*
X136984630Y-110688245D02*
X136769131Y-110472746D01*
X137361754Y-111604117D02*
X137038505Y-111280868D01*
X137200129Y-111442492D02*
X137765815Y-110876807D01*
X137765815Y-110876807D02*
X137631128Y-110903744D01*
X137631128Y-110903744D02*
X137523378Y-110903744D01*
X137523378Y-110903744D02*
X137442566Y-110876807D01*
X138223751Y-111711866D02*
X137846627Y-112088990D01*
X138304563Y-111361680D02*
X137765815Y-111631054D01*
X137765815Y-111631054D02*
X138116001Y-111981240D01*
X113235696Y-83860810D02*
X113505070Y-84130184D01*
X113020197Y-83968560D02*
X113774444Y-83591436D01*
X113774444Y-83591436D02*
X113397321Y-84345684D01*
X113585882Y-84534245D02*
X114151568Y-83968560D01*
X114151568Y-83968560D02*
X114286255Y-84103247D01*
X114286255Y-84103247D02*
X114340130Y-84210996D01*
X114340130Y-84210996D02*
X114340130Y-84318746D01*
X114340130Y-84318746D02*
X114313192Y-84399558D01*
X114313192Y-84399558D02*
X114232380Y-84534245D01*
X114232380Y-84534245D02*
X114151568Y-84615057D01*
X114151568Y-84615057D02*
X114016881Y-84695870D01*
X114016881Y-84695870D02*
X113936069Y-84722807D01*
X113936069Y-84722807D02*
X113828319Y-84722807D01*
X113828319Y-84722807D02*
X113720569Y-84668932D01*
X113720569Y-84668932D02*
X113585882Y-84534245D01*
X114528691Y-85369305D02*
X114474817Y-85369305D01*
X114474817Y-85369305D02*
X114367067Y-85315430D01*
X114367067Y-85315430D02*
X114313192Y-85261555D01*
X114313192Y-85261555D02*
X114259317Y-85153805D01*
X114259317Y-85153805D02*
X114259317Y-85046056D01*
X114259317Y-85046056D02*
X114286255Y-84965244D01*
X114286255Y-84965244D02*
X114367067Y-84830557D01*
X114367067Y-84830557D02*
X114447879Y-84749744D01*
X114447879Y-84749744D02*
X114582566Y-84668932D01*
X114582566Y-84668932D02*
X114663378Y-84641995D01*
X114663378Y-84641995D02*
X114771128Y-84641995D01*
X114771128Y-84641995D02*
X114878878Y-84695870D01*
X114878878Y-84695870D02*
X114932752Y-84749744D01*
X114932752Y-84749744D02*
X114986627Y-84857494D01*
X114986627Y-84857494D02*
X114986627Y-84911369D01*
X115390688Y-85207680D02*
X115444563Y-85261555D01*
X115444563Y-85261555D02*
X115471501Y-85342367D01*
X115471501Y-85342367D02*
X115471501Y-85396242D01*
X115471501Y-85396242D02*
X115444563Y-85477054D01*
X115444563Y-85477054D02*
X115363751Y-85611741D01*
X115363751Y-85611741D02*
X115229064Y-85746428D01*
X115229064Y-85746428D02*
X115094377Y-85827241D01*
X115094377Y-85827241D02*
X115013565Y-85854178D01*
X115013565Y-85854178D02*
X114959690Y-85854178D01*
X114959690Y-85854178D02*
X114878878Y-85827241D01*
X114878878Y-85827241D02*
X114825003Y-85773366D01*
X114825003Y-85773366D02*
X114798065Y-85692554D01*
X114798065Y-85692554D02*
X114798065Y-85638679D01*
X114798065Y-85638679D02*
X114825003Y-85557867D01*
X114825003Y-85557867D02*
X114905815Y-85423180D01*
X114905815Y-85423180D02*
X115040502Y-85288493D01*
X115040502Y-85288493D02*
X115175189Y-85207680D01*
X115175189Y-85207680D02*
X115256001Y-85180743D01*
X115256001Y-85180743D02*
X115309876Y-85180743D01*
X115309876Y-85180743D02*
X115390688Y-85207680D01*
X96371568Y-109876435D02*
X96344631Y-109795623D01*
X96344631Y-109795623D02*
X96263819Y-109714811D01*
X96263819Y-109714811D02*
X96156069Y-109660936D01*
X96156069Y-109660936D02*
X96048319Y-109660936D01*
X96048319Y-109660936D02*
X95967507Y-109687873D01*
X95967507Y-109687873D02*
X95832820Y-109768685D01*
X95832820Y-109768685D02*
X95752008Y-109849498D01*
X95752008Y-109849498D02*
X95671196Y-109984185D01*
X95671196Y-109984185D02*
X95644258Y-110064997D01*
X95644258Y-110064997D02*
X95644258Y-110172746D01*
X95644258Y-110172746D02*
X95698133Y-110280496D01*
X95698133Y-110280496D02*
X95752008Y-110334371D01*
X95752008Y-110334371D02*
X95859758Y-110388246D01*
X95859758Y-110388246D02*
X95913632Y-110388246D01*
X95913632Y-110388246D02*
X96102194Y-110199684D01*
X96102194Y-110199684D02*
X95994445Y-110091934D01*
X96102194Y-110684557D02*
X96667880Y-110118872D01*
X96667880Y-110118872D02*
X96425443Y-111007806D01*
X96425443Y-111007806D02*
X96991128Y-110442120D01*
X96694817Y-111277180D02*
X97260502Y-110711494D01*
X97260502Y-110711494D02*
X97395189Y-110846181D01*
X97395189Y-110846181D02*
X97449064Y-110953931D01*
X97449064Y-110953931D02*
X97449064Y-111061680D01*
X97449064Y-111061680D02*
X97422127Y-111142493D01*
X97422127Y-111142493D02*
X97341314Y-111277180D01*
X97341314Y-111277180D02*
X97260502Y-111357992D01*
X97260502Y-111357992D02*
X97125815Y-111438804D01*
X97125815Y-111438804D02*
X97045003Y-111465741D01*
X97045003Y-111465741D02*
X96937253Y-111465741D01*
X96937253Y-111465741D02*
X96829504Y-111411867D01*
X96829504Y-111411867D02*
X96694817Y-111277180D01*
X91318505Y-109903372D02*
X91291568Y-109822560D01*
X91291568Y-109822560D02*
X91210756Y-109741748D01*
X91210756Y-109741748D02*
X91103006Y-109687873D01*
X91103006Y-109687873D02*
X90995257Y-109687873D01*
X90995257Y-109687873D02*
X90914444Y-109714810D01*
X90914444Y-109714810D02*
X90779757Y-109795623D01*
X90779757Y-109795623D02*
X90698945Y-109876435D01*
X90698945Y-109876435D02*
X90618133Y-110011122D01*
X90618133Y-110011122D02*
X90591196Y-110091934D01*
X90591196Y-110091934D02*
X90591196Y-110199684D01*
X90591196Y-110199684D02*
X90645070Y-110307433D01*
X90645070Y-110307433D02*
X90698945Y-110361308D01*
X90698945Y-110361308D02*
X90806695Y-110415183D01*
X90806695Y-110415183D02*
X90860570Y-110415183D01*
X90860570Y-110415183D02*
X91049131Y-110226621D01*
X91049131Y-110226621D02*
X90941382Y-110118871D01*
X91049131Y-110711494D02*
X91614817Y-110145809D01*
X91614817Y-110145809D02*
X91830316Y-110361308D01*
X91830316Y-110361308D02*
X91857253Y-110442120D01*
X91857253Y-110442120D02*
X91857253Y-110495995D01*
X91857253Y-110495995D02*
X91830316Y-110576807D01*
X91830316Y-110576807D02*
X91749504Y-110657619D01*
X91749504Y-110657619D02*
X91668692Y-110684557D01*
X91668692Y-110684557D02*
X91614817Y-110684557D01*
X91614817Y-110684557D02*
X91534005Y-110657619D01*
X91534005Y-110657619D02*
X91318505Y-110442120D01*
X92288252Y-110819244D02*
X92342127Y-110873119D01*
X92342127Y-110873119D02*
X92369064Y-110953931D01*
X92369064Y-110953931D02*
X92369064Y-111007806D01*
X92369064Y-111007806D02*
X92342127Y-111088618D01*
X92342127Y-111088618D02*
X92261314Y-111223305D01*
X92261314Y-111223305D02*
X92126627Y-111357992D01*
X92126627Y-111357992D02*
X91991940Y-111438804D01*
X91991940Y-111438804D02*
X91911128Y-111465741D01*
X91911128Y-111465741D02*
X91857253Y-111465741D01*
X91857253Y-111465741D02*
X91776441Y-111438804D01*
X91776441Y-111438804D02*
X91722566Y-111384929D01*
X91722566Y-111384929D02*
X91695629Y-111304117D01*
X91695629Y-111304117D02*
X91695629Y-111250242D01*
X91695629Y-111250242D02*
X91722566Y-111169430D01*
X91722566Y-111169430D02*
X91803379Y-111034743D01*
X91803379Y-111034743D02*
X91938066Y-110900056D01*
X91938066Y-110900056D02*
X92072753Y-110819244D01*
X92072753Y-110819244D02*
X92153565Y-110792306D01*
X92153565Y-110792306D02*
X92207440Y-110792306D01*
X92207440Y-110792306D02*
X92288252Y-110819244D01*
X100427947Y-109876435D02*
X100481821Y-109984184D01*
X100481821Y-109984184D02*
X100616508Y-110118871D01*
X100616508Y-110118871D02*
X100697321Y-110145809D01*
X100697321Y-110145809D02*
X100751195Y-110145809D01*
X100751195Y-110145809D02*
X100832008Y-110118871D01*
X100832008Y-110118871D02*
X100885882Y-110064996D01*
X100885882Y-110064996D02*
X100912820Y-109984184D01*
X100912820Y-109984184D02*
X100912820Y-109930309D01*
X100912820Y-109930309D02*
X100885882Y-109849497D01*
X100885882Y-109849497D02*
X100805070Y-109714810D01*
X100805070Y-109714810D02*
X100778133Y-109633998D01*
X100778133Y-109633998D02*
X100778133Y-109580123D01*
X100778133Y-109580123D02*
X100805070Y-109499311D01*
X100805070Y-109499311D02*
X100858945Y-109445436D01*
X100858945Y-109445436D02*
X100939757Y-109418499D01*
X100939757Y-109418499D02*
X100993632Y-109418499D01*
X100993632Y-109418499D02*
X101074444Y-109445436D01*
X101074444Y-109445436D02*
X101209131Y-109580123D01*
X101209131Y-109580123D02*
X101263006Y-109687873D01*
X101343818Y-110738432D02*
X101289944Y-110738432D01*
X101289944Y-110738432D02*
X101182194Y-110684557D01*
X101182194Y-110684557D02*
X101128319Y-110630682D01*
X101128319Y-110630682D02*
X101074444Y-110522932D01*
X101074444Y-110522932D02*
X101074444Y-110415183D01*
X101074444Y-110415183D02*
X101101382Y-110334371D01*
X101101382Y-110334371D02*
X101182194Y-110199684D01*
X101182194Y-110199684D02*
X101263006Y-110118871D01*
X101263006Y-110118871D02*
X101397693Y-110038059D01*
X101397693Y-110038059D02*
X101478505Y-110011122D01*
X101478505Y-110011122D02*
X101586255Y-110011122D01*
X101586255Y-110011122D02*
X101694005Y-110064997D01*
X101694005Y-110064997D02*
X101747879Y-110118871D01*
X101747879Y-110118871D02*
X101801754Y-110226621D01*
X101801754Y-110226621D02*
X101801754Y-110280496D01*
X101801754Y-111304117D02*
X101532380Y-111034743D01*
X101532380Y-111034743D02*
X102098066Y-110469058D01*
X102286627Y-111788990D02*
X101963379Y-111465741D01*
X102125003Y-111627366D02*
X102690688Y-111061680D01*
X102690688Y-111061680D02*
X102556001Y-111088618D01*
X102556001Y-111088618D02*
X102448252Y-111088618D01*
X102448252Y-111088618D02*
X102367440Y-111061680D01*
X126609131Y-83779998D02*
X126582194Y-83699185D01*
X126582194Y-83699185D02*
X126501381Y-83618373D01*
X126501381Y-83618373D02*
X126393632Y-83564498D01*
X126393632Y-83564498D02*
X126285882Y-83564498D01*
X126285882Y-83564498D02*
X126205070Y-83591436D01*
X126205070Y-83591436D02*
X126070383Y-83672248D01*
X126070383Y-83672248D02*
X125989571Y-83753060D01*
X125989571Y-83753060D02*
X125908758Y-83887747D01*
X125908758Y-83887747D02*
X125881821Y-83968560D01*
X125881821Y-83968560D02*
X125881821Y-84076309D01*
X125881821Y-84076309D02*
X125935696Y-84184059D01*
X125935696Y-84184059D02*
X125989571Y-84237934D01*
X125989571Y-84237934D02*
X126097320Y-84291808D01*
X126097320Y-84291808D02*
X126151195Y-84291808D01*
X126151195Y-84291808D02*
X126339757Y-84103247D01*
X126339757Y-84103247D02*
X126232007Y-83995497D01*
X126339757Y-84588120D02*
X126905442Y-84022434D01*
X126905442Y-84022434D02*
X127120942Y-84237934D01*
X127120942Y-84237934D02*
X127147879Y-84318746D01*
X127147879Y-84318746D02*
X127147879Y-84372621D01*
X127147879Y-84372621D02*
X127120942Y-84453433D01*
X127120942Y-84453433D02*
X127040129Y-84534245D01*
X127040129Y-84534245D02*
X126959317Y-84561182D01*
X126959317Y-84561182D02*
X126905442Y-84561182D01*
X126905442Y-84561182D02*
X126824630Y-84534245D01*
X126824630Y-84534245D02*
X126609131Y-84318746D01*
X127390316Y-84615057D02*
X127444190Y-84615057D01*
X127444190Y-84615057D02*
X127525003Y-84641995D01*
X127525003Y-84641995D02*
X127659690Y-84776682D01*
X127659690Y-84776682D02*
X127686627Y-84857494D01*
X127686627Y-84857494D02*
X127686627Y-84911369D01*
X127686627Y-84911369D02*
X127659690Y-84992181D01*
X127659690Y-84992181D02*
X127605815Y-85046056D01*
X127605815Y-85046056D02*
X127498065Y-85099930D01*
X127498065Y-85099930D02*
X126851568Y-85099930D01*
X126851568Y-85099930D02*
X127201754Y-85450117D01*
X128117626Y-85234618D02*
X128171500Y-85288492D01*
X128171500Y-85288492D02*
X128198438Y-85369305D01*
X128198438Y-85369305D02*
X128198438Y-85423179D01*
X128198438Y-85423179D02*
X128171500Y-85503992D01*
X128171500Y-85503992D02*
X128090688Y-85638679D01*
X128090688Y-85638679D02*
X127956001Y-85773366D01*
X127956001Y-85773366D02*
X127821314Y-85854178D01*
X127821314Y-85854178D02*
X127740502Y-85881115D01*
X127740502Y-85881115D02*
X127686627Y-85881115D01*
X127686627Y-85881115D02*
X127605815Y-85854178D01*
X127605815Y-85854178D02*
X127551940Y-85800303D01*
X127551940Y-85800303D02*
X127525003Y-85719491D01*
X127525003Y-85719491D02*
X127525003Y-85665616D01*
X127525003Y-85665616D02*
X127551940Y-85584804D01*
X127551940Y-85584804D02*
X127632752Y-85450117D01*
X127632752Y-85450117D02*
X127767439Y-85315430D01*
X127767439Y-85315430D02*
X127902126Y-85234618D01*
X127902126Y-85234618D02*
X127982939Y-85207680D01*
X127982939Y-85207680D02*
X128036813Y-85207680D01*
X128036813Y-85207680D02*
X128117626Y-85234618D01*
X138913252Y-110275300D02*
X138953658Y-110356112D01*
X138953658Y-110356112D02*
X138953658Y-110396518D01*
X138953658Y-110396518D02*
X138933455Y-110457127D01*
X138933455Y-110457127D02*
X138872846Y-110517736D01*
X138872846Y-110517736D02*
X138812237Y-110537939D01*
X138812237Y-110537939D02*
X138771831Y-110537939D01*
X138771831Y-110537939D02*
X138711222Y-110517736D01*
X138711222Y-110517736D02*
X138549597Y-110356112D01*
X138549597Y-110356112D02*
X138973861Y-109931848D01*
X138973861Y-109931848D02*
X139115283Y-110073269D01*
X139115283Y-110073269D02*
X139135486Y-110133878D01*
X139135486Y-110133878D02*
X139135486Y-110174284D01*
X139135486Y-110174284D02*
X139115283Y-110234893D01*
X139115283Y-110234893D02*
X139074877Y-110275300D01*
X139074877Y-110275300D02*
X139014268Y-110295503D01*
X139014268Y-110295503D02*
X138973861Y-110295503D01*
X138973861Y-110295503D02*
X138913252Y-110275300D01*
X138913252Y-110275300D02*
X138771831Y-110133878D01*
X139438532Y-110679361D02*
X139155689Y-110962203D01*
X139256704Y-110497533D02*
X139034471Y-110719767D01*
X139034471Y-110719767D02*
X139014268Y-110780376D01*
X139014268Y-110780376D02*
X139034471Y-110840985D01*
X139034471Y-110840985D02*
X139095080Y-110901594D01*
X139095080Y-110901594D02*
X139155689Y-110921797D01*
X139155689Y-110921797D02*
X139196095Y-110921797D01*
X139600156Y-110840985D02*
X139822389Y-111063218D01*
X139822389Y-111063218D02*
X139317313Y-111123828D01*
X139317313Y-111123828D02*
X139539547Y-111346061D01*
X139943608Y-111184437D02*
X140165841Y-111406670D01*
X140165841Y-111406670D02*
X139660765Y-111467279D01*
X139660765Y-111467279D02*
X139882998Y-111689513D01*
X140226450Y-111992558D02*
X140165841Y-111972355D01*
X140165841Y-111972355D02*
X140085029Y-111891543D01*
X140085029Y-111891543D02*
X140064826Y-111830934D01*
X140064826Y-111830934D02*
X140085029Y-111770325D01*
X140085029Y-111770325D02*
X140246653Y-111608700D01*
X140246653Y-111608700D02*
X140307262Y-111588497D01*
X140307262Y-111588497D02*
X140367871Y-111608700D01*
X140367871Y-111608700D02*
X140448684Y-111689513D01*
X140448684Y-111689513D02*
X140468887Y-111750122D01*
X140468887Y-111750122D02*
X140448684Y-111810731D01*
X140448684Y-111810731D02*
X140408278Y-111851137D01*
X140408278Y-111851137D02*
X140165841Y-111689513D01*
X140408278Y-112214792D02*
X140691120Y-111931949D01*
X140610308Y-112012762D02*
X140670917Y-111992559D01*
X140670917Y-111992559D02*
X140711324Y-111992559D01*
X140711324Y-111992559D02*
X140771933Y-112012762D01*
X140771933Y-112012762D02*
X140812339Y-112053168D01*
X124069131Y-109887998D02*
X124042194Y-109807185D01*
X124042194Y-109807185D02*
X123961381Y-109726373D01*
X123961381Y-109726373D02*
X123853632Y-109672498D01*
X123853632Y-109672498D02*
X123745882Y-109672498D01*
X123745882Y-109672498D02*
X123665070Y-109699436D01*
X123665070Y-109699436D02*
X123530383Y-109780248D01*
X123530383Y-109780248D02*
X123449571Y-109861060D01*
X123449571Y-109861060D02*
X123368758Y-109995747D01*
X123368758Y-109995747D02*
X123341821Y-110076560D01*
X123341821Y-110076560D02*
X123341821Y-110184309D01*
X123341821Y-110184309D02*
X123395696Y-110292059D01*
X123395696Y-110292059D02*
X123449571Y-110345934D01*
X123449571Y-110345934D02*
X123557320Y-110399808D01*
X123557320Y-110399808D02*
X123611195Y-110399808D01*
X123611195Y-110399808D02*
X123799757Y-110211247D01*
X123799757Y-110211247D02*
X123692007Y-110103497D01*
X123799757Y-110696120D02*
X124365442Y-110130434D01*
X124365442Y-110130434D02*
X124580942Y-110345934D01*
X124580942Y-110345934D02*
X124607879Y-110426746D01*
X124607879Y-110426746D02*
X124607879Y-110480621D01*
X124607879Y-110480621D02*
X124580942Y-110561433D01*
X124580942Y-110561433D02*
X124500129Y-110642245D01*
X124500129Y-110642245D02*
X124419317Y-110669182D01*
X124419317Y-110669182D02*
X124365442Y-110669182D01*
X124365442Y-110669182D02*
X124284630Y-110642245D01*
X124284630Y-110642245D02*
X124069131Y-110426746D01*
X124661754Y-111558117D02*
X124338505Y-111234868D01*
X124500129Y-111396492D02*
X125065815Y-110830807D01*
X125065815Y-110830807D02*
X124931128Y-110857744D01*
X124931128Y-110857744D02*
X124823378Y-110857744D01*
X124823378Y-110857744D02*
X124742566Y-110830807D01*
X125577626Y-111342618D02*
X125631500Y-111396492D01*
X125631500Y-111396492D02*
X125658438Y-111477305D01*
X125658438Y-111477305D02*
X125658438Y-111531179D01*
X125658438Y-111531179D02*
X125631500Y-111611992D01*
X125631500Y-111611992D02*
X125550688Y-111746679D01*
X125550688Y-111746679D02*
X125416001Y-111881366D01*
X125416001Y-111881366D02*
X125281314Y-111962178D01*
X125281314Y-111962178D02*
X125200502Y-111989115D01*
X125200502Y-111989115D02*
X125146627Y-111989115D01*
X125146627Y-111989115D02*
X125065815Y-111962178D01*
X125065815Y-111962178D02*
X125011940Y-111908303D01*
X125011940Y-111908303D02*
X124985003Y-111827491D01*
X124985003Y-111827491D02*
X124985003Y-111773616D01*
X124985003Y-111773616D02*
X125011940Y-111692804D01*
X125011940Y-111692804D02*
X125092752Y-111558117D01*
X125092752Y-111558117D02*
X125227439Y-111423430D01*
X125227439Y-111423430D02*
X125362126Y-111342618D01*
X125362126Y-111342618D02*
X125442939Y-111315680D01*
X125442939Y-111315680D02*
X125496813Y-111315680D01*
X125496813Y-111315680D02*
X125577626Y-111342618D01*
X123894200Y-93985238D02*
X123932295Y-93870952D01*
X123932295Y-93870952D02*
X123932295Y-93680476D01*
X123932295Y-93680476D02*
X123894200Y-93604285D01*
X123894200Y-93604285D02*
X123856104Y-93566190D01*
X123856104Y-93566190D02*
X123779914Y-93528095D01*
X123779914Y-93528095D02*
X123703723Y-93528095D01*
X123703723Y-93528095D02*
X123627533Y-93566190D01*
X123627533Y-93566190D02*
X123589438Y-93604285D01*
X123589438Y-93604285D02*
X123551342Y-93680476D01*
X123551342Y-93680476D02*
X123513247Y-93832857D01*
X123513247Y-93832857D02*
X123475152Y-93909047D01*
X123475152Y-93909047D02*
X123437057Y-93947142D01*
X123437057Y-93947142D02*
X123360866Y-93985238D01*
X123360866Y-93985238D02*
X123284676Y-93985238D01*
X123284676Y-93985238D02*
X123208485Y-93947142D01*
X123208485Y-93947142D02*
X123170390Y-93909047D01*
X123170390Y-93909047D02*
X123132295Y-93832857D01*
X123132295Y-93832857D02*
X123132295Y-93642380D01*
X123132295Y-93642380D02*
X123170390Y-93528095D01*
X123132295Y-93261428D02*
X123932295Y-93070952D01*
X123932295Y-93070952D02*
X123360866Y-92918571D01*
X123360866Y-92918571D02*
X123932295Y-92766190D01*
X123932295Y-92766190D02*
X123132295Y-92575714D01*
X123932295Y-92270951D02*
X123132295Y-92270951D01*
X123132295Y-92270951D02*
X123132295Y-92080475D01*
X123132295Y-92080475D02*
X123170390Y-91966189D01*
X123170390Y-91966189D02*
X123246580Y-91889999D01*
X123246580Y-91889999D02*
X123322771Y-91851904D01*
X123322771Y-91851904D02*
X123475152Y-91813808D01*
X123475152Y-91813808D02*
X123589438Y-91813808D01*
X123589438Y-91813808D02*
X123741819Y-91851904D01*
X123741819Y-91851904D02*
X123818009Y-91889999D01*
X123818009Y-91889999D02*
X123894200Y-91966189D01*
X123894200Y-91966189D02*
X123932295Y-92080475D01*
X123932295Y-92080475D02*
X123932295Y-92270951D01*
X123932295Y-91470951D02*
X123132295Y-91470951D01*
X123132295Y-90937618D02*
X123132295Y-90785237D01*
X123132295Y-90785237D02*
X123170390Y-90709047D01*
X123170390Y-90709047D02*
X123246580Y-90632856D01*
X123246580Y-90632856D02*
X123398961Y-90594761D01*
X123398961Y-90594761D02*
X123665628Y-90594761D01*
X123665628Y-90594761D02*
X123818009Y-90632856D01*
X123818009Y-90632856D02*
X123894200Y-90709047D01*
X123894200Y-90709047D02*
X123932295Y-90785237D01*
X123932295Y-90785237D02*
X123932295Y-90937618D01*
X123932295Y-90937618D02*
X123894200Y-91013809D01*
X123894200Y-91013809D02*
X123818009Y-91089999D01*
X123818009Y-91089999D02*
X123665628Y-91128095D01*
X123665628Y-91128095D02*
X123398961Y-91128095D01*
X123398961Y-91128095D02*
X123246580Y-91089999D01*
X123246580Y-91089999D02*
X123170390Y-91013809D01*
X123170390Y-91013809D02*
X123132295Y-90937618D01*
X102954478Y-109862966D02*
X103008352Y-109970715D01*
X103008352Y-109970715D02*
X103143039Y-110105402D01*
X103143039Y-110105402D02*
X103223852Y-110132340D01*
X103223852Y-110132340D02*
X103277726Y-110132340D01*
X103277726Y-110132340D02*
X103358539Y-110105402D01*
X103358539Y-110105402D02*
X103412413Y-110051528D01*
X103412413Y-110051528D02*
X103439351Y-109970715D01*
X103439351Y-109970715D02*
X103439351Y-109916841D01*
X103439351Y-109916841D02*
X103412413Y-109836028D01*
X103412413Y-109836028D02*
X103331601Y-109701341D01*
X103331601Y-109701341D02*
X103304664Y-109620529D01*
X103304664Y-109620529D02*
X103304664Y-109566654D01*
X103304664Y-109566654D02*
X103331601Y-109485842D01*
X103331601Y-109485842D02*
X103385476Y-109431967D01*
X103385476Y-109431967D02*
X103466288Y-109405030D01*
X103466288Y-109405030D02*
X103520163Y-109405030D01*
X103520163Y-109405030D02*
X103600975Y-109431967D01*
X103600975Y-109431967D02*
X103735662Y-109566654D01*
X103735662Y-109566654D02*
X103789537Y-109674404D01*
X103493226Y-110455589D02*
X104058911Y-109889903D01*
X104058911Y-109889903D02*
X104193598Y-110024590D01*
X104193598Y-110024590D02*
X104247473Y-110132340D01*
X104247473Y-110132340D02*
X104247473Y-110240089D01*
X104247473Y-110240089D02*
X104220536Y-110320902D01*
X104220536Y-110320902D02*
X104139723Y-110455589D01*
X104139723Y-110455589D02*
X104058911Y-110536401D01*
X104058911Y-110536401D02*
X103924224Y-110617213D01*
X103924224Y-110617213D02*
X103843412Y-110644151D01*
X103843412Y-110644151D02*
X103735662Y-110644151D01*
X103735662Y-110644151D02*
X103627913Y-110590276D01*
X103627913Y-110590276D02*
X103493226Y-110455589D01*
X104193598Y-110832712D02*
X104462972Y-111102086D01*
X103978099Y-110940462D02*
X104732346Y-110563338D01*
X104732346Y-110563338D02*
X104355223Y-111317586D01*
X105217219Y-111048211D02*
X105271094Y-111102086D01*
X105271094Y-111102086D02*
X105298032Y-111182898D01*
X105298032Y-111182898D02*
X105298032Y-111236773D01*
X105298032Y-111236773D02*
X105271094Y-111317585D01*
X105271094Y-111317585D02*
X105190282Y-111452272D01*
X105190282Y-111452272D02*
X105055595Y-111586959D01*
X105055595Y-111586959D02*
X104920908Y-111667772D01*
X104920908Y-111667772D02*
X104840096Y-111694709D01*
X104840096Y-111694709D02*
X104786221Y-111694709D01*
X104786221Y-111694709D02*
X104705409Y-111667772D01*
X104705409Y-111667772D02*
X104651534Y-111613897D01*
X104651534Y-111613897D02*
X104624597Y-111533085D01*
X104624597Y-111533085D02*
X104624597Y-111479210D01*
X104624597Y-111479210D02*
X104651534Y-111398398D01*
X104651534Y-111398398D02*
X104732346Y-111263711D01*
X104732346Y-111263711D02*
X104867033Y-111129024D01*
X104867033Y-111129024D02*
X105001720Y-111048211D01*
X105001720Y-111048211D02*
X105082532Y-111021274D01*
X105082532Y-111021274D02*
X105136407Y-111021274D01*
X105136407Y-111021274D02*
X105217219Y-111048211D01*
X118421526Y-110103574D02*
X118461933Y-110184386D01*
X118461933Y-110184386D02*
X118461933Y-110224792D01*
X118461933Y-110224792D02*
X118441730Y-110285401D01*
X118441730Y-110285401D02*
X118381120Y-110346010D01*
X118381120Y-110346010D02*
X118320511Y-110366213D01*
X118320511Y-110366213D02*
X118280105Y-110366213D01*
X118280105Y-110366213D02*
X118219496Y-110346010D01*
X118219496Y-110346010D02*
X118057872Y-110184386D01*
X118057872Y-110184386D02*
X118482136Y-109760122D01*
X118482136Y-109760122D02*
X118623557Y-109901543D01*
X118623557Y-109901543D02*
X118643760Y-109962152D01*
X118643760Y-109962152D02*
X118643760Y-110002558D01*
X118643760Y-110002558D02*
X118623557Y-110063168D01*
X118623557Y-110063168D02*
X118583151Y-110103574D01*
X118583151Y-110103574D02*
X118522542Y-110123777D01*
X118522542Y-110123777D02*
X118482136Y-110123777D01*
X118482136Y-110123777D02*
X118421526Y-110103574D01*
X118421526Y-110103574D02*
X118280105Y-109962152D01*
X118946806Y-110507635D02*
X118663963Y-110790477D01*
X118764978Y-110325807D02*
X118542745Y-110548041D01*
X118542745Y-110548041D02*
X118522542Y-110608650D01*
X118522542Y-110608650D02*
X118542745Y-110669259D01*
X118542745Y-110669259D02*
X118603354Y-110729868D01*
X118603354Y-110729868D02*
X118663963Y-110750071D01*
X118663963Y-110750071D02*
X118704369Y-110750071D01*
X119088227Y-110649056D02*
X119249851Y-110810680D01*
X119290258Y-110568244D02*
X118926603Y-110931899D01*
X118926603Y-110931899D02*
X118906400Y-110992508D01*
X118906400Y-110992508D02*
X118926603Y-111053117D01*
X118926603Y-111053117D02*
X118967009Y-111093523D01*
X119330664Y-110891493D02*
X119492288Y-111053117D01*
X119532694Y-110810680D02*
X119169039Y-111174335D01*
X119169039Y-111174335D02*
X119148836Y-111234944D01*
X119148836Y-111234944D02*
X119169039Y-111295554D01*
X119169039Y-111295554D02*
X119209445Y-111335960D01*
X119411476Y-111537990D02*
X119391273Y-111477381D01*
X119391273Y-111477381D02*
X119391273Y-111436975D01*
X119391273Y-111436975D02*
X119411476Y-111376366D01*
X119411476Y-111376366D02*
X119532694Y-111255147D01*
X119532694Y-111255147D02*
X119593303Y-111234944D01*
X119593303Y-111234944D02*
X119633709Y-111234944D01*
X119633709Y-111234944D02*
X119694318Y-111255147D01*
X119694318Y-111255147D02*
X119754928Y-111315757D01*
X119754928Y-111315757D02*
X119775131Y-111376366D01*
X119775131Y-111376366D02*
X119775131Y-111416772D01*
X119775131Y-111416772D02*
X119754928Y-111477381D01*
X119754928Y-111477381D02*
X119633709Y-111598599D01*
X119633709Y-111598599D02*
X119573100Y-111618802D01*
X119573100Y-111618802D02*
X119532694Y-111618802D01*
X119532694Y-111618802D02*
X119472085Y-111598599D01*
X119472085Y-111598599D02*
X119411476Y-111537990D01*
X120017567Y-111578396D02*
X119734724Y-111861239D01*
X119977161Y-111618802D02*
X120017567Y-111618802D01*
X120017567Y-111618802D02*
X120078176Y-111639005D01*
X120078176Y-111639005D02*
X120138785Y-111699614D01*
X120138785Y-111699614D02*
X120158988Y-111760224D01*
X120158988Y-111760224D02*
X120138785Y-111820833D01*
X120138785Y-111820833D02*
X119916552Y-112043066D01*
X120340816Y-112467330D02*
X120098379Y-112224894D01*
X120219597Y-112346112D02*
X120643862Y-111921848D01*
X120643862Y-111921848D02*
X120542846Y-111942051D01*
X120542846Y-111942051D02*
X120462034Y-111942051D01*
X120462034Y-111942051D02*
X120401425Y-111921848D01*
X105361696Y-83860810D02*
X105631070Y-84130184D01*
X105146197Y-83968560D02*
X105900444Y-83591436D01*
X105900444Y-83591436D02*
X105523321Y-84345684D01*
X105711882Y-84534245D02*
X106277568Y-83968560D01*
X106277568Y-83968560D02*
X106412255Y-84103247D01*
X106412255Y-84103247D02*
X106466130Y-84210996D01*
X106466130Y-84210996D02*
X106466130Y-84318746D01*
X106466130Y-84318746D02*
X106439192Y-84399558D01*
X106439192Y-84399558D02*
X106358380Y-84534245D01*
X106358380Y-84534245D02*
X106277568Y-84615057D01*
X106277568Y-84615057D02*
X106142881Y-84695870D01*
X106142881Y-84695870D02*
X106062069Y-84722807D01*
X106062069Y-84722807D02*
X105954319Y-84722807D01*
X105954319Y-84722807D02*
X105846569Y-84668932D01*
X105846569Y-84668932D02*
X105711882Y-84534245D01*
X106654691Y-85369305D02*
X106600817Y-85369305D01*
X106600817Y-85369305D02*
X106493067Y-85315430D01*
X106493067Y-85315430D02*
X106439192Y-85261555D01*
X106439192Y-85261555D02*
X106385317Y-85153805D01*
X106385317Y-85153805D02*
X106385317Y-85046056D01*
X106385317Y-85046056D02*
X106412255Y-84965244D01*
X106412255Y-84965244D02*
X106493067Y-84830557D01*
X106493067Y-84830557D02*
X106573879Y-84749744D01*
X106573879Y-84749744D02*
X106708566Y-84668932D01*
X106708566Y-84668932D02*
X106789378Y-84641995D01*
X106789378Y-84641995D02*
X106897128Y-84641995D01*
X106897128Y-84641995D02*
X107004878Y-84695870D01*
X107004878Y-84695870D02*
X107058752Y-84749744D01*
X107058752Y-84749744D02*
X107112627Y-84857494D01*
X107112627Y-84857494D02*
X107112627Y-84911369D01*
X107328126Y-85126868D02*
X107382001Y-85126868D01*
X107382001Y-85126868D02*
X107462814Y-85153805D01*
X107462814Y-85153805D02*
X107597501Y-85288493D01*
X107597501Y-85288493D02*
X107624438Y-85369305D01*
X107624438Y-85369305D02*
X107624438Y-85423180D01*
X107624438Y-85423180D02*
X107597501Y-85503992D01*
X107597501Y-85503992D02*
X107543626Y-85557867D01*
X107543626Y-85557867D02*
X107435876Y-85611741D01*
X107435876Y-85611741D02*
X106789378Y-85611741D01*
X106789378Y-85611741D02*
X107139565Y-85961928D01*
X117669198Y-83537561D02*
X118234884Y-82971876D01*
X118234884Y-82971876D02*
X118369571Y-83106563D01*
X118369571Y-83106563D02*
X118423446Y-83214312D01*
X118423446Y-83214312D02*
X118423446Y-83322062D01*
X118423446Y-83322062D02*
X118396508Y-83402874D01*
X118396508Y-83402874D02*
X118315696Y-83537561D01*
X118315696Y-83537561D02*
X118234884Y-83618373D01*
X118234884Y-83618373D02*
X118100197Y-83699186D01*
X118100197Y-83699186D02*
X118019385Y-83726123D01*
X118019385Y-83726123D02*
X117911635Y-83726123D01*
X117911635Y-83726123D02*
X117803885Y-83672248D01*
X117803885Y-83672248D02*
X117669198Y-83537561D01*
X118046322Y-84022435D02*
X118477320Y-84453433D01*
X118665882Y-84534245D02*
X119231568Y-83968560D01*
X119231568Y-83968560D02*
X119016069Y-84561183D01*
X119016069Y-84561183D02*
X119608691Y-84345683D01*
X119608691Y-84345683D02*
X119043006Y-84911369D01*
X119608692Y-84884432D02*
X119797253Y-85072993D01*
X119581754Y-85450117D02*
X119312380Y-85180743D01*
X119312380Y-85180743D02*
X119878066Y-84615058D01*
X119878066Y-84615058D02*
X120147440Y-84884432D01*
X119958878Y-85503992D02*
X120228252Y-85773366D01*
X119743379Y-85611742D02*
X120497626Y-85234618D01*
X120497626Y-85234618D02*
X120120503Y-85988865D01*
X120309064Y-86123552D02*
X120362939Y-86231302D01*
X120362939Y-86231302D02*
X120497626Y-86365989D01*
X120497626Y-86365989D02*
X120578438Y-86392926D01*
X120578438Y-86392926D02*
X120632313Y-86392926D01*
X120632313Y-86392926D02*
X120713125Y-86365989D01*
X120713125Y-86365989D02*
X120767000Y-86312114D01*
X120767000Y-86312114D02*
X120793937Y-86231302D01*
X120793937Y-86231302D02*
X120793937Y-86177427D01*
X120793937Y-86177427D02*
X120767000Y-86096615D01*
X120767000Y-86096615D02*
X120686188Y-85961928D01*
X120686188Y-85961928D02*
X120659250Y-85881116D01*
X120659250Y-85881116D02*
X120659250Y-85827241D01*
X120659250Y-85827241D02*
X120686188Y-85746429D01*
X120686188Y-85746429D02*
X120740063Y-85692554D01*
X120740063Y-85692554D02*
X120820875Y-85665616D01*
X120820875Y-85665616D02*
X120874750Y-85665616D01*
X120874750Y-85665616D02*
X120955562Y-85692554D01*
X120955562Y-85692554D02*
X121090249Y-85827241D01*
X121090249Y-85827241D02*
X121144124Y-85934990D01*
X115762227Y-84224590D02*
X115843039Y-83766654D01*
X115438978Y-83901341D02*
X116004664Y-83335656D01*
X116004664Y-83335656D02*
X116220163Y-83551155D01*
X116220163Y-83551155D02*
X116247100Y-83631967D01*
X116247100Y-83631967D02*
X116247100Y-83685842D01*
X116247100Y-83685842D02*
X116220163Y-83766654D01*
X116220163Y-83766654D02*
X116139351Y-83847466D01*
X116139351Y-83847466D02*
X116058539Y-83874404D01*
X116058539Y-83874404D02*
X116004664Y-83874404D01*
X116004664Y-83874404D02*
X115923852Y-83847466D01*
X115923852Y-83847466D02*
X115708352Y-83631967D01*
X116300975Y-84170715D02*
X116489537Y-84359277D01*
X116274038Y-84736401D02*
X116004664Y-84467027D01*
X116004664Y-84467027D02*
X116570349Y-83901341D01*
X116570349Y-83901341D02*
X116839723Y-84170715D01*
X116516475Y-84924963D02*
X116570350Y-85032712D01*
X116570350Y-85032712D02*
X116705037Y-85167399D01*
X116705037Y-85167399D02*
X116785849Y-85194337D01*
X116785849Y-85194337D02*
X116839724Y-85194337D01*
X116839724Y-85194337D02*
X116920536Y-85167399D01*
X116920536Y-85167399D02*
X116974411Y-85113525D01*
X116974411Y-85113525D02*
X117001348Y-85032712D01*
X117001348Y-85032712D02*
X117001348Y-84978838D01*
X117001348Y-84978838D02*
X116974411Y-84898025D01*
X116974411Y-84898025D02*
X116893598Y-84763338D01*
X116893598Y-84763338D02*
X116866661Y-84682526D01*
X116866661Y-84682526D02*
X116866661Y-84628651D01*
X116866661Y-84628651D02*
X116893598Y-84547839D01*
X116893598Y-84547839D02*
X116947473Y-84493964D01*
X116947473Y-84493964D02*
X117028285Y-84467027D01*
X117028285Y-84467027D02*
X117082160Y-84467027D01*
X117082160Y-84467027D02*
X117162972Y-84493964D01*
X117162972Y-84493964D02*
X117297659Y-84628651D01*
X117297659Y-84628651D02*
X117351534Y-84736401D01*
X117351534Y-85221274D02*
X117540096Y-85409836D01*
X117324597Y-85786960D02*
X117055223Y-85517586D01*
X117055223Y-85517586D02*
X117620908Y-84951900D01*
X117620908Y-84951900D02*
X117890282Y-85221274D01*
X118051907Y-85382899D02*
X118375156Y-85706148D01*
X117647846Y-86110209D02*
X118213532Y-85544524D01*
X93848505Y-110003372D02*
X93821568Y-109922560D01*
X93821568Y-109922560D02*
X93740756Y-109841748D01*
X93740756Y-109841748D02*
X93633006Y-109787873D01*
X93633006Y-109787873D02*
X93525257Y-109787873D01*
X93525257Y-109787873D02*
X93444444Y-109814810D01*
X93444444Y-109814810D02*
X93309757Y-109895623D01*
X93309757Y-109895623D02*
X93228945Y-109976435D01*
X93228945Y-109976435D02*
X93148133Y-110111122D01*
X93148133Y-110111122D02*
X93121196Y-110191934D01*
X93121196Y-110191934D02*
X93121196Y-110299684D01*
X93121196Y-110299684D02*
X93175070Y-110407433D01*
X93175070Y-110407433D02*
X93228945Y-110461308D01*
X93228945Y-110461308D02*
X93336695Y-110515183D01*
X93336695Y-110515183D02*
X93390570Y-110515183D01*
X93390570Y-110515183D02*
X93579131Y-110326621D01*
X93579131Y-110326621D02*
X93471382Y-110218871D01*
X93579131Y-110811494D02*
X94144817Y-110245809D01*
X94144817Y-110245809D02*
X94360316Y-110461308D01*
X94360316Y-110461308D02*
X94387253Y-110542120D01*
X94387253Y-110542120D02*
X94387253Y-110595995D01*
X94387253Y-110595995D02*
X94360316Y-110676807D01*
X94360316Y-110676807D02*
X94279504Y-110757619D01*
X94279504Y-110757619D02*
X94198692Y-110784557D01*
X94198692Y-110784557D02*
X94144817Y-110784557D01*
X94144817Y-110784557D02*
X94064005Y-110757619D01*
X94064005Y-110757619D02*
X93848505Y-110542120D01*
X94441128Y-111673491D02*
X94117879Y-111350242D01*
X94279504Y-111511867D02*
X94845189Y-110946181D01*
X94845189Y-110946181D02*
X94710502Y-110973119D01*
X94710502Y-110973119D02*
X94602753Y-110973119D01*
X94602753Y-110973119D02*
X94521940Y-110946181D01*
X98192440Y-83120426D02*
X98455080Y-83383066D01*
X98455080Y-83383066D02*
X98152034Y-83403269D01*
X98152034Y-83403269D02*
X98212643Y-83463878D01*
X98212643Y-83463878D02*
X98232846Y-83524487D01*
X98232846Y-83524487D02*
X98232846Y-83564894D01*
X98232846Y-83564894D02*
X98212643Y-83625503D01*
X98212643Y-83625503D02*
X98111628Y-83726518D01*
X98111628Y-83726518D02*
X98051019Y-83746721D01*
X98051019Y-83746721D02*
X98010613Y-83746721D01*
X98010613Y-83746721D02*
X97950004Y-83726518D01*
X97950004Y-83726518D02*
X97828785Y-83605300D01*
X97828785Y-83605300D02*
X97808582Y-83544691D01*
X97808582Y-83544691D02*
X97808582Y-83504284D01*
X98576298Y-83504285D02*
X98293456Y-84069970D01*
X98293456Y-84069970D02*
X98859141Y-83787127D01*
X98960157Y-83888143D02*
X99222796Y-84150783D01*
X99222796Y-84150783D02*
X98919751Y-84170986D01*
X98919751Y-84170986D02*
X98980360Y-84231595D01*
X98980360Y-84231595D02*
X99000563Y-84292204D01*
X99000563Y-84292204D02*
X99000563Y-84332610D01*
X99000563Y-84332610D02*
X98980360Y-84393219D01*
X98980360Y-84393219D02*
X98879344Y-84494234D01*
X98879344Y-84494234D02*
X98818735Y-84514437D01*
X98818735Y-84514437D02*
X98778329Y-84514437D01*
X98778329Y-84514437D02*
X98717720Y-84494234D01*
X98717720Y-84494234D02*
X98596502Y-84373016D01*
X98596502Y-84373016D02*
X98576299Y-84312407D01*
X98576299Y-84312407D02*
X98576299Y-84272001D01*
X98838939Y-84696265D02*
X99162187Y-85019514D01*
X99525842Y-84857890D02*
X99667264Y-84999311D01*
X99505639Y-85282154D02*
X99303609Y-85080123D01*
X99303609Y-85080123D02*
X99727873Y-84655859D01*
X99727873Y-84655859D02*
X99929903Y-84857890D01*
X99687467Y-85463981D02*
X100111731Y-85039717D01*
X100111731Y-85039717D02*
X99929903Y-85706418D01*
X99929903Y-85706418D02*
X100354167Y-85282154D01*
X129149131Y-83779998D02*
X129122194Y-83699185D01*
X129122194Y-83699185D02*
X129041381Y-83618373D01*
X129041381Y-83618373D02*
X128933632Y-83564498D01*
X128933632Y-83564498D02*
X128825882Y-83564498D01*
X128825882Y-83564498D02*
X128745070Y-83591436D01*
X128745070Y-83591436D02*
X128610383Y-83672248D01*
X128610383Y-83672248D02*
X128529571Y-83753060D01*
X128529571Y-83753060D02*
X128448758Y-83887747D01*
X128448758Y-83887747D02*
X128421821Y-83968560D01*
X128421821Y-83968560D02*
X128421821Y-84076309D01*
X128421821Y-84076309D02*
X128475696Y-84184059D01*
X128475696Y-84184059D02*
X128529571Y-84237934D01*
X128529571Y-84237934D02*
X128637320Y-84291808D01*
X128637320Y-84291808D02*
X128691195Y-84291808D01*
X128691195Y-84291808D02*
X128879757Y-84103247D01*
X128879757Y-84103247D02*
X128772007Y-83995497D01*
X128879757Y-84588120D02*
X129445442Y-84022434D01*
X129445442Y-84022434D02*
X129660942Y-84237934D01*
X129660942Y-84237934D02*
X129687879Y-84318746D01*
X129687879Y-84318746D02*
X129687879Y-84372621D01*
X129687879Y-84372621D02*
X129660942Y-84453433D01*
X129660942Y-84453433D02*
X129580129Y-84534245D01*
X129580129Y-84534245D02*
X129499317Y-84561182D01*
X129499317Y-84561182D02*
X129445442Y-84561182D01*
X129445442Y-84561182D02*
X129364630Y-84534245D01*
X129364630Y-84534245D02*
X129149131Y-84318746D01*
X129741754Y-85450117D02*
X129418505Y-85126868D01*
X129580129Y-85288492D02*
X130145815Y-84722807D01*
X130145815Y-84722807D02*
X130011128Y-84749744D01*
X130011128Y-84749744D02*
X129903378Y-84749744D01*
X129903378Y-84749744D02*
X129822566Y-84722807D01*
X130011128Y-85719491D02*
X130118878Y-85827240D01*
X130118878Y-85827240D02*
X130199690Y-85854178D01*
X130199690Y-85854178D02*
X130253565Y-85854178D01*
X130253565Y-85854178D02*
X130388252Y-85827240D01*
X130388252Y-85827240D02*
X130522939Y-85746428D01*
X130522939Y-85746428D02*
X130738438Y-85530929D01*
X130738438Y-85530929D02*
X130765375Y-85450117D01*
X130765375Y-85450117D02*
X130765375Y-85396242D01*
X130765375Y-85396242D02*
X130738438Y-85315430D01*
X130738438Y-85315430D02*
X130630688Y-85207680D01*
X130630688Y-85207680D02*
X130549876Y-85180743D01*
X130549876Y-85180743D02*
X130496001Y-85180743D01*
X130496001Y-85180743D02*
X130415189Y-85207680D01*
X130415189Y-85207680D02*
X130280502Y-85342367D01*
X130280502Y-85342367D02*
X130253565Y-85423179D01*
X130253565Y-85423179D02*
X130253565Y-85477054D01*
X130253565Y-85477054D02*
X130280502Y-85557866D01*
X130280502Y-85557866D02*
X130388252Y-85665616D01*
X130388252Y-85665616D02*
X130469064Y-85692553D01*
X130469064Y-85692553D02*
X130522939Y-85692553D01*
X130522939Y-85692553D02*
X130603751Y-85665616D01*
X126931631Y-110033998D02*
X126904694Y-109953185D01*
X126904694Y-109953185D02*
X126823881Y-109872373D01*
X126823881Y-109872373D02*
X126716132Y-109818498D01*
X126716132Y-109818498D02*
X126608382Y-109818498D01*
X126608382Y-109818498D02*
X126527570Y-109845436D01*
X126527570Y-109845436D02*
X126392883Y-109926248D01*
X126392883Y-109926248D02*
X126312071Y-110007060D01*
X126312071Y-110007060D02*
X126231258Y-110141747D01*
X126231258Y-110141747D02*
X126204321Y-110222560D01*
X126204321Y-110222560D02*
X126204321Y-110330309D01*
X126204321Y-110330309D02*
X126258196Y-110438059D01*
X126258196Y-110438059D02*
X126312071Y-110491934D01*
X126312071Y-110491934D02*
X126419820Y-110545808D01*
X126419820Y-110545808D02*
X126473695Y-110545808D01*
X126473695Y-110545808D02*
X126662257Y-110357247D01*
X126662257Y-110357247D02*
X126554507Y-110249497D01*
X126662257Y-110842120D02*
X127227942Y-110276434D01*
X127227942Y-110276434D02*
X127443442Y-110491934D01*
X127443442Y-110491934D02*
X127470379Y-110572746D01*
X127470379Y-110572746D02*
X127470379Y-110626621D01*
X127470379Y-110626621D02*
X127443442Y-110707433D01*
X127443442Y-110707433D02*
X127362629Y-110788245D01*
X127362629Y-110788245D02*
X127281817Y-110815182D01*
X127281817Y-110815182D02*
X127227942Y-110815182D01*
X127227942Y-110815182D02*
X127147130Y-110788245D01*
X127147130Y-110788245D02*
X126931631Y-110572746D01*
X127524254Y-111704117D02*
X127201005Y-111380868D01*
X127362629Y-111542492D02*
X127928315Y-110976807D01*
X127928315Y-110976807D02*
X127793628Y-111003744D01*
X127793628Y-111003744D02*
X127685878Y-111003744D01*
X127685878Y-111003744D02*
X127605066Y-110976807D01*
X128063002Y-112242865D02*
X127739753Y-111919616D01*
X127901378Y-112081240D02*
X128467063Y-111515555D01*
X128467063Y-111515555D02*
X128332376Y-111542492D01*
X128332376Y-111542492D02*
X128224626Y-111542492D01*
X128224626Y-111542492D02*
X128143814Y-111515555D01*
X121771568Y-109876435D02*
X121744631Y-109795623D01*
X121744631Y-109795623D02*
X121663819Y-109714811D01*
X121663819Y-109714811D02*
X121556069Y-109660936D01*
X121556069Y-109660936D02*
X121448319Y-109660936D01*
X121448319Y-109660936D02*
X121367507Y-109687873D01*
X121367507Y-109687873D02*
X121232820Y-109768685D01*
X121232820Y-109768685D02*
X121152008Y-109849498D01*
X121152008Y-109849498D02*
X121071196Y-109984185D01*
X121071196Y-109984185D02*
X121044258Y-110064997D01*
X121044258Y-110064997D02*
X121044258Y-110172746D01*
X121044258Y-110172746D02*
X121098133Y-110280496D01*
X121098133Y-110280496D02*
X121152008Y-110334371D01*
X121152008Y-110334371D02*
X121259758Y-110388246D01*
X121259758Y-110388246D02*
X121313632Y-110388246D01*
X121313632Y-110388246D02*
X121502194Y-110199684D01*
X121502194Y-110199684D02*
X121394445Y-110091934D01*
X121502194Y-110684557D02*
X122067880Y-110118872D01*
X122067880Y-110118872D02*
X121825443Y-111007806D01*
X121825443Y-111007806D02*
X122391128Y-110442120D01*
X122094817Y-111277180D02*
X122660502Y-110711494D01*
X122660502Y-110711494D02*
X122795189Y-110846181D01*
X122795189Y-110846181D02*
X122849064Y-110953931D01*
X122849064Y-110953931D02*
X122849064Y-111061680D01*
X122849064Y-111061680D02*
X122822127Y-111142493D01*
X122822127Y-111142493D02*
X122741314Y-111277180D01*
X122741314Y-111277180D02*
X122660502Y-111357992D01*
X122660502Y-111357992D02*
X122525815Y-111438804D01*
X122525815Y-111438804D02*
X122445003Y-111465741D01*
X122445003Y-111465741D02*
X122337253Y-111465741D01*
X122337253Y-111465741D02*
X122229504Y-111411867D01*
X122229504Y-111411867D02*
X122094817Y-111277180D01*
X109071568Y-109876435D02*
X109044631Y-109795623D01*
X109044631Y-109795623D02*
X108963819Y-109714811D01*
X108963819Y-109714811D02*
X108856069Y-109660936D01*
X108856069Y-109660936D02*
X108748319Y-109660936D01*
X108748319Y-109660936D02*
X108667507Y-109687873D01*
X108667507Y-109687873D02*
X108532820Y-109768685D01*
X108532820Y-109768685D02*
X108452008Y-109849498D01*
X108452008Y-109849498D02*
X108371196Y-109984185D01*
X108371196Y-109984185D02*
X108344258Y-110064997D01*
X108344258Y-110064997D02*
X108344258Y-110172746D01*
X108344258Y-110172746D02*
X108398133Y-110280496D01*
X108398133Y-110280496D02*
X108452008Y-110334371D01*
X108452008Y-110334371D02*
X108559758Y-110388246D01*
X108559758Y-110388246D02*
X108613632Y-110388246D01*
X108613632Y-110388246D02*
X108802194Y-110199684D01*
X108802194Y-110199684D02*
X108694445Y-110091934D01*
X108802194Y-110684557D02*
X109367880Y-110118872D01*
X109367880Y-110118872D02*
X109125443Y-111007806D01*
X109125443Y-111007806D02*
X109691128Y-110442120D01*
X109394817Y-111277180D02*
X109960502Y-110711494D01*
X109960502Y-110711494D02*
X110095189Y-110846181D01*
X110095189Y-110846181D02*
X110149064Y-110953931D01*
X110149064Y-110953931D02*
X110149064Y-111061680D01*
X110149064Y-111061680D02*
X110122127Y-111142493D01*
X110122127Y-111142493D02*
X110041314Y-111277180D01*
X110041314Y-111277180D02*
X109960502Y-111357992D01*
X109960502Y-111357992D02*
X109825815Y-111438804D01*
X109825815Y-111438804D02*
X109745003Y-111465741D01*
X109745003Y-111465741D02*
X109637253Y-111465741D01*
X109637253Y-111465741D02*
X109529504Y-111411867D01*
X109529504Y-111411867D02*
X109394817Y-111277180D01*
X108128759Y-83833873D02*
X108398133Y-84103247D01*
X107913260Y-83941623D02*
X108667507Y-83564499D01*
X108667507Y-83564499D02*
X108290384Y-84318746D01*
X109314005Y-84264871D02*
X109287067Y-84184059D01*
X109287067Y-84184059D02*
X109206255Y-84103247D01*
X109206255Y-84103247D02*
X109098505Y-84049372D01*
X109098505Y-84049372D02*
X108990756Y-84049372D01*
X108990756Y-84049372D02*
X108909944Y-84076310D01*
X108909944Y-84076310D02*
X108775257Y-84157122D01*
X108775257Y-84157122D02*
X108694444Y-84237934D01*
X108694444Y-84237934D02*
X108613632Y-84372621D01*
X108613632Y-84372621D02*
X108586695Y-84453433D01*
X108586695Y-84453433D02*
X108586695Y-84561183D01*
X108586695Y-84561183D02*
X108640570Y-84668932D01*
X108640570Y-84668932D02*
X108694444Y-84722807D01*
X108694444Y-84722807D02*
X108802194Y-84776682D01*
X108802194Y-84776682D02*
X108856069Y-84776682D01*
X108856069Y-84776682D02*
X109044631Y-84588120D01*
X109044631Y-84588120D02*
X108936881Y-84480371D01*
X109044631Y-85072993D02*
X109610316Y-84507308D01*
X109610316Y-84507308D02*
X109367879Y-85396242D01*
X109367879Y-85396242D02*
X109933565Y-84830557D01*
X109637253Y-85665616D02*
X110202939Y-85099931D01*
X110202939Y-85099931D02*
X110337626Y-85234618D01*
X110337626Y-85234618D02*
X110391501Y-85342367D01*
X110391501Y-85342367D02*
X110391501Y-85450117D01*
X110391501Y-85450117D02*
X110364563Y-85530929D01*
X110364563Y-85530929D02*
X110283751Y-85665616D01*
X110283751Y-85665616D02*
X110202939Y-85746428D01*
X110202939Y-85746428D02*
X110068252Y-85827241D01*
X110068252Y-85827241D02*
X109987439Y-85854178D01*
X109987439Y-85854178D02*
X109879690Y-85854178D01*
X109879690Y-85854178D02*
X109771940Y-85800303D01*
X109771940Y-85800303D02*
X109637253Y-85665616D01*
X114148505Y-109803372D02*
X114121568Y-109722560D01*
X114121568Y-109722560D02*
X114040756Y-109641748D01*
X114040756Y-109641748D02*
X113933006Y-109587873D01*
X113933006Y-109587873D02*
X113825257Y-109587873D01*
X113825257Y-109587873D02*
X113744444Y-109614810D01*
X113744444Y-109614810D02*
X113609757Y-109695623D01*
X113609757Y-109695623D02*
X113528945Y-109776435D01*
X113528945Y-109776435D02*
X113448133Y-109911122D01*
X113448133Y-109911122D02*
X113421196Y-109991934D01*
X113421196Y-109991934D02*
X113421196Y-110099684D01*
X113421196Y-110099684D02*
X113475070Y-110207433D01*
X113475070Y-110207433D02*
X113528945Y-110261308D01*
X113528945Y-110261308D02*
X113636695Y-110315183D01*
X113636695Y-110315183D02*
X113690570Y-110315183D01*
X113690570Y-110315183D02*
X113879131Y-110126621D01*
X113879131Y-110126621D02*
X113771382Y-110018871D01*
X113879131Y-110611494D02*
X114444817Y-110045809D01*
X114444817Y-110045809D02*
X114660316Y-110261308D01*
X114660316Y-110261308D02*
X114687253Y-110342120D01*
X114687253Y-110342120D02*
X114687253Y-110395995D01*
X114687253Y-110395995D02*
X114660316Y-110476807D01*
X114660316Y-110476807D02*
X114579504Y-110557619D01*
X114579504Y-110557619D02*
X114498692Y-110584557D01*
X114498692Y-110584557D02*
X114444817Y-110584557D01*
X114444817Y-110584557D02*
X114364005Y-110557619D01*
X114364005Y-110557619D02*
X114148505Y-110342120D01*
X114956627Y-110557619D02*
X115333751Y-110934743D01*
X115333751Y-110934743D02*
X114525629Y-111257992D01*
X134471568Y-109876435D02*
X134444631Y-109795623D01*
X134444631Y-109795623D02*
X134363819Y-109714811D01*
X134363819Y-109714811D02*
X134256069Y-109660936D01*
X134256069Y-109660936D02*
X134148319Y-109660936D01*
X134148319Y-109660936D02*
X134067507Y-109687873D01*
X134067507Y-109687873D02*
X133932820Y-109768685D01*
X133932820Y-109768685D02*
X133852008Y-109849498D01*
X133852008Y-109849498D02*
X133771196Y-109984185D01*
X133771196Y-109984185D02*
X133744258Y-110064997D01*
X133744258Y-110064997D02*
X133744258Y-110172746D01*
X133744258Y-110172746D02*
X133798133Y-110280496D01*
X133798133Y-110280496D02*
X133852008Y-110334371D01*
X133852008Y-110334371D02*
X133959758Y-110388246D01*
X133959758Y-110388246D02*
X134013632Y-110388246D01*
X134013632Y-110388246D02*
X134202194Y-110199684D01*
X134202194Y-110199684D02*
X134094445Y-110091934D01*
X134202194Y-110684557D02*
X134767880Y-110118872D01*
X134767880Y-110118872D02*
X134525443Y-111007806D01*
X134525443Y-111007806D02*
X135091128Y-110442120D01*
X134794817Y-111277180D02*
X135360502Y-110711494D01*
X135360502Y-110711494D02*
X135495189Y-110846181D01*
X135495189Y-110846181D02*
X135549064Y-110953931D01*
X135549064Y-110953931D02*
X135549064Y-111061680D01*
X135549064Y-111061680D02*
X135522127Y-111142493D01*
X135522127Y-111142493D02*
X135441314Y-111277180D01*
X135441314Y-111277180D02*
X135360502Y-111357992D01*
X135360502Y-111357992D02*
X135225815Y-111438804D01*
X135225815Y-111438804D02*
X135145003Y-111465741D01*
X135145003Y-111465741D02*
X135037253Y-111465741D01*
X135037253Y-111465741D02*
X134929504Y-111411867D01*
X134929504Y-111411867D02*
X134794817Y-111277180D01*
X101279131Y-83880123D02*
X101629317Y-84230309D01*
X101629317Y-84230309D02*
X101225256Y-84257247D01*
X101225256Y-84257247D02*
X101306068Y-84338059D01*
X101306068Y-84338059D02*
X101333006Y-84418871D01*
X101333006Y-84418871D02*
X101333006Y-84472746D01*
X101333006Y-84472746D02*
X101306068Y-84553558D01*
X101306068Y-84553558D02*
X101171381Y-84688245D01*
X101171381Y-84688245D02*
X101090569Y-84715182D01*
X101090569Y-84715182D02*
X101036694Y-84715182D01*
X101036694Y-84715182D02*
X100955882Y-84688245D01*
X100955882Y-84688245D02*
X100794258Y-84526621D01*
X100794258Y-84526621D02*
X100767320Y-84445808D01*
X100767320Y-84445808D02*
X100767320Y-84391934D01*
X101790942Y-84391934D02*
X101413818Y-85146181D01*
X101413818Y-85146181D02*
X102168065Y-84769057D01*
X102302752Y-84903744D02*
X102652938Y-85253930D01*
X102652938Y-85253930D02*
X102248877Y-85280868D01*
X102248877Y-85280868D02*
X102329690Y-85361680D01*
X102329690Y-85361680D02*
X102356627Y-85442492D01*
X102356627Y-85442492D02*
X102356627Y-85496367D01*
X102356627Y-85496367D02*
X102329690Y-85577179D01*
X102329690Y-85577179D02*
X102195003Y-85711866D01*
X102195003Y-85711866D02*
X102114190Y-85738804D01*
X102114190Y-85738804D02*
X102060316Y-85738804D01*
X102060316Y-85738804D02*
X101979503Y-85711866D01*
X101979503Y-85711866D02*
X101817879Y-85550242D01*
X101817879Y-85550242D02*
X101790942Y-85469430D01*
X101790942Y-85469430D02*
X101790942Y-85415555D01*
X96371568Y-84276435D02*
X96344631Y-84195623D01*
X96344631Y-84195623D02*
X96263819Y-84114811D01*
X96263819Y-84114811D02*
X96156069Y-84060936D01*
X96156069Y-84060936D02*
X96048319Y-84060936D01*
X96048319Y-84060936D02*
X95967507Y-84087873D01*
X95967507Y-84087873D02*
X95832820Y-84168685D01*
X95832820Y-84168685D02*
X95752008Y-84249498D01*
X95752008Y-84249498D02*
X95671196Y-84384185D01*
X95671196Y-84384185D02*
X95644258Y-84464997D01*
X95644258Y-84464997D02*
X95644258Y-84572746D01*
X95644258Y-84572746D02*
X95698133Y-84680496D01*
X95698133Y-84680496D02*
X95752008Y-84734371D01*
X95752008Y-84734371D02*
X95859758Y-84788246D01*
X95859758Y-84788246D02*
X95913632Y-84788246D01*
X95913632Y-84788246D02*
X96102194Y-84599684D01*
X96102194Y-84599684D02*
X95994445Y-84491934D01*
X96102194Y-85084557D02*
X96667880Y-84518872D01*
X96667880Y-84518872D02*
X96425443Y-85407806D01*
X96425443Y-85407806D02*
X96991128Y-84842120D01*
X96694817Y-85677180D02*
X97260502Y-85111494D01*
X97260502Y-85111494D02*
X97395189Y-85246181D01*
X97395189Y-85246181D02*
X97449064Y-85353931D01*
X97449064Y-85353931D02*
X97449064Y-85461680D01*
X97449064Y-85461680D02*
X97422127Y-85542493D01*
X97422127Y-85542493D02*
X97341314Y-85677180D01*
X97341314Y-85677180D02*
X97260502Y-85757992D01*
X97260502Y-85757992D02*
X97125815Y-85838804D01*
X97125815Y-85838804D02*
X97045003Y-85865741D01*
X97045003Y-85865741D02*
X96937253Y-85865741D01*
X96937253Y-85865741D02*
X96829504Y-85811867D01*
X96829504Y-85811867D02*
X96694817Y-85677180D01*
X139309131Y-83779998D02*
X139282194Y-83699185D01*
X139282194Y-83699185D02*
X139201381Y-83618373D01*
X139201381Y-83618373D02*
X139093632Y-83564498D01*
X139093632Y-83564498D02*
X138985882Y-83564498D01*
X138985882Y-83564498D02*
X138905070Y-83591436D01*
X138905070Y-83591436D02*
X138770383Y-83672248D01*
X138770383Y-83672248D02*
X138689571Y-83753060D01*
X138689571Y-83753060D02*
X138608758Y-83887747D01*
X138608758Y-83887747D02*
X138581821Y-83968560D01*
X138581821Y-83968560D02*
X138581821Y-84076309D01*
X138581821Y-84076309D02*
X138635696Y-84184059D01*
X138635696Y-84184059D02*
X138689571Y-84237934D01*
X138689571Y-84237934D02*
X138797320Y-84291808D01*
X138797320Y-84291808D02*
X138851195Y-84291808D01*
X138851195Y-84291808D02*
X139039757Y-84103247D01*
X139039757Y-84103247D02*
X138932007Y-83995497D01*
X139039757Y-84588120D02*
X139605442Y-84022434D01*
X139605442Y-84022434D02*
X139820942Y-84237934D01*
X139820942Y-84237934D02*
X139847879Y-84318746D01*
X139847879Y-84318746D02*
X139847879Y-84372621D01*
X139847879Y-84372621D02*
X139820942Y-84453433D01*
X139820942Y-84453433D02*
X139740129Y-84534245D01*
X139740129Y-84534245D02*
X139659317Y-84561182D01*
X139659317Y-84561182D02*
X139605442Y-84561182D01*
X139605442Y-84561182D02*
X139524630Y-84534245D01*
X139524630Y-84534245D02*
X139309131Y-84318746D01*
X139901754Y-85450117D02*
X139578505Y-85126868D01*
X139740129Y-85288492D02*
X140305815Y-84722807D01*
X140305815Y-84722807D02*
X140171128Y-84749744D01*
X140171128Y-84749744D02*
X140063378Y-84749744D01*
X140063378Y-84749744D02*
X139982566Y-84722807D01*
X140952313Y-85369305D02*
X140844563Y-85261555D01*
X140844563Y-85261555D02*
X140763751Y-85234618D01*
X140763751Y-85234618D02*
X140709876Y-85234618D01*
X140709876Y-85234618D02*
X140575189Y-85261555D01*
X140575189Y-85261555D02*
X140440502Y-85342367D01*
X140440502Y-85342367D02*
X140225003Y-85557866D01*
X140225003Y-85557866D02*
X140198065Y-85638679D01*
X140198065Y-85638679D02*
X140198065Y-85692553D01*
X140198065Y-85692553D02*
X140225003Y-85773366D01*
X140225003Y-85773366D02*
X140332752Y-85881115D01*
X140332752Y-85881115D02*
X140413565Y-85908053D01*
X140413565Y-85908053D02*
X140467439Y-85908053D01*
X140467439Y-85908053D02*
X140548252Y-85881115D01*
X140548252Y-85881115D02*
X140682939Y-85746428D01*
X140682939Y-85746428D02*
X140709876Y-85665616D01*
X140709876Y-85665616D02*
X140709876Y-85611741D01*
X140709876Y-85611741D02*
X140682939Y-85530929D01*
X140682939Y-85530929D02*
X140575189Y-85423179D01*
X140575189Y-85423179D02*
X140494377Y-85396242D01*
X140494377Y-85396242D02*
X140440502Y-85396242D01*
X140440502Y-85396242D02*
X140359690Y-85423179D01*
X124079131Y-83779998D02*
X124052194Y-83699185D01*
X124052194Y-83699185D02*
X123971381Y-83618373D01*
X123971381Y-83618373D02*
X123863632Y-83564498D01*
X123863632Y-83564498D02*
X123755882Y-83564498D01*
X123755882Y-83564498D02*
X123675070Y-83591436D01*
X123675070Y-83591436D02*
X123540383Y-83672248D01*
X123540383Y-83672248D02*
X123459571Y-83753060D01*
X123459571Y-83753060D02*
X123378758Y-83887747D01*
X123378758Y-83887747D02*
X123351821Y-83968560D01*
X123351821Y-83968560D02*
X123351821Y-84076309D01*
X123351821Y-84076309D02*
X123405696Y-84184059D01*
X123405696Y-84184059D02*
X123459571Y-84237934D01*
X123459571Y-84237934D02*
X123567320Y-84291808D01*
X123567320Y-84291808D02*
X123621195Y-84291808D01*
X123621195Y-84291808D02*
X123809757Y-84103247D01*
X123809757Y-84103247D02*
X123702007Y-83995497D01*
X123809757Y-84588120D02*
X124375442Y-84022434D01*
X124375442Y-84022434D02*
X124590942Y-84237934D01*
X124590942Y-84237934D02*
X124617879Y-84318746D01*
X124617879Y-84318746D02*
X124617879Y-84372621D01*
X124617879Y-84372621D02*
X124590942Y-84453433D01*
X124590942Y-84453433D02*
X124510129Y-84534245D01*
X124510129Y-84534245D02*
X124429317Y-84561182D01*
X124429317Y-84561182D02*
X124375442Y-84561182D01*
X124375442Y-84561182D02*
X124294630Y-84534245D01*
X124294630Y-84534245D02*
X124079131Y-84318746D01*
X124860316Y-84615057D02*
X124914190Y-84615057D01*
X124914190Y-84615057D02*
X124995003Y-84641995D01*
X124995003Y-84641995D02*
X125129690Y-84776682D01*
X125129690Y-84776682D02*
X125156627Y-84857494D01*
X125156627Y-84857494D02*
X125156627Y-84911369D01*
X125156627Y-84911369D02*
X125129690Y-84992181D01*
X125129690Y-84992181D02*
X125075815Y-85046056D01*
X125075815Y-85046056D02*
X124968065Y-85099930D01*
X124968065Y-85099930D02*
X124321568Y-85099930D01*
X124321568Y-85099930D02*
X124671754Y-85450117D01*
X125210502Y-85988865D02*
X124887253Y-85665616D01*
X125048878Y-85827240D02*
X125614563Y-85261555D01*
X125614563Y-85261555D02*
X125479876Y-85288492D01*
X125479876Y-85288492D02*
X125372126Y-85288492D01*
X125372126Y-85288492D02*
X125291314Y-85261555D01*
X131689131Y-83779998D02*
X131662194Y-83699185D01*
X131662194Y-83699185D02*
X131581381Y-83618373D01*
X131581381Y-83618373D02*
X131473632Y-83564498D01*
X131473632Y-83564498D02*
X131365882Y-83564498D01*
X131365882Y-83564498D02*
X131285070Y-83591436D01*
X131285070Y-83591436D02*
X131150383Y-83672248D01*
X131150383Y-83672248D02*
X131069571Y-83753060D01*
X131069571Y-83753060D02*
X130988758Y-83887747D01*
X130988758Y-83887747D02*
X130961821Y-83968560D01*
X130961821Y-83968560D02*
X130961821Y-84076309D01*
X130961821Y-84076309D02*
X131015696Y-84184059D01*
X131015696Y-84184059D02*
X131069571Y-84237934D01*
X131069571Y-84237934D02*
X131177320Y-84291808D01*
X131177320Y-84291808D02*
X131231195Y-84291808D01*
X131231195Y-84291808D02*
X131419757Y-84103247D01*
X131419757Y-84103247D02*
X131312007Y-83995497D01*
X131419757Y-84588120D02*
X131985442Y-84022434D01*
X131985442Y-84022434D02*
X132200942Y-84237934D01*
X132200942Y-84237934D02*
X132227879Y-84318746D01*
X132227879Y-84318746D02*
X132227879Y-84372621D01*
X132227879Y-84372621D02*
X132200942Y-84453433D01*
X132200942Y-84453433D02*
X132120129Y-84534245D01*
X132120129Y-84534245D02*
X132039317Y-84561182D01*
X132039317Y-84561182D02*
X131985442Y-84561182D01*
X131985442Y-84561182D02*
X131904630Y-84534245D01*
X131904630Y-84534245D02*
X131689131Y-84318746D01*
X132281754Y-85450117D02*
X131958505Y-85126868D01*
X132120129Y-85288492D02*
X132685815Y-84722807D01*
X132685815Y-84722807D02*
X132551128Y-84749744D01*
X132551128Y-84749744D02*
X132443378Y-84749744D01*
X132443378Y-84749744D02*
X132362566Y-84722807D01*
X132928252Y-85450117D02*
X132901314Y-85369305D01*
X132901314Y-85369305D02*
X132901314Y-85315430D01*
X132901314Y-85315430D02*
X132928252Y-85234618D01*
X132928252Y-85234618D02*
X132955189Y-85207680D01*
X132955189Y-85207680D02*
X133036001Y-85180743D01*
X133036001Y-85180743D02*
X133089876Y-85180743D01*
X133089876Y-85180743D02*
X133170688Y-85207680D01*
X133170688Y-85207680D02*
X133278438Y-85315430D01*
X133278438Y-85315430D02*
X133305375Y-85396242D01*
X133305375Y-85396242D02*
X133305375Y-85450117D01*
X133305375Y-85450117D02*
X133278438Y-85530929D01*
X133278438Y-85530929D02*
X133251500Y-85557866D01*
X133251500Y-85557866D02*
X133170688Y-85584804D01*
X133170688Y-85584804D02*
X133116813Y-85584804D01*
X133116813Y-85584804D02*
X133036001Y-85557866D01*
X133036001Y-85557866D02*
X132928252Y-85450117D01*
X132928252Y-85450117D02*
X132847439Y-85423179D01*
X132847439Y-85423179D02*
X132793565Y-85423179D01*
X132793565Y-85423179D02*
X132712752Y-85450117D01*
X132712752Y-85450117D02*
X132605003Y-85557866D01*
X132605003Y-85557866D02*
X132578065Y-85638679D01*
X132578065Y-85638679D02*
X132578065Y-85692553D01*
X132578065Y-85692553D02*
X132605003Y-85773366D01*
X132605003Y-85773366D02*
X132712752Y-85881115D01*
X132712752Y-85881115D02*
X132793565Y-85908053D01*
X132793565Y-85908053D02*
X132847439Y-85908053D01*
X132847439Y-85908053D02*
X132928252Y-85881115D01*
X132928252Y-85881115D02*
X133036001Y-85773366D01*
X133036001Y-85773366D02*
X133062939Y-85692553D01*
X133062939Y-85692553D02*
X133062939Y-85638679D01*
X133062939Y-85638679D02*
X133036001Y-85557866D01*
X131444026Y-110103574D02*
X131484433Y-110184386D01*
X131484433Y-110184386D02*
X131484433Y-110224792D01*
X131484433Y-110224792D02*
X131464230Y-110285401D01*
X131464230Y-110285401D02*
X131403620Y-110346010D01*
X131403620Y-110346010D02*
X131343011Y-110366213D01*
X131343011Y-110366213D02*
X131302605Y-110366213D01*
X131302605Y-110366213D02*
X131241996Y-110346010D01*
X131241996Y-110346010D02*
X131080372Y-110184386D01*
X131080372Y-110184386D02*
X131504636Y-109760122D01*
X131504636Y-109760122D02*
X131646057Y-109901543D01*
X131646057Y-109901543D02*
X131666260Y-109962152D01*
X131666260Y-109962152D02*
X131666260Y-110002558D01*
X131666260Y-110002558D02*
X131646057Y-110063168D01*
X131646057Y-110063168D02*
X131605651Y-110103574D01*
X131605651Y-110103574D02*
X131545042Y-110123777D01*
X131545042Y-110123777D02*
X131504636Y-110123777D01*
X131504636Y-110123777D02*
X131444026Y-110103574D01*
X131444026Y-110103574D02*
X131302605Y-109962152D01*
X131969306Y-110507635D02*
X131686463Y-110790477D01*
X131787478Y-110325807D02*
X131565245Y-110548041D01*
X131565245Y-110548041D02*
X131545042Y-110608650D01*
X131545042Y-110608650D02*
X131565245Y-110669259D01*
X131565245Y-110669259D02*
X131625854Y-110729868D01*
X131625854Y-110729868D02*
X131686463Y-110750071D01*
X131686463Y-110750071D02*
X131726869Y-110750071D01*
X132110727Y-110649056D02*
X132272351Y-110810680D01*
X132312758Y-110568244D02*
X131949103Y-110931899D01*
X131949103Y-110931899D02*
X131928900Y-110992508D01*
X131928900Y-110992508D02*
X131949103Y-111053117D01*
X131949103Y-111053117D02*
X131989509Y-111093523D01*
X132353164Y-110891493D02*
X132514788Y-111053117D01*
X132555194Y-110810680D02*
X132191539Y-111174335D01*
X132191539Y-111174335D02*
X132171336Y-111234944D01*
X132171336Y-111234944D02*
X132191539Y-111295554D01*
X132191539Y-111295554D02*
X132231945Y-111335960D01*
X132433976Y-111537990D02*
X132413773Y-111477381D01*
X132413773Y-111477381D02*
X132413773Y-111436975D01*
X132413773Y-111436975D02*
X132433976Y-111376366D01*
X132433976Y-111376366D02*
X132555194Y-111255147D01*
X132555194Y-111255147D02*
X132615803Y-111234944D01*
X132615803Y-111234944D02*
X132656209Y-111234944D01*
X132656209Y-111234944D02*
X132716818Y-111255147D01*
X132716818Y-111255147D02*
X132777428Y-111315757D01*
X132777428Y-111315757D02*
X132797631Y-111376366D01*
X132797631Y-111376366D02*
X132797631Y-111416772D01*
X132797631Y-111416772D02*
X132777428Y-111477381D01*
X132777428Y-111477381D02*
X132656209Y-111598599D01*
X132656209Y-111598599D02*
X132595600Y-111618802D01*
X132595600Y-111618802D02*
X132555194Y-111618802D01*
X132555194Y-111618802D02*
X132494585Y-111598599D01*
X132494585Y-111598599D02*
X132433976Y-111537990D01*
X133040067Y-111578396D02*
X132757224Y-111861239D01*
X132999661Y-111618802D02*
X133040067Y-111618802D01*
X133040067Y-111618802D02*
X133100676Y-111639005D01*
X133100676Y-111639005D02*
X133161285Y-111699614D01*
X133161285Y-111699614D02*
X133181488Y-111760224D01*
X133181488Y-111760224D02*
X133161285Y-111820833D01*
X133161285Y-111820833D02*
X132939052Y-112043066D01*
X133504737Y-111841036D02*
X133545143Y-111841036D01*
X133545143Y-111841036D02*
X133605752Y-111861239D01*
X133605752Y-111861239D02*
X133706768Y-111962254D01*
X133706768Y-111962254D02*
X133726971Y-112022863D01*
X133726971Y-112022863D02*
X133726971Y-112063269D01*
X133726971Y-112063269D02*
X133706768Y-112123878D01*
X133706768Y-112123878D02*
X133666362Y-112164284D01*
X133666362Y-112164284D02*
X133585549Y-112204691D01*
X133585549Y-112204691D02*
X133100676Y-112204691D01*
X133100676Y-112204691D02*
X133363316Y-112467330D01*
X105507947Y-109876435D02*
X105561821Y-109984184D01*
X105561821Y-109984184D02*
X105696508Y-110118871D01*
X105696508Y-110118871D02*
X105777321Y-110145809D01*
X105777321Y-110145809D02*
X105831195Y-110145809D01*
X105831195Y-110145809D02*
X105912008Y-110118871D01*
X105912008Y-110118871D02*
X105965882Y-110064996D01*
X105965882Y-110064996D02*
X105992820Y-109984184D01*
X105992820Y-109984184D02*
X105992820Y-109930309D01*
X105992820Y-109930309D02*
X105965882Y-109849497D01*
X105965882Y-109849497D02*
X105885070Y-109714810D01*
X105885070Y-109714810D02*
X105858133Y-109633998D01*
X105858133Y-109633998D02*
X105858133Y-109580123D01*
X105858133Y-109580123D02*
X105885070Y-109499311D01*
X105885070Y-109499311D02*
X105938945Y-109445436D01*
X105938945Y-109445436D02*
X106019757Y-109418499D01*
X106019757Y-109418499D02*
X106073632Y-109418499D01*
X106073632Y-109418499D02*
X106154444Y-109445436D01*
X106154444Y-109445436D02*
X106289131Y-109580123D01*
X106289131Y-109580123D02*
X106343006Y-109687873D01*
X106423818Y-110738432D02*
X106369944Y-110738432D01*
X106369944Y-110738432D02*
X106262194Y-110684557D01*
X106262194Y-110684557D02*
X106208319Y-110630682D01*
X106208319Y-110630682D02*
X106154444Y-110522932D01*
X106154444Y-110522932D02*
X106154444Y-110415183D01*
X106154444Y-110415183D02*
X106181382Y-110334371D01*
X106181382Y-110334371D02*
X106262194Y-110199684D01*
X106262194Y-110199684D02*
X106343006Y-110118871D01*
X106343006Y-110118871D02*
X106477693Y-110038059D01*
X106477693Y-110038059D02*
X106558505Y-110011122D01*
X106558505Y-110011122D02*
X106666255Y-110011122D01*
X106666255Y-110011122D02*
X106774005Y-110064997D01*
X106774005Y-110064997D02*
X106827879Y-110118871D01*
X106827879Y-110118871D02*
X106881754Y-110226621D01*
X106881754Y-110226621D02*
X106881754Y-110280496D01*
X106881754Y-111304117D02*
X106612380Y-111034743D01*
X106612380Y-111034743D02*
X107178066Y-110469058D01*
X107743751Y-111034743D02*
X107797626Y-111088618D01*
X107797626Y-111088618D02*
X107824563Y-111169430D01*
X107824563Y-111169430D02*
X107824563Y-111223305D01*
X107824563Y-111223305D02*
X107797626Y-111304117D01*
X107797626Y-111304117D02*
X107716814Y-111438804D01*
X107716814Y-111438804D02*
X107582127Y-111573491D01*
X107582127Y-111573491D02*
X107447440Y-111654303D01*
X107447440Y-111654303D02*
X107366627Y-111681241D01*
X107366627Y-111681241D02*
X107312753Y-111681241D01*
X107312753Y-111681241D02*
X107231940Y-111654303D01*
X107231940Y-111654303D02*
X107178066Y-111600428D01*
X107178066Y-111600428D02*
X107151128Y-111519616D01*
X107151128Y-111519616D02*
X107151128Y-111465741D01*
X107151128Y-111465741D02*
X107178066Y-111384929D01*
X107178066Y-111384929D02*
X107258878Y-111250242D01*
X107258878Y-111250242D02*
X107393565Y-111115555D01*
X107393565Y-111115555D02*
X107528252Y-111034743D01*
X107528252Y-111034743D02*
X107609064Y-111007806D01*
X107609064Y-111007806D02*
X107662939Y-111007806D01*
X107662939Y-111007806D02*
X107743751Y-111034743D01*
X129471631Y-110033998D02*
X129444694Y-109953185D01*
X129444694Y-109953185D02*
X129363881Y-109872373D01*
X129363881Y-109872373D02*
X129256132Y-109818498D01*
X129256132Y-109818498D02*
X129148382Y-109818498D01*
X129148382Y-109818498D02*
X129067570Y-109845436D01*
X129067570Y-109845436D02*
X128932883Y-109926248D01*
X128932883Y-109926248D02*
X128852071Y-110007060D01*
X128852071Y-110007060D02*
X128771258Y-110141747D01*
X128771258Y-110141747D02*
X128744321Y-110222560D01*
X128744321Y-110222560D02*
X128744321Y-110330309D01*
X128744321Y-110330309D02*
X128798196Y-110438059D01*
X128798196Y-110438059D02*
X128852071Y-110491934D01*
X128852071Y-110491934D02*
X128959820Y-110545808D01*
X128959820Y-110545808D02*
X129013695Y-110545808D01*
X129013695Y-110545808D02*
X129202257Y-110357247D01*
X129202257Y-110357247D02*
X129094507Y-110249497D01*
X129202257Y-110842120D02*
X129767942Y-110276434D01*
X129767942Y-110276434D02*
X129983442Y-110491934D01*
X129983442Y-110491934D02*
X130010379Y-110572746D01*
X130010379Y-110572746D02*
X130010379Y-110626621D01*
X130010379Y-110626621D02*
X129983442Y-110707433D01*
X129983442Y-110707433D02*
X129902629Y-110788245D01*
X129902629Y-110788245D02*
X129821817Y-110815182D01*
X129821817Y-110815182D02*
X129767942Y-110815182D01*
X129767942Y-110815182D02*
X129687130Y-110788245D01*
X129687130Y-110788245D02*
X129471631Y-110572746D01*
X130064254Y-111704117D02*
X129741005Y-111380868D01*
X129902629Y-111542492D02*
X130468315Y-110976807D01*
X130468315Y-110976807D02*
X130333628Y-111003744D01*
X130333628Y-111003744D02*
X130225878Y-111003744D01*
X130225878Y-111003744D02*
X130145066Y-110976807D01*
X130791564Y-111407805D02*
X130845439Y-111407805D01*
X130845439Y-111407805D02*
X130926251Y-111434743D01*
X130926251Y-111434743D02*
X131060938Y-111569430D01*
X131060938Y-111569430D02*
X131087875Y-111650242D01*
X131087875Y-111650242D02*
X131087875Y-111704117D01*
X131087875Y-111704117D02*
X131060938Y-111784929D01*
X131060938Y-111784929D02*
X131007063Y-111838804D01*
X131007063Y-111838804D02*
X130899313Y-111892679D01*
X130899313Y-111892679D02*
X130252816Y-111892679D01*
X130252816Y-111892679D02*
X130603002Y-112242865D01*
X136769131Y-83779998D02*
X136742194Y-83699185D01*
X136742194Y-83699185D02*
X136661381Y-83618373D01*
X136661381Y-83618373D02*
X136553632Y-83564498D01*
X136553632Y-83564498D02*
X136445882Y-83564498D01*
X136445882Y-83564498D02*
X136365070Y-83591436D01*
X136365070Y-83591436D02*
X136230383Y-83672248D01*
X136230383Y-83672248D02*
X136149571Y-83753060D01*
X136149571Y-83753060D02*
X136068758Y-83887747D01*
X136068758Y-83887747D02*
X136041821Y-83968560D01*
X136041821Y-83968560D02*
X136041821Y-84076309D01*
X136041821Y-84076309D02*
X136095696Y-84184059D01*
X136095696Y-84184059D02*
X136149571Y-84237934D01*
X136149571Y-84237934D02*
X136257320Y-84291808D01*
X136257320Y-84291808D02*
X136311195Y-84291808D01*
X136311195Y-84291808D02*
X136499757Y-84103247D01*
X136499757Y-84103247D02*
X136392007Y-83995497D01*
X136499757Y-84588120D02*
X137065442Y-84022434D01*
X137065442Y-84022434D02*
X137280942Y-84237934D01*
X137280942Y-84237934D02*
X137307879Y-84318746D01*
X137307879Y-84318746D02*
X137307879Y-84372621D01*
X137307879Y-84372621D02*
X137280942Y-84453433D01*
X137280942Y-84453433D02*
X137200129Y-84534245D01*
X137200129Y-84534245D02*
X137119317Y-84561182D01*
X137119317Y-84561182D02*
X137065442Y-84561182D01*
X137065442Y-84561182D02*
X136984630Y-84534245D01*
X136984630Y-84534245D02*
X136769131Y-84318746D01*
X137361754Y-85450117D02*
X137038505Y-85126868D01*
X137200129Y-85288492D02*
X137765815Y-84722807D01*
X137765815Y-84722807D02*
X137631128Y-84749744D01*
X137631128Y-84749744D02*
X137523378Y-84749744D01*
X137523378Y-84749744D02*
X137442566Y-84722807D01*
X138116001Y-85072993D02*
X138493125Y-85450117D01*
X138493125Y-85450117D02*
X137685003Y-85773366D01*
X111638505Y-109903372D02*
X111611568Y-109822560D01*
X111611568Y-109822560D02*
X111530756Y-109741748D01*
X111530756Y-109741748D02*
X111423006Y-109687873D01*
X111423006Y-109687873D02*
X111315257Y-109687873D01*
X111315257Y-109687873D02*
X111234444Y-109714810D01*
X111234444Y-109714810D02*
X111099757Y-109795623D01*
X111099757Y-109795623D02*
X111018945Y-109876435D01*
X111018945Y-109876435D02*
X110938133Y-110011122D01*
X110938133Y-110011122D02*
X110911196Y-110091934D01*
X110911196Y-110091934D02*
X110911196Y-110199684D01*
X110911196Y-110199684D02*
X110965070Y-110307433D01*
X110965070Y-110307433D02*
X111018945Y-110361308D01*
X111018945Y-110361308D02*
X111126695Y-110415183D01*
X111126695Y-110415183D02*
X111180570Y-110415183D01*
X111180570Y-110415183D02*
X111369131Y-110226621D01*
X111369131Y-110226621D02*
X111261382Y-110118871D01*
X111369131Y-110711494D02*
X111934817Y-110145809D01*
X111934817Y-110145809D02*
X112150316Y-110361308D01*
X112150316Y-110361308D02*
X112177253Y-110442120D01*
X112177253Y-110442120D02*
X112177253Y-110495995D01*
X112177253Y-110495995D02*
X112150316Y-110576807D01*
X112150316Y-110576807D02*
X112069504Y-110657619D01*
X112069504Y-110657619D02*
X111988692Y-110684557D01*
X111988692Y-110684557D02*
X111934817Y-110684557D01*
X111934817Y-110684557D02*
X111854005Y-110657619D01*
X111854005Y-110657619D02*
X111638505Y-110442120D01*
X112742939Y-110953931D02*
X112635189Y-110846181D01*
X112635189Y-110846181D02*
X112554377Y-110819244D01*
X112554377Y-110819244D02*
X112500502Y-110819244D01*
X112500502Y-110819244D02*
X112365815Y-110846181D01*
X112365815Y-110846181D02*
X112231128Y-110926993D01*
X112231128Y-110926993D02*
X112015629Y-111142493D01*
X112015629Y-111142493D02*
X111988692Y-111223305D01*
X111988692Y-111223305D02*
X111988692Y-111277180D01*
X111988692Y-111277180D02*
X112015629Y-111357992D01*
X112015629Y-111357992D02*
X112123379Y-111465741D01*
X112123379Y-111465741D02*
X112204191Y-111492679D01*
X112204191Y-111492679D02*
X112258066Y-111492679D01*
X112258066Y-111492679D02*
X112338878Y-111465741D01*
X112338878Y-111465741D02*
X112473565Y-111331054D01*
X112473565Y-111331054D02*
X112500502Y-111250242D01*
X112500502Y-111250242D02*
X112500502Y-111196367D01*
X112500502Y-111196367D02*
X112473565Y-111115555D01*
X112473565Y-111115555D02*
X112365815Y-111007806D01*
X112365815Y-111007806D02*
X112285003Y-110980868D01*
X112285003Y-110980868D02*
X112231128Y-110980868D01*
X112231128Y-110980868D02*
X112150316Y-111007806D01*
X110705696Y-83860810D02*
X110975070Y-84130184D01*
X110490197Y-83968560D02*
X111244444Y-83591436D01*
X111244444Y-83591436D02*
X110867321Y-84345684D01*
X111055882Y-84534245D02*
X111621568Y-83968560D01*
X111621568Y-83968560D02*
X111756255Y-84103247D01*
X111756255Y-84103247D02*
X111810130Y-84210996D01*
X111810130Y-84210996D02*
X111810130Y-84318746D01*
X111810130Y-84318746D02*
X111783192Y-84399558D01*
X111783192Y-84399558D02*
X111702380Y-84534245D01*
X111702380Y-84534245D02*
X111621568Y-84615057D01*
X111621568Y-84615057D02*
X111486881Y-84695870D01*
X111486881Y-84695870D02*
X111406069Y-84722807D01*
X111406069Y-84722807D02*
X111298319Y-84722807D01*
X111298319Y-84722807D02*
X111190569Y-84668932D01*
X111190569Y-84668932D02*
X111055882Y-84534245D01*
X111998691Y-85369305D02*
X111944817Y-85369305D01*
X111944817Y-85369305D02*
X111837067Y-85315430D01*
X111837067Y-85315430D02*
X111783192Y-85261555D01*
X111783192Y-85261555D02*
X111729317Y-85153805D01*
X111729317Y-85153805D02*
X111729317Y-85046056D01*
X111729317Y-85046056D02*
X111756255Y-84965244D01*
X111756255Y-84965244D02*
X111837067Y-84830557D01*
X111837067Y-84830557D02*
X111917879Y-84749744D01*
X111917879Y-84749744D02*
X112052566Y-84668932D01*
X112052566Y-84668932D02*
X112133378Y-84641995D01*
X112133378Y-84641995D02*
X112241128Y-84641995D01*
X112241128Y-84641995D02*
X112348878Y-84695870D01*
X112348878Y-84695870D02*
X112402752Y-84749744D01*
X112402752Y-84749744D02*
X112456627Y-84857494D01*
X112456627Y-84857494D02*
X112456627Y-84911369D01*
X112483565Y-85961928D02*
X112160316Y-85638679D01*
X112321940Y-85800303D02*
X112887626Y-85234618D01*
X112887626Y-85234618D02*
X112752939Y-85261555D01*
X112752939Y-85261555D02*
X112645189Y-85261555D01*
X112645189Y-85261555D02*
X112564377Y-85234618D01*
X90709757Y-83210749D02*
X90332633Y-83964996D01*
X90332633Y-83964996D02*
X91086881Y-83587873D01*
X90709757Y-84288245D02*
X90763632Y-84395995D01*
X90763632Y-84395995D02*
X90898319Y-84530682D01*
X90898319Y-84530682D02*
X90979131Y-84557619D01*
X90979131Y-84557619D02*
X91033006Y-84557619D01*
X91033006Y-84557619D02*
X91113818Y-84530682D01*
X91113818Y-84530682D02*
X91167693Y-84476807D01*
X91167693Y-84476807D02*
X91194630Y-84395995D01*
X91194630Y-84395995D02*
X91194630Y-84342120D01*
X91194630Y-84342120D02*
X91167693Y-84261308D01*
X91167693Y-84261308D02*
X91086881Y-84126621D01*
X91086881Y-84126621D02*
X91059943Y-84045808D01*
X91059943Y-84045808D02*
X91059943Y-83991934D01*
X91059943Y-83991934D02*
X91086881Y-83911121D01*
X91086881Y-83911121D02*
X91140755Y-83857247D01*
X91140755Y-83857247D02*
X91221568Y-83830309D01*
X91221568Y-83830309D02*
X91275442Y-83830309D01*
X91275442Y-83830309D02*
X91356255Y-83857247D01*
X91356255Y-83857247D02*
X91490942Y-83991934D01*
X91490942Y-83991934D02*
X91544816Y-84099683D01*
X91625629Y-84719244D02*
X91356255Y-84988618D01*
X91733378Y-84234370D02*
X91625629Y-84719244D01*
X91625629Y-84719244D02*
X92110502Y-84611494D01*
X91733378Y-85311866D02*
X91787253Y-85419616D01*
X91787253Y-85419616D02*
X91921940Y-85554303D01*
X91921940Y-85554303D02*
X92002752Y-85581240D01*
X92002752Y-85581240D02*
X92056627Y-85581240D01*
X92056627Y-85581240D02*
X92137439Y-85554303D01*
X92137439Y-85554303D02*
X92191314Y-85500428D01*
X92191314Y-85500428D02*
X92218251Y-85419616D01*
X92218251Y-85419616D02*
X92218251Y-85365741D01*
X92218251Y-85365741D02*
X92191314Y-85284929D01*
X92191314Y-85284929D02*
X92110502Y-85150242D01*
X92110502Y-85150242D02*
X92083564Y-85069430D01*
X92083564Y-85069430D02*
X92083564Y-85015555D01*
X92083564Y-85015555D02*
X92110502Y-84934743D01*
X92110502Y-84934743D02*
X92164377Y-84880868D01*
X92164377Y-84880868D02*
X92245189Y-84853930D01*
X92245189Y-84853930D02*
X92299064Y-84853930D01*
X92299064Y-84853930D02*
X92379876Y-84880868D01*
X92379876Y-84880868D02*
X92514563Y-85015555D01*
X92514563Y-85015555D02*
X92568438Y-85123304D01*
X123394200Y-100599524D02*
X123432295Y-100485238D01*
X123432295Y-100485238D02*
X123432295Y-100294762D01*
X123432295Y-100294762D02*
X123394200Y-100218571D01*
X123394200Y-100218571D02*
X123356104Y-100180476D01*
X123356104Y-100180476D02*
X123279914Y-100142381D01*
X123279914Y-100142381D02*
X123203723Y-100142381D01*
X123203723Y-100142381D02*
X123127533Y-100180476D01*
X123127533Y-100180476D02*
X123089438Y-100218571D01*
X123089438Y-100218571D02*
X123051342Y-100294762D01*
X123051342Y-100294762D02*
X123013247Y-100447143D01*
X123013247Y-100447143D02*
X122975152Y-100523333D01*
X122975152Y-100523333D02*
X122937057Y-100561428D01*
X122937057Y-100561428D02*
X122860866Y-100599524D01*
X122860866Y-100599524D02*
X122784676Y-100599524D01*
X122784676Y-100599524D02*
X122708485Y-100561428D01*
X122708485Y-100561428D02*
X122670390Y-100523333D01*
X122670390Y-100523333D02*
X122632295Y-100447143D01*
X122632295Y-100447143D02*
X122632295Y-100256666D01*
X122632295Y-100256666D02*
X122670390Y-100142381D01*
X122632295Y-99875714D02*
X123432295Y-99685238D01*
X123432295Y-99685238D02*
X122860866Y-99532857D01*
X122860866Y-99532857D02*
X123432295Y-99380476D01*
X123432295Y-99380476D02*
X122632295Y-99190000D01*
X123356104Y-98428094D02*
X123394200Y-98466190D01*
X123394200Y-98466190D02*
X123432295Y-98580475D01*
X123432295Y-98580475D02*
X123432295Y-98656666D01*
X123432295Y-98656666D02*
X123394200Y-98770952D01*
X123394200Y-98770952D02*
X123318009Y-98847142D01*
X123318009Y-98847142D02*
X123241819Y-98885237D01*
X123241819Y-98885237D02*
X123089438Y-98923333D01*
X123089438Y-98923333D02*
X122975152Y-98923333D01*
X122975152Y-98923333D02*
X122822771Y-98885237D01*
X122822771Y-98885237D02*
X122746580Y-98847142D01*
X122746580Y-98847142D02*
X122670390Y-98770952D01*
X122670390Y-98770952D02*
X122632295Y-98656666D01*
X122632295Y-98656666D02*
X122632295Y-98580475D01*
X122632295Y-98580475D02*
X122670390Y-98466190D01*
X122670390Y-98466190D02*
X122708485Y-98428094D01*
X123432295Y-97704285D02*
X123432295Y-98085237D01*
X123432295Y-98085237D02*
X122632295Y-98085237D01*
X123432295Y-97437618D02*
X122632295Y-97437618D01*
X123432295Y-96980475D02*
X122975152Y-97323333D01*
X122632295Y-96980475D02*
X123089438Y-97437618D01*
X116718505Y-109903372D02*
X116691568Y-109822560D01*
X116691568Y-109822560D02*
X116610756Y-109741748D01*
X116610756Y-109741748D02*
X116503006Y-109687873D01*
X116503006Y-109687873D02*
X116395257Y-109687873D01*
X116395257Y-109687873D02*
X116314444Y-109714810D01*
X116314444Y-109714810D02*
X116179757Y-109795623D01*
X116179757Y-109795623D02*
X116098945Y-109876435D01*
X116098945Y-109876435D02*
X116018133Y-110011122D01*
X116018133Y-110011122D02*
X115991196Y-110091934D01*
X115991196Y-110091934D02*
X115991196Y-110199684D01*
X115991196Y-110199684D02*
X116045070Y-110307433D01*
X116045070Y-110307433D02*
X116098945Y-110361308D01*
X116098945Y-110361308D02*
X116206695Y-110415183D01*
X116206695Y-110415183D02*
X116260570Y-110415183D01*
X116260570Y-110415183D02*
X116449131Y-110226621D01*
X116449131Y-110226621D02*
X116341382Y-110118871D01*
X116449131Y-110711494D02*
X117014817Y-110145809D01*
X117014817Y-110145809D02*
X117230316Y-110361308D01*
X117230316Y-110361308D02*
X117257253Y-110442120D01*
X117257253Y-110442120D02*
X117257253Y-110495995D01*
X117257253Y-110495995D02*
X117230316Y-110576807D01*
X117230316Y-110576807D02*
X117149504Y-110657619D01*
X117149504Y-110657619D02*
X117068692Y-110684557D01*
X117068692Y-110684557D02*
X117014817Y-110684557D01*
X117014817Y-110684557D02*
X116934005Y-110657619D01*
X116934005Y-110657619D02*
X116718505Y-110442120D01*
X117418878Y-111034743D02*
X117391940Y-110953931D01*
X117391940Y-110953931D02*
X117391940Y-110900056D01*
X117391940Y-110900056D02*
X117418878Y-110819244D01*
X117418878Y-110819244D02*
X117445815Y-110792306D01*
X117445815Y-110792306D02*
X117526627Y-110765369D01*
X117526627Y-110765369D02*
X117580502Y-110765369D01*
X117580502Y-110765369D02*
X117661314Y-110792306D01*
X117661314Y-110792306D02*
X117769064Y-110900056D01*
X117769064Y-110900056D02*
X117796001Y-110980868D01*
X117796001Y-110980868D02*
X117796001Y-111034743D01*
X117796001Y-111034743D02*
X117769064Y-111115555D01*
X117769064Y-111115555D02*
X117742127Y-111142493D01*
X117742127Y-111142493D02*
X117661314Y-111169430D01*
X117661314Y-111169430D02*
X117607440Y-111169430D01*
X117607440Y-111169430D02*
X117526627Y-111142493D01*
X117526627Y-111142493D02*
X117418878Y-111034743D01*
X117418878Y-111034743D02*
X117338066Y-111007806D01*
X117338066Y-111007806D02*
X117284191Y-111007806D01*
X117284191Y-111007806D02*
X117203379Y-111034743D01*
X117203379Y-111034743D02*
X117095629Y-111142493D01*
X117095629Y-111142493D02*
X117068692Y-111223305D01*
X117068692Y-111223305D02*
X117068692Y-111277180D01*
X117068692Y-111277180D02*
X117095629Y-111357992D01*
X117095629Y-111357992D02*
X117203379Y-111465741D01*
X117203379Y-111465741D02*
X117284191Y-111492679D01*
X117284191Y-111492679D02*
X117338066Y-111492679D01*
X117338066Y-111492679D02*
X117418878Y-111465741D01*
X117418878Y-111465741D02*
X117526627Y-111357992D01*
X117526627Y-111357992D02*
X117553565Y-111277180D01*
X117553565Y-111277180D02*
X117553565Y-111223305D01*
X117553565Y-111223305D02*
X117526627Y-111142493D01*
X93319757Y-83310749D02*
X92942633Y-84064996D01*
X92942633Y-84064996D02*
X93696881Y-83687873D01*
X93319757Y-84388245D02*
X93373632Y-84495995D01*
X93373632Y-84495995D02*
X93508319Y-84630682D01*
X93508319Y-84630682D02*
X93589131Y-84657619D01*
X93589131Y-84657619D02*
X93643006Y-84657619D01*
X93643006Y-84657619D02*
X93723818Y-84630682D01*
X93723818Y-84630682D02*
X93777693Y-84576807D01*
X93777693Y-84576807D02*
X93804630Y-84495995D01*
X93804630Y-84495995D02*
X93804630Y-84442120D01*
X93804630Y-84442120D02*
X93777693Y-84361308D01*
X93777693Y-84361308D02*
X93696881Y-84226621D01*
X93696881Y-84226621D02*
X93669943Y-84145808D01*
X93669943Y-84145808D02*
X93669943Y-84091934D01*
X93669943Y-84091934D02*
X93696881Y-84011121D01*
X93696881Y-84011121D02*
X93750755Y-83957247D01*
X93750755Y-83957247D02*
X93831568Y-83930309D01*
X93831568Y-83930309D02*
X93885442Y-83930309D01*
X93885442Y-83930309D02*
X93966255Y-83957247D01*
X93966255Y-83957247D02*
X94100942Y-84091934D01*
X94100942Y-84091934D02*
X94154816Y-84199683D01*
X94235629Y-84819244D02*
X93966255Y-85088618D01*
X94343378Y-84334370D02*
X94235629Y-84819244D01*
X94235629Y-84819244D02*
X94720502Y-84711494D01*
X94343378Y-85411866D02*
X94397253Y-85519616D01*
X94397253Y-85519616D02*
X94531940Y-85654303D01*
X94531940Y-85654303D02*
X94612752Y-85681240D01*
X94612752Y-85681240D02*
X94666627Y-85681240D01*
X94666627Y-85681240D02*
X94747439Y-85654303D01*
X94747439Y-85654303D02*
X94801314Y-85600428D01*
X94801314Y-85600428D02*
X94828251Y-85519616D01*
X94828251Y-85519616D02*
X94828251Y-85465741D01*
X94828251Y-85465741D02*
X94801314Y-85384929D01*
X94801314Y-85384929D02*
X94720502Y-85250242D01*
X94720502Y-85250242D02*
X94693564Y-85169430D01*
X94693564Y-85169430D02*
X94693564Y-85115555D01*
X94693564Y-85115555D02*
X94720502Y-85034743D01*
X94720502Y-85034743D02*
X94774377Y-84980868D01*
X94774377Y-84980868D02*
X94855189Y-84953930D01*
X94855189Y-84953930D02*
X94909064Y-84953930D01*
X94909064Y-84953930D02*
X94989876Y-84980868D01*
X94989876Y-84980868D02*
X95124563Y-85115555D01*
X95124563Y-85115555D02*
X95178438Y-85223304D01*
X88564819Y-81613333D02*
X89279104Y-81613333D01*
X89279104Y-81613333D02*
X89421961Y-81660952D01*
X89421961Y-81660952D02*
X89517200Y-81756190D01*
X89517200Y-81756190D02*
X89564819Y-81899047D01*
X89564819Y-81899047D02*
X89564819Y-81994285D01*
X88564819Y-80660952D02*
X88564819Y-81137142D01*
X88564819Y-81137142D02*
X89041009Y-81184761D01*
X89041009Y-81184761D02*
X88993390Y-81137142D01*
X88993390Y-81137142D02*
X88945771Y-81041904D01*
X88945771Y-81041904D02*
X88945771Y-80803809D01*
X88945771Y-80803809D02*
X88993390Y-80708571D01*
X88993390Y-80708571D02*
X89041009Y-80660952D01*
X89041009Y-80660952D02*
X89136247Y-80613333D01*
X89136247Y-80613333D02*
X89374342Y-80613333D01*
X89374342Y-80613333D02*
X89469580Y-80660952D01*
X89469580Y-80660952D02*
X89517200Y-80708571D01*
X89517200Y-80708571D02*
X89564819Y-80803809D01*
X89564819Y-80803809D02*
X89564819Y-81041904D01*
X89564819Y-81041904D02*
X89517200Y-81137142D01*
X89517200Y-81137142D02*
X89469580Y-81184761D01*
X115514762Y-66494819D02*
X115514762Y-65494819D01*
X115514762Y-65494819D02*
X115752857Y-65494819D01*
X115752857Y-65494819D02*
X115895714Y-65542438D01*
X115895714Y-65542438D02*
X115990952Y-65637676D01*
X115990952Y-65637676D02*
X116038571Y-65732914D01*
X116038571Y-65732914D02*
X116086190Y-65923390D01*
X116086190Y-65923390D02*
X116086190Y-66066247D01*
X116086190Y-66066247D02*
X116038571Y-66256723D01*
X116038571Y-66256723D02*
X115990952Y-66351961D01*
X115990952Y-66351961D02*
X115895714Y-66447200D01*
X115895714Y-66447200D02*
X115752857Y-66494819D01*
X115752857Y-66494819D02*
X115514762Y-66494819D01*
X116276667Y-66590057D02*
X117038571Y-66590057D01*
X117276667Y-66494819D02*
X117276667Y-65828152D01*
X117276667Y-65923390D02*
X117324286Y-65875771D01*
X117324286Y-65875771D02*
X117419524Y-65828152D01*
X117419524Y-65828152D02*
X117562381Y-65828152D01*
X117562381Y-65828152D02*
X117657619Y-65875771D01*
X117657619Y-65875771D02*
X117705238Y-65971009D01*
X117705238Y-65971009D02*
X117705238Y-66494819D01*
X117705238Y-65971009D02*
X117752857Y-65875771D01*
X117752857Y-65875771D02*
X117848095Y-65828152D01*
X117848095Y-65828152D02*
X117990952Y-65828152D01*
X117990952Y-65828152D02*
X118086191Y-65875771D01*
X118086191Y-65875771D02*
X118133810Y-65971009D01*
X118133810Y-65971009D02*
X118133810Y-66494819D01*
X118990952Y-66447200D02*
X118895714Y-66494819D01*
X118895714Y-66494819D02*
X118705238Y-66494819D01*
X118705238Y-66494819D02*
X118610000Y-66447200D01*
X118610000Y-66447200D02*
X118562381Y-66351961D01*
X118562381Y-66351961D02*
X118562381Y-65971009D01*
X118562381Y-65971009D02*
X118610000Y-65875771D01*
X118610000Y-65875771D02*
X118705238Y-65828152D01*
X118705238Y-65828152D02*
X118895714Y-65828152D01*
X118895714Y-65828152D02*
X118990952Y-65875771D01*
X118990952Y-65875771D02*
X119038571Y-65971009D01*
X119038571Y-65971009D02*
X119038571Y-66066247D01*
X119038571Y-66066247D02*
X118562381Y-66161485D01*
X119895714Y-66494819D02*
X119895714Y-65971009D01*
X119895714Y-65971009D02*
X119848095Y-65875771D01*
X119848095Y-65875771D02*
X119752857Y-65828152D01*
X119752857Y-65828152D02*
X119562381Y-65828152D01*
X119562381Y-65828152D02*
X119467143Y-65875771D01*
X119895714Y-66447200D02*
X119800476Y-66494819D01*
X119800476Y-66494819D02*
X119562381Y-66494819D01*
X119562381Y-66494819D02*
X119467143Y-66447200D01*
X119467143Y-66447200D02*
X119419524Y-66351961D01*
X119419524Y-66351961D02*
X119419524Y-66256723D01*
X119419524Y-66256723D02*
X119467143Y-66161485D01*
X119467143Y-66161485D02*
X119562381Y-66113866D01*
X119562381Y-66113866D02*
X119800476Y-66113866D01*
X119800476Y-66113866D02*
X119895714Y-66066247D01*
X120324286Y-66447200D02*
X120419524Y-66494819D01*
X120419524Y-66494819D02*
X120610000Y-66494819D01*
X120610000Y-66494819D02*
X120705238Y-66447200D01*
X120705238Y-66447200D02*
X120752857Y-66351961D01*
X120752857Y-66351961D02*
X120752857Y-66304342D01*
X120752857Y-66304342D02*
X120705238Y-66209104D01*
X120705238Y-66209104D02*
X120610000Y-66161485D01*
X120610000Y-66161485D02*
X120467143Y-66161485D01*
X120467143Y-66161485D02*
X120371905Y-66113866D01*
X120371905Y-66113866D02*
X120324286Y-66018628D01*
X120324286Y-66018628D02*
X120324286Y-65971009D01*
X120324286Y-65971009D02*
X120371905Y-65875771D01*
X120371905Y-65875771D02*
X120467143Y-65828152D01*
X120467143Y-65828152D02*
X120610000Y-65828152D01*
X120610000Y-65828152D02*
X120705238Y-65875771D01*
X132548333Y-71479580D02*
X132500714Y-71527200D01*
X132500714Y-71527200D02*
X132357857Y-71574819D01*
X132357857Y-71574819D02*
X132262619Y-71574819D01*
X132262619Y-71574819D02*
X132119762Y-71527200D01*
X132119762Y-71527200D02*
X132024524Y-71431961D01*
X132024524Y-71431961D02*
X131976905Y-71336723D01*
X131976905Y-71336723D02*
X131929286Y-71146247D01*
X131929286Y-71146247D02*
X131929286Y-71003390D01*
X131929286Y-71003390D02*
X131976905Y-70812914D01*
X131976905Y-70812914D02*
X132024524Y-70717676D01*
X132024524Y-70717676D02*
X132119762Y-70622438D01*
X132119762Y-70622438D02*
X132262619Y-70574819D01*
X132262619Y-70574819D02*
X132357857Y-70574819D01*
X132357857Y-70574819D02*
X132500714Y-70622438D01*
X132500714Y-70622438D02*
X132548333Y-70670057D01*
X133500714Y-71574819D02*
X132929286Y-71574819D01*
X133215000Y-71574819D02*
X133215000Y-70574819D01*
X133215000Y-70574819D02*
X133119762Y-70717676D01*
X133119762Y-70717676D02*
X133024524Y-70812914D01*
X133024524Y-70812914D02*
X132929286Y-70860533D01*
X120503333Y-142009580D02*
X120455714Y-142057200D01*
X120455714Y-142057200D02*
X120312857Y-142104819D01*
X120312857Y-142104819D02*
X120217619Y-142104819D01*
X120217619Y-142104819D02*
X120074762Y-142057200D01*
X120074762Y-142057200D02*
X119979524Y-141961961D01*
X119979524Y-141961961D02*
X119931905Y-141866723D01*
X119931905Y-141866723D02*
X119884286Y-141676247D01*
X119884286Y-141676247D02*
X119884286Y-141533390D01*
X119884286Y-141533390D02*
X119931905Y-141342914D01*
X119931905Y-141342914D02*
X119979524Y-141247676D01*
X119979524Y-141247676D02*
X120074762Y-141152438D01*
X120074762Y-141152438D02*
X120217619Y-141104819D01*
X120217619Y-141104819D02*
X120312857Y-141104819D01*
X120312857Y-141104819D02*
X120455714Y-141152438D01*
X120455714Y-141152438D02*
X120503333Y-141200057D01*
X120836667Y-141104819D02*
X121455714Y-141104819D01*
X121455714Y-141104819D02*
X121122381Y-141485771D01*
X121122381Y-141485771D02*
X121265238Y-141485771D01*
X121265238Y-141485771D02*
X121360476Y-141533390D01*
X121360476Y-141533390D02*
X121408095Y-141581009D01*
X121408095Y-141581009D02*
X121455714Y-141676247D01*
X121455714Y-141676247D02*
X121455714Y-141914342D01*
X121455714Y-141914342D02*
X121408095Y-142009580D01*
X121408095Y-142009580D02*
X121360476Y-142057200D01*
X121360476Y-142057200D02*
X121265238Y-142104819D01*
X121265238Y-142104819D02*
X120979524Y-142104819D01*
X120979524Y-142104819D02*
X120884286Y-142057200D01*
X120884286Y-142057200D02*
X120836667Y-142009580D01*
X103785057Y-70170238D02*
X103737438Y-70265476D01*
X103737438Y-70265476D02*
X103642200Y-70360714D01*
X103642200Y-70360714D02*
X103499342Y-70503571D01*
X103499342Y-70503571D02*
X103451723Y-70598809D01*
X103451723Y-70598809D02*
X103451723Y-70694047D01*
X103689819Y-70646428D02*
X103642200Y-70741666D01*
X103642200Y-70741666D02*
X103546961Y-70836904D01*
X103546961Y-70836904D02*
X103356485Y-70884523D01*
X103356485Y-70884523D02*
X103023152Y-70884523D01*
X103023152Y-70884523D02*
X102832676Y-70836904D01*
X102832676Y-70836904D02*
X102737438Y-70741666D01*
X102737438Y-70741666D02*
X102689819Y-70646428D01*
X102689819Y-70646428D02*
X102689819Y-70455952D01*
X102689819Y-70455952D02*
X102737438Y-70360714D01*
X102737438Y-70360714D02*
X102832676Y-70265476D01*
X102832676Y-70265476D02*
X103023152Y-70217857D01*
X103023152Y-70217857D02*
X103356485Y-70217857D01*
X103356485Y-70217857D02*
X103546961Y-70265476D01*
X103546961Y-70265476D02*
X103642200Y-70360714D01*
X103642200Y-70360714D02*
X103689819Y-70455952D01*
X103689819Y-70455952D02*
X103689819Y-70646428D01*
X102785057Y-69836904D02*
X102737438Y-69789285D01*
X102737438Y-69789285D02*
X102689819Y-69694047D01*
X102689819Y-69694047D02*
X102689819Y-69455952D01*
X102689819Y-69455952D02*
X102737438Y-69360714D01*
X102737438Y-69360714D02*
X102785057Y-69313095D01*
X102785057Y-69313095D02*
X102880295Y-69265476D01*
X102880295Y-69265476D02*
X102975533Y-69265476D01*
X102975533Y-69265476D02*
X103118390Y-69313095D01*
X103118390Y-69313095D02*
X103689819Y-69884523D01*
X103689819Y-69884523D02*
X103689819Y-69265476D01*
X132691428Y-149371009D02*
X132834285Y-149418628D01*
X132834285Y-149418628D02*
X132881904Y-149466247D01*
X132881904Y-149466247D02*
X132929523Y-149561485D01*
X132929523Y-149561485D02*
X132929523Y-149704342D01*
X132929523Y-149704342D02*
X132881904Y-149799580D01*
X132881904Y-149799580D02*
X132834285Y-149847200D01*
X132834285Y-149847200D02*
X132739047Y-149894819D01*
X132739047Y-149894819D02*
X132358095Y-149894819D01*
X132358095Y-149894819D02*
X132358095Y-148894819D01*
X132358095Y-148894819D02*
X132691428Y-148894819D01*
X132691428Y-148894819D02*
X132786666Y-148942438D01*
X132786666Y-148942438D02*
X132834285Y-148990057D01*
X132834285Y-148990057D02*
X132881904Y-149085295D01*
X132881904Y-149085295D02*
X132881904Y-149180533D01*
X132881904Y-149180533D02*
X132834285Y-149275771D01*
X132834285Y-149275771D02*
X132786666Y-149323390D01*
X132786666Y-149323390D02*
X132691428Y-149371009D01*
X132691428Y-149371009D02*
X132358095Y-149371009D01*
X133786666Y-149228152D02*
X133786666Y-149894819D01*
X133358095Y-149228152D02*
X133358095Y-149751961D01*
X133358095Y-149751961D02*
X133405714Y-149847200D01*
X133405714Y-149847200D02*
X133500952Y-149894819D01*
X133500952Y-149894819D02*
X133643809Y-149894819D01*
X133643809Y-149894819D02*
X133739047Y-149847200D01*
X133739047Y-149847200D02*
X133786666Y-149799580D01*
X134167619Y-149228152D02*
X134691428Y-149228152D01*
X134691428Y-149228152D02*
X134167619Y-149894819D01*
X134167619Y-149894819D02*
X134691428Y-149894819D01*
X134977143Y-149228152D02*
X135500952Y-149228152D01*
X135500952Y-149228152D02*
X134977143Y-149894819D01*
X134977143Y-149894819D02*
X135500952Y-149894819D01*
X136262857Y-149847200D02*
X136167619Y-149894819D01*
X136167619Y-149894819D02*
X135977143Y-149894819D01*
X135977143Y-149894819D02*
X135881905Y-149847200D01*
X135881905Y-149847200D02*
X135834286Y-149751961D01*
X135834286Y-149751961D02*
X135834286Y-149371009D01*
X135834286Y-149371009D02*
X135881905Y-149275771D01*
X135881905Y-149275771D02*
X135977143Y-149228152D01*
X135977143Y-149228152D02*
X136167619Y-149228152D01*
X136167619Y-149228152D02*
X136262857Y-149275771D01*
X136262857Y-149275771D02*
X136310476Y-149371009D01*
X136310476Y-149371009D02*
X136310476Y-149466247D01*
X136310476Y-149466247D02*
X135834286Y-149561485D01*
X136739048Y-149894819D02*
X136739048Y-149228152D01*
X136739048Y-149418628D02*
X136786667Y-149323390D01*
X136786667Y-149323390D02*
X136834286Y-149275771D01*
X136834286Y-149275771D02*
X136929524Y-149228152D01*
X136929524Y-149228152D02*
X137024762Y-149228152D01*
X138049048Y-144853866D02*
X138810953Y-144853866D01*
X138430000Y-145234819D02*
X138430000Y-144472914D01*
X116673333Y-140804819D02*
X116340000Y-140328628D01*
X116101905Y-140804819D02*
X116101905Y-139804819D01*
X116101905Y-139804819D02*
X116482857Y-139804819D01*
X116482857Y-139804819D02*
X116578095Y-139852438D01*
X116578095Y-139852438D02*
X116625714Y-139900057D01*
X116625714Y-139900057D02*
X116673333Y-139995295D01*
X116673333Y-139995295D02*
X116673333Y-140138152D01*
X116673333Y-140138152D02*
X116625714Y-140233390D01*
X116625714Y-140233390D02*
X116578095Y-140281009D01*
X116578095Y-140281009D02*
X116482857Y-140328628D01*
X116482857Y-140328628D02*
X116101905Y-140328628D01*
X117578095Y-139804819D02*
X117101905Y-139804819D01*
X117101905Y-139804819D02*
X117054286Y-140281009D01*
X117054286Y-140281009D02*
X117101905Y-140233390D01*
X117101905Y-140233390D02*
X117197143Y-140185771D01*
X117197143Y-140185771D02*
X117435238Y-140185771D01*
X117435238Y-140185771D02*
X117530476Y-140233390D01*
X117530476Y-140233390D02*
X117578095Y-140281009D01*
X117578095Y-140281009D02*
X117625714Y-140376247D01*
X117625714Y-140376247D02*
X117625714Y-140614342D01*
X117625714Y-140614342D02*
X117578095Y-140709580D01*
X117578095Y-140709580D02*
X117530476Y-140757200D01*
X117530476Y-140757200D02*
X117435238Y-140804819D01*
X117435238Y-140804819D02*
X117197143Y-140804819D01*
X117197143Y-140804819D02*
X117101905Y-140757200D01*
X117101905Y-140757200D02*
X117054286Y-140709580D01*
X116086190Y-60779819D02*
X115752857Y-60303628D01*
X115514762Y-60779819D02*
X115514762Y-59779819D01*
X115514762Y-59779819D02*
X115895714Y-59779819D01*
X115895714Y-59779819D02*
X115990952Y-59827438D01*
X115990952Y-59827438D02*
X116038571Y-59875057D01*
X116038571Y-59875057D02*
X116086190Y-59970295D01*
X116086190Y-59970295D02*
X116086190Y-60113152D01*
X116086190Y-60113152D02*
X116038571Y-60208390D01*
X116038571Y-60208390D02*
X115990952Y-60256009D01*
X115990952Y-60256009D02*
X115895714Y-60303628D01*
X115895714Y-60303628D02*
X115514762Y-60303628D01*
X116276667Y-60875057D02*
X117038571Y-60875057D01*
X117276667Y-60779819D02*
X117276667Y-60113152D01*
X117276667Y-60208390D02*
X117324286Y-60160771D01*
X117324286Y-60160771D02*
X117419524Y-60113152D01*
X117419524Y-60113152D02*
X117562381Y-60113152D01*
X117562381Y-60113152D02*
X117657619Y-60160771D01*
X117657619Y-60160771D02*
X117705238Y-60256009D01*
X117705238Y-60256009D02*
X117705238Y-60779819D01*
X117705238Y-60256009D02*
X117752857Y-60160771D01*
X117752857Y-60160771D02*
X117848095Y-60113152D01*
X117848095Y-60113152D02*
X117990952Y-60113152D01*
X117990952Y-60113152D02*
X118086191Y-60160771D01*
X118086191Y-60160771D02*
X118133810Y-60256009D01*
X118133810Y-60256009D02*
X118133810Y-60779819D01*
X118990952Y-60732200D02*
X118895714Y-60779819D01*
X118895714Y-60779819D02*
X118705238Y-60779819D01*
X118705238Y-60779819D02*
X118610000Y-60732200D01*
X118610000Y-60732200D02*
X118562381Y-60636961D01*
X118562381Y-60636961D02*
X118562381Y-60256009D01*
X118562381Y-60256009D02*
X118610000Y-60160771D01*
X118610000Y-60160771D02*
X118705238Y-60113152D01*
X118705238Y-60113152D02*
X118895714Y-60113152D01*
X118895714Y-60113152D02*
X118990952Y-60160771D01*
X118990952Y-60160771D02*
X119038571Y-60256009D01*
X119038571Y-60256009D02*
X119038571Y-60351247D01*
X119038571Y-60351247D02*
X118562381Y-60446485D01*
X119895714Y-60779819D02*
X119895714Y-60256009D01*
X119895714Y-60256009D02*
X119848095Y-60160771D01*
X119848095Y-60160771D02*
X119752857Y-60113152D01*
X119752857Y-60113152D02*
X119562381Y-60113152D01*
X119562381Y-60113152D02*
X119467143Y-60160771D01*
X119895714Y-60732200D02*
X119800476Y-60779819D01*
X119800476Y-60779819D02*
X119562381Y-60779819D01*
X119562381Y-60779819D02*
X119467143Y-60732200D01*
X119467143Y-60732200D02*
X119419524Y-60636961D01*
X119419524Y-60636961D02*
X119419524Y-60541723D01*
X119419524Y-60541723D02*
X119467143Y-60446485D01*
X119467143Y-60446485D02*
X119562381Y-60398866D01*
X119562381Y-60398866D02*
X119800476Y-60398866D01*
X119800476Y-60398866D02*
X119895714Y-60351247D01*
X120324286Y-60732200D02*
X120419524Y-60779819D01*
X120419524Y-60779819D02*
X120610000Y-60779819D01*
X120610000Y-60779819D02*
X120705238Y-60732200D01*
X120705238Y-60732200D02*
X120752857Y-60636961D01*
X120752857Y-60636961D02*
X120752857Y-60589342D01*
X120752857Y-60589342D02*
X120705238Y-60494104D01*
X120705238Y-60494104D02*
X120610000Y-60446485D01*
X120610000Y-60446485D02*
X120467143Y-60446485D01*
X120467143Y-60446485D02*
X120371905Y-60398866D01*
X120371905Y-60398866D02*
X120324286Y-60303628D01*
X120324286Y-60303628D02*
X120324286Y-60256009D01*
X120324286Y-60256009D02*
X120371905Y-60160771D01*
X120371905Y-60160771D02*
X120467143Y-60113152D01*
X120467143Y-60113152D02*
X120610000Y-60113152D01*
X120610000Y-60113152D02*
X120705238Y-60160771D01*
X105018333Y-63529819D02*
X104685000Y-63053628D01*
X104446905Y-63529819D02*
X104446905Y-62529819D01*
X104446905Y-62529819D02*
X104827857Y-62529819D01*
X104827857Y-62529819D02*
X104923095Y-62577438D01*
X104923095Y-62577438D02*
X104970714Y-62625057D01*
X104970714Y-62625057D02*
X105018333Y-62720295D01*
X105018333Y-62720295D02*
X105018333Y-62863152D01*
X105018333Y-62863152D02*
X104970714Y-62958390D01*
X104970714Y-62958390D02*
X104923095Y-63006009D01*
X104923095Y-63006009D02*
X104827857Y-63053628D01*
X104827857Y-63053628D02*
X104446905Y-63053628D01*
X105970714Y-63529819D02*
X105399286Y-63529819D01*
X105685000Y-63529819D02*
X105685000Y-62529819D01*
X105685000Y-62529819D02*
X105589762Y-62672676D01*
X105589762Y-62672676D02*
X105494524Y-62767914D01*
X105494524Y-62767914D02*
X105399286Y-62815533D01*
X125666667Y-78527200D02*
X125809524Y-78574819D01*
X125809524Y-78574819D02*
X126047619Y-78574819D01*
X126047619Y-78574819D02*
X126142857Y-78527200D01*
X126142857Y-78527200D02*
X126190476Y-78479580D01*
X126190476Y-78479580D02*
X126238095Y-78384342D01*
X126238095Y-78384342D02*
X126238095Y-78289104D01*
X126238095Y-78289104D02*
X126190476Y-78193866D01*
X126190476Y-78193866D02*
X126142857Y-78146247D01*
X126142857Y-78146247D02*
X126047619Y-78098628D01*
X126047619Y-78098628D02*
X125857143Y-78051009D01*
X125857143Y-78051009D02*
X125761905Y-78003390D01*
X125761905Y-78003390D02*
X125714286Y-77955771D01*
X125714286Y-77955771D02*
X125666667Y-77860533D01*
X125666667Y-77860533D02*
X125666667Y-77765295D01*
X125666667Y-77765295D02*
X125714286Y-77670057D01*
X125714286Y-77670057D02*
X125761905Y-77622438D01*
X125761905Y-77622438D02*
X125857143Y-77574819D01*
X125857143Y-77574819D02*
X126095238Y-77574819D01*
X126095238Y-77574819D02*
X126238095Y-77622438D01*
X126571429Y-77574819D02*
X126809524Y-78574819D01*
X126809524Y-78574819D02*
X127000000Y-77860533D01*
X127000000Y-77860533D02*
X127190476Y-78574819D01*
X127190476Y-78574819D02*
X127428572Y-77574819D01*
X128333333Y-78574819D02*
X127761905Y-78574819D01*
X128047619Y-78574819D02*
X128047619Y-77574819D01*
X128047619Y-77574819D02*
X127952381Y-77717676D01*
X127952381Y-77717676D02*
X127857143Y-77812914D01*
X127857143Y-77812914D02*
X127761905Y-77860533D01*
X113117619Y-117294819D02*
X113117619Y-116294819D01*
X113117619Y-116294819D02*
X113355714Y-116294819D01*
X113355714Y-116294819D02*
X113498571Y-116342438D01*
X113498571Y-116342438D02*
X113593809Y-116437676D01*
X113593809Y-116437676D02*
X113641428Y-116532914D01*
X113641428Y-116532914D02*
X113689047Y-116723390D01*
X113689047Y-116723390D02*
X113689047Y-116866247D01*
X113689047Y-116866247D02*
X113641428Y-117056723D01*
X113641428Y-117056723D02*
X113593809Y-117151961D01*
X113593809Y-117151961D02*
X113498571Y-117247200D01*
X113498571Y-117247200D02*
X113355714Y-117294819D01*
X113355714Y-117294819D02*
X113117619Y-117294819D01*
X114117619Y-117294819D02*
X114117619Y-116628152D01*
X114117619Y-116294819D02*
X114070000Y-116342438D01*
X114070000Y-116342438D02*
X114117619Y-116390057D01*
X114117619Y-116390057D02*
X114165238Y-116342438D01*
X114165238Y-116342438D02*
X114117619Y-116294819D01*
X114117619Y-116294819D02*
X114117619Y-116390057D01*
X114546190Y-117247200D02*
X114641428Y-117294819D01*
X114641428Y-117294819D02*
X114831904Y-117294819D01*
X114831904Y-117294819D02*
X114927142Y-117247200D01*
X114927142Y-117247200D02*
X114974761Y-117151961D01*
X114974761Y-117151961D02*
X114974761Y-117104342D01*
X114974761Y-117104342D02*
X114927142Y-117009104D01*
X114927142Y-117009104D02*
X114831904Y-116961485D01*
X114831904Y-116961485D02*
X114689047Y-116961485D01*
X114689047Y-116961485D02*
X114593809Y-116913866D01*
X114593809Y-116913866D02*
X114546190Y-116818628D01*
X114546190Y-116818628D02*
X114546190Y-116771009D01*
X114546190Y-116771009D02*
X114593809Y-116675771D01*
X114593809Y-116675771D02*
X114689047Y-116628152D01*
X114689047Y-116628152D02*
X114831904Y-116628152D01*
X114831904Y-116628152D02*
X114927142Y-116675771D01*
X115403333Y-116628152D02*
X115403333Y-117628152D01*
X115403333Y-116675771D02*
X115498571Y-116628152D01*
X115498571Y-116628152D02*
X115689047Y-116628152D01*
X115689047Y-116628152D02*
X115784285Y-116675771D01*
X115784285Y-116675771D02*
X115831904Y-116723390D01*
X115831904Y-116723390D02*
X115879523Y-116818628D01*
X115879523Y-116818628D02*
X115879523Y-117104342D01*
X115879523Y-117104342D02*
X115831904Y-117199580D01*
X115831904Y-117199580D02*
X115784285Y-117247200D01*
X115784285Y-117247200D02*
X115689047Y-117294819D01*
X115689047Y-117294819D02*
X115498571Y-117294819D01*
X115498571Y-117294819D02*
X115403333Y-117247200D01*
X116450952Y-117294819D02*
X116355714Y-117247200D01*
X116355714Y-117247200D02*
X116308095Y-117151961D01*
X116308095Y-117151961D02*
X116308095Y-116294819D01*
X117260476Y-117294819D02*
X117260476Y-116771009D01*
X117260476Y-116771009D02*
X117212857Y-116675771D01*
X117212857Y-116675771D02*
X117117619Y-116628152D01*
X117117619Y-116628152D02*
X116927143Y-116628152D01*
X116927143Y-116628152D02*
X116831905Y-116675771D01*
X117260476Y-117247200D02*
X117165238Y-117294819D01*
X117165238Y-117294819D02*
X116927143Y-117294819D01*
X116927143Y-117294819D02*
X116831905Y-117247200D01*
X116831905Y-117247200D02*
X116784286Y-117151961D01*
X116784286Y-117151961D02*
X116784286Y-117056723D01*
X116784286Y-117056723D02*
X116831905Y-116961485D01*
X116831905Y-116961485D02*
X116927143Y-116913866D01*
X116927143Y-116913866D02*
X117165238Y-116913866D01*
X117165238Y-116913866D02*
X117260476Y-116866247D01*
X117641429Y-116628152D02*
X117879524Y-117294819D01*
X118117619Y-116628152D02*
X117879524Y-117294819D01*
X117879524Y-117294819D02*
X117784286Y-117532914D01*
X117784286Y-117532914D02*
X117736667Y-117580533D01*
X117736667Y-117580533D02*
X117641429Y-117628152D01*
X112675057Y-70170238D02*
X112627438Y-70265476D01*
X112627438Y-70265476D02*
X112532200Y-70360714D01*
X112532200Y-70360714D02*
X112389342Y-70503571D01*
X112389342Y-70503571D02*
X112341723Y-70598809D01*
X112341723Y-70598809D02*
X112341723Y-70694047D01*
X112579819Y-70646428D02*
X112532200Y-70741666D01*
X112532200Y-70741666D02*
X112436961Y-70836904D01*
X112436961Y-70836904D02*
X112246485Y-70884523D01*
X112246485Y-70884523D02*
X111913152Y-70884523D01*
X111913152Y-70884523D02*
X111722676Y-70836904D01*
X111722676Y-70836904D02*
X111627438Y-70741666D01*
X111627438Y-70741666D02*
X111579819Y-70646428D01*
X111579819Y-70646428D02*
X111579819Y-70455952D01*
X111579819Y-70455952D02*
X111627438Y-70360714D01*
X111627438Y-70360714D02*
X111722676Y-70265476D01*
X111722676Y-70265476D02*
X111913152Y-70217857D01*
X111913152Y-70217857D02*
X112246485Y-70217857D01*
X112246485Y-70217857D02*
X112436961Y-70265476D01*
X112436961Y-70265476D02*
X112532200Y-70360714D01*
X112532200Y-70360714D02*
X112579819Y-70455952D01*
X112579819Y-70455952D02*
X112579819Y-70646428D01*
X111579819Y-69884523D02*
X111579819Y-69265476D01*
X111579819Y-69265476D02*
X111960771Y-69598809D01*
X111960771Y-69598809D02*
X111960771Y-69455952D01*
X111960771Y-69455952D02*
X112008390Y-69360714D01*
X112008390Y-69360714D02*
X112056009Y-69313095D01*
X112056009Y-69313095D02*
X112151247Y-69265476D01*
X112151247Y-69265476D02*
X112389342Y-69265476D01*
X112389342Y-69265476D02*
X112484580Y-69313095D01*
X112484580Y-69313095D02*
X112532200Y-69360714D01*
X112532200Y-69360714D02*
X112579819Y-69455952D01*
X112579819Y-69455952D02*
X112579819Y-69741666D01*
X112579819Y-69741666D02*
X112532200Y-69836904D01*
X112532200Y-69836904D02*
X112484580Y-69884523D01*
X81786009Y-100390714D02*
X81833628Y-100247857D01*
X81833628Y-100247857D02*
X81881247Y-100200238D01*
X81881247Y-100200238D02*
X81976485Y-100152619D01*
X81976485Y-100152619D02*
X82119342Y-100152619D01*
X82119342Y-100152619D02*
X82214580Y-100200238D01*
X82214580Y-100200238D02*
X82262200Y-100247857D01*
X82262200Y-100247857D02*
X82309819Y-100343095D01*
X82309819Y-100343095D02*
X82309819Y-100724047D01*
X82309819Y-100724047D02*
X81309819Y-100724047D01*
X81309819Y-100724047D02*
X81309819Y-100390714D01*
X81309819Y-100390714D02*
X81357438Y-100295476D01*
X81357438Y-100295476D02*
X81405057Y-100247857D01*
X81405057Y-100247857D02*
X81500295Y-100200238D01*
X81500295Y-100200238D02*
X81595533Y-100200238D01*
X81595533Y-100200238D02*
X81690771Y-100247857D01*
X81690771Y-100247857D02*
X81738390Y-100295476D01*
X81738390Y-100295476D02*
X81786009Y-100390714D01*
X81786009Y-100390714D02*
X81786009Y-100724047D01*
X81309819Y-99866904D02*
X81309819Y-99295476D01*
X82309819Y-99581190D02*
X81309819Y-99581190D01*
X82309819Y-98438333D02*
X82309819Y-99009761D01*
X82309819Y-98724047D02*
X81309819Y-98724047D01*
X81309819Y-98724047D02*
X81452676Y-98819285D01*
X81452676Y-98819285D02*
X81547914Y-98914523D01*
X81547914Y-98914523D02*
X81595533Y-99009761D01*
X73847200Y-96337857D02*
X73847200Y-94052143D01*
X74990057Y-95195000D02*
X72704342Y-95195000D01*
D11*
X94675000Y-118050000D02*
X94675000Y-119380000D01*
X93345000Y-118050000D02*
X94675000Y-118050000D01*
X92075000Y-118050000D02*
X81855000Y-118050000D01*
X92075000Y-118050000D02*
X92075000Y-120710000D01*
X81855000Y-118050000D02*
X81855000Y-120710000D01*
X92075000Y-120710000D02*
X81855000Y-120710000D01*
X141030000Y-112970000D02*
X141030000Y-114300000D01*
X139700000Y-112970000D02*
X141030000Y-112970000D01*
X138430000Y-112970000D02*
X90110000Y-112970000D01*
X138430000Y-112970000D02*
X138430000Y-115630000D01*
X90110000Y-112970000D02*
X90110000Y-115630000D01*
X138430000Y-115630000D02*
X90110000Y-115630000D01*
X108280000Y-138430000D02*
X107330000Y-138430000D01*
X107330000Y-139350000D02*
X107330000Y-137510000D01*
X107330000Y-137510000D02*
X103490000Y-137510000D01*
X103490000Y-139350000D02*
X107330000Y-139350000D01*
X103490000Y-137510000D02*
X103490000Y-139350000D01*
X102540000Y-138430000D02*
X103490000Y-138430000D01*
X99775000Y-75155000D02*
X100725000Y-75155000D01*
X100725000Y-74235000D02*
X100725000Y-76075000D01*
X100725000Y-76075000D02*
X104565000Y-76075000D01*
X104565000Y-74235000D02*
X100725000Y-74235000D01*
X104565000Y-76075000D02*
X104565000Y-74235000D01*
X105515000Y-75155000D02*
X104565000Y-75155000D01*
X115015000Y-73660000D02*
X115965000Y-73660000D01*
X115965000Y-72740000D02*
X115965000Y-74580000D01*
X115965000Y-74580000D02*
X119805000Y-74580000D01*
X119805000Y-72740000D02*
X115965000Y-72740000D01*
X119805000Y-74580000D02*
X119805000Y-72740000D01*
X120755000Y-73660000D02*
X119805000Y-73660000D01*
X115220000Y-144130000D02*
X115220000Y-147970000D01*
X113380000Y-144130000D02*
X113380000Y-147970000D01*
X106160000Y-146050000D02*
G75*
G03*
X106160000Y-146050000I-3270000J0D01*
G01*
X79700000Y-91720000D02*
X79700000Y-94880000D01*
X79700000Y-91720000D02*
X80630000Y-91720000D01*
X82860000Y-91720000D02*
X82860000Y-93180000D01*
X82860000Y-91720000D02*
X81930000Y-91720000D01*
X110140000Y-144130000D02*
X110140000Y-147970000D01*
X108300000Y-144130000D02*
X108300000Y-147970000D01*
X90070000Y-108290000D02*
X90370000Y-108290000D01*
X90070000Y-108290000D02*
X90070000Y-87290000D01*
X92470000Y-108290000D02*
X92870000Y-108290000D01*
X92737000Y-108290000D02*
X92737000Y-105283000D01*
X95070000Y-108290000D02*
X95470000Y-108290000D01*
X97570000Y-108290000D02*
X97970000Y-108290000D01*
X100170000Y-108290000D02*
X100570000Y-108290000D01*
X102670000Y-108290000D02*
X103070000Y-108290000D01*
X105170000Y-108290000D02*
X105570000Y-108290000D01*
X107770000Y-108290000D02*
X108170000Y-108290000D01*
X110270000Y-108290000D02*
X110670000Y-108290000D01*
X112870000Y-108290000D02*
X113270000Y-108290000D01*
X115370000Y-108290000D02*
X115770000Y-108290000D01*
X117870000Y-108290000D02*
X118270000Y-108290000D01*
X120470000Y-108290000D02*
X120870000Y-108290000D01*
X122970000Y-108290000D02*
X123370000Y-108290000D01*
X125570000Y-108290000D02*
X125970000Y-108290000D01*
X128070000Y-108290000D02*
X128470000Y-108290000D01*
X130670000Y-108290000D02*
X131070000Y-108290000D01*
X133170000Y-108290000D02*
X133570000Y-108290000D01*
X135670000Y-108290000D02*
X136070000Y-108290000D01*
X138270000Y-108290000D02*
X138670000Y-108290000D01*
X92737000Y-105283000D02*
X90070000Y-105283000D01*
X141070000Y-101490000D02*
X141070000Y-108290000D01*
X141070000Y-99290000D02*
X141070000Y-98890000D01*
X141070000Y-96690000D02*
X141070000Y-96290000D01*
X90070000Y-87290000D02*
X90370000Y-87290000D01*
X92470000Y-87290000D02*
X92870000Y-87290000D01*
X95070000Y-87290000D02*
X95470000Y-87290000D01*
X97570000Y-87290000D02*
X97970000Y-87290000D01*
X100170000Y-87290000D02*
X100570000Y-87290000D01*
X102670000Y-87290000D02*
X103070000Y-87290000D01*
X105170000Y-87290000D02*
X105570000Y-87290000D01*
X107770000Y-87290000D02*
X108170000Y-87290000D01*
X110270000Y-87290000D02*
X110670000Y-87290000D01*
X112870000Y-87290000D02*
X113270000Y-87290000D01*
X115370000Y-87290000D02*
X115770000Y-87290000D01*
X117870000Y-87290000D02*
X118270000Y-87290000D01*
X120470000Y-87290000D02*
X120870000Y-87290000D01*
X122970000Y-87290000D02*
X123370000Y-87290000D01*
X125570000Y-87290000D02*
X125970000Y-87290000D01*
X128070000Y-87290000D02*
X128470000Y-87290000D01*
X130670000Y-87290000D02*
X131070000Y-87290000D01*
X133170000Y-87290000D02*
X133570000Y-87290000D01*
X135670000Y-87290000D02*
X136070000Y-87290000D01*
X138270000Y-87290000D02*
X138670000Y-87290000D01*
X141070000Y-87290000D02*
X141070000Y-94090000D01*
X90110000Y-82610000D02*
X90110000Y-81280000D01*
X91440000Y-82610000D02*
X90110000Y-82610000D01*
X92710000Y-82610000D02*
X141030000Y-82610000D01*
X92710000Y-82610000D02*
X92710000Y-79950000D01*
X141030000Y-82610000D02*
X141030000Y-79950000D01*
X92710000Y-79950000D02*
X141030000Y-79950000D01*
X118110000Y-67250000D02*
X115510000Y-67250000D01*
X118110000Y-67250000D02*
X118110000Y-69910000D01*
X115510000Y-67250000D02*
X115510000Y-69910000D01*
X120710000Y-68580000D02*
X120710000Y-69910000D01*
X120710000Y-69910000D02*
X119380000Y-69910000D01*
X118110000Y-69910000D02*
X115510000Y-69910000D01*
X131520000Y-71120000D02*
G75*
G03*
X131520000Y-71120000I-3270000J0D01*
G01*
X123940000Y-146050000D02*
G75*
G03*
X123940000Y-146050000I-3270000J0D01*
G01*
X96985000Y-68275000D02*
X96985000Y-71875000D01*
X101284999Y-69255000D02*
G75*
G03*
X96993260Y-68263126I-2449999J-820000D01*
G01*
X97007316Y-71883445D02*
G75*
G03*
X101285000Y-70855000I1827684J1808445D01*
G01*
X140720000Y-142240000D02*
G75*
G03*
X140720000Y-142240000I-6100000J0D01*
G01*
X119710000Y-138430000D02*
X118760000Y-138430000D01*
X118760000Y-139350000D02*
X118760000Y-137510000D01*
X118760000Y-137510000D02*
X114920000Y-137510000D01*
X114920000Y-139350000D02*
X118760000Y-139350000D01*
X114920000Y-137510000D02*
X114920000Y-139350000D01*
X113970000Y-138430000D02*
X114920000Y-138430000D01*
X118110000Y-64830000D02*
X120710000Y-64830000D01*
X118110000Y-64830000D02*
X118110000Y-62170000D01*
X120710000Y-64830000D02*
X120710000Y-62170000D01*
X115510000Y-63500000D02*
X115510000Y-62170000D01*
X115510000Y-62170000D02*
X116840000Y-62170000D01*
X118110000Y-62170000D02*
X120710000Y-62170000D01*
X102315000Y-64995000D02*
X103265000Y-64995000D01*
X103265000Y-64075000D02*
X103265000Y-65915000D01*
X103265000Y-65915000D02*
X107105000Y-65915000D01*
X107105000Y-64075000D02*
X103265000Y-64075000D01*
X107105000Y-65915000D02*
X107105000Y-64075000D01*
X108055000Y-64995000D02*
X107105000Y-64995000D01*
X128920000Y-77120000D02*
X125080000Y-77120000D01*
X128920000Y-75280000D02*
X125080000Y-75280000D01*
X120710000Y-118050000D02*
X120710000Y-119380000D01*
X119380000Y-118050000D02*
X120710000Y-118050000D01*
X118110000Y-118050000D02*
X110430000Y-118050000D01*
X118110000Y-118050000D02*
X118110000Y-120710000D01*
X110430000Y-118050000D02*
X110430000Y-120710000D01*
X118110000Y-120710000D02*
X110430000Y-120710000D01*
X105875000Y-68275000D02*
X105875000Y-71875000D01*
X110174999Y-69255000D02*
G75*
G03*
X105883260Y-68263126I-2449999J-820000D01*
G01*
X105897316Y-71883445D02*
G75*
G03*
X110175000Y-70855000I1827684J1808445D01*
G01*
X78160000Y-96605000D02*
X81160000Y-96605000D01*
X81160000Y-96605000D02*
X81160000Y-99605000D01*
X43040000Y-96985000D02*
X43040000Y-149855000D01*
X80780000Y-96985000D02*
X43040000Y-96985000D01*
X80780000Y-96985000D02*
X80780000Y-149855000D01*
X80780000Y-149855000D02*
X43040000Y-149855000D01*
%LPC*%
D12*
X93345000Y-119380000D03*
D13*
X90805000Y-119380000D03*
X88265000Y-119380000D03*
X85725000Y-119380000D03*
X83185000Y-119380000D03*
D12*
X139700000Y-114300000D03*
D13*
X137160000Y-114300000D03*
X134620000Y-114300000D03*
X132080000Y-114300000D03*
X129540000Y-114300000D03*
X127000000Y-114300000D03*
X124460000Y-114300000D03*
X121920000Y-114300000D03*
X119380000Y-114300000D03*
X116840000Y-114300000D03*
X114300000Y-114300000D03*
X111760000Y-114300000D03*
X109220000Y-114300000D03*
X106680000Y-114300000D03*
X104140000Y-114300000D03*
X101600000Y-114300000D03*
X99060000Y-114300000D03*
X96520000Y-114300000D03*
X93980000Y-114300000D03*
X91440000Y-114300000D03*
D14*
X109220000Y-138430000D03*
D15*
X101600000Y-138430000D03*
D14*
X98835000Y-75155000D03*
D15*
X106455000Y-75155000D03*
D14*
X114075000Y-73660000D03*
D15*
X121695000Y-73660000D03*
D14*
X114300000Y-143510000D03*
D15*
X114300000Y-148590000D03*
D16*
X101640000Y-146050000D03*
X104140000Y-146050000D03*
D17*
X80330000Y-93980000D03*
X82230000Y-93980000D03*
X81280000Y-90980000D03*
D14*
X109220000Y-143510000D03*
D15*
X109220000Y-148590000D03*
D18*
X91570000Y-100515000D03*
D19*
X94600000Y-100215000D03*
X94600000Y-95365000D03*
D18*
X91570000Y-95065000D03*
D13*
X91440000Y-106680000D03*
D20*
X91440000Y-107580000D03*
D13*
X93980000Y-106680000D03*
D20*
X93980000Y-107580000D03*
D12*
X96520000Y-106680000D03*
D20*
X96520000Y-107580000D03*
D13*
X99060000Y-106680000D03*
D20*
X99060000Y-107580000D03*
D13*
X101600000Y-106680000D03*
D20*
X101600000Y-107580000D03*
D13*
X104140000Y-106680000D03*
D20*
X104140000Y-107580000D03*
D13*
X106680000Y-106680000D03*
D20*
X106680000Y-107580000D03*
D12*
X109220000Y-106680000D03*
D20*
X109220000Y-107580000D03*
D13*
X111760000Y-106680000D03*
D20*
X111760000Y-107580000D03*
D13*
X114300000Y-106680000D03*
D20*
X114300000Y-107580000D03*
D13*
X116840000Y-106680000D03*
D20*
X116840000Y-107580000D03*
D13*
X119380000Y-106680000D03*
D20*
X119380000Y-107580000D03*
D12*
X121920000Y-106680000D03*
D20*
X121920000Y-107580000D03*
D13*
X124460000Y-106680000D03*
D20*
X124460000Y-107580000D03*
D13*
X127000000Y-106680000D03*
D20*
X127000000Y-107580000D03*
D13*
X129540000Y-106680000D03*
D20*
X129540000Y-107580000D03*
D13*
X132080000Y-106680000D03*
D20*
X132080000Y-107580000D03*
D12*
X134620000Y-106680000D03*
D20*
X134620000Y-107580000D03*
D13*
X137160000Y-106680000D03*
D20*
X137160000Y-107580000D03*
D13*
X139700000Y-106680000D03*
D20*
X139700000Y-107580000D03*
D13*
X139700000Y-88900000D03*
D20*
X139700000Y-88000000D03*
D13*
X137160000Y-88900000D03*
D20*
X137160000Y-88000000D03*
D12*
X134620000Y-88900000D03*
D20*
X134620000Y-88000000D03*
D13*
X132080000Y-88900000D03*
D20*
X132080000Y-88000000D03*
D13*
X129540000Y-88900000D03*
D20*
X129540000Y-88000000D03*
D13*
X127000000Y-88900000D03*
D20*
X127000000Y-88000000D03*
D13*
X124460000Y-88900000D03*
D20*
X124460000Y-88000000D03*
D12*
X121920000Y-88900000D03*
D20*
X121920000Y-88000000D03*
D13*
X119380000Y-88900000D03*
D20*
X119380000Y-88000000D03*
D13*
X116840000Y-88900000D03*
D20*
X116840000Y-88000000D03*
D13*
X114300000Y-88900000D03*
D20*
X114300000Y-88000000D03*
D13*
X111760000Y-88900000D03*
D20*
X111760000Y-88000000D03*
D12*
X109220000Y-88900000D03*
D20*
X109220000Y-88000000D03*
D13*
X106680000Y-88900000D03*
D20*
X106680000Y-88000000D03*
D13*
X104140000Y-88900000D03*
D20*
X104140000Y-88000000D03*
D13*
X101600000Y-88900000D03*
D20*
X101600000Y-88000000D03*
D13*
X99060000Y-88900000D03*
D20*
X99060000Y-88000000D03*
D12*
X96520000Y-88900000D03*
D20*
X96520000Y-88000000D03*
D13*
X93980000Y-88900000D03*
D20*
X93980000Y-88000000D03*
D13*
X91440000Y-88900000D03*
D20*
X91440000Y-88000000D03*
D13*
X121170000Y-97205900D03*
D12*
X121170000Y-94665900D03*
D13*
X121170000Y-92125900D03*
D12*
X91440000Y-81280000D03*
D13*
X93980000Y-81280000D03*
X96520000Y-81280000D03*
X99060000Y-81280000D03*
X101600000Y-81280000D03*
X104140000Y-81280000D03*
X106680000Y-81280000D03*
X109220000Y-81280000D03*
X111760000Y-81280000D03*
X114300000Y-81280000D03*
X116840000Y-81280000D03*
X119380000Y-81280000D03*
X121920000Y-81280000D03*
X124460000Y-81280000D03*
X127000000Y-81280000D03*
X129540000Y-81280000D03*
X132080000Y-81280000D03*
X134620000Y-81280000D03*
X137160000Y-81280000D03*
X139700000Y-81280000D03*
D12*
X119380000Y-68580000D03*
D13*
X116840000Y-68580000D03*
D16*
X129500000Y-71120000D03*
X127000000Y-71120000D03*
X119420000Y-146050000D03*
X121920000Y-146050000D03*
D21*
X98435000Y-68805000D03*
D22*
X100505000Y-70075000D03*
X98435000Y-71345000D03*
D23*
X138420000Y-142240000D03*
D24*
X130820000Y-142240000D03*
D14*
X120650000Y-138430000D03*
D15*
X113030000Y-138430000D03*
D12*
X116840000Y-63500000D03*
D13*
X119380000Y-63500000D03*
D14*
X101375000Y-64995000D03*
D15*
X108995000Y-64995000D03*
D14*
X129540000Y-76200000D03*
D15*
X124460000Y-76200000D03*
D12*
X119380000Y-119380000D03*
D13*
X116840000Y-119380000D03*
X114300000Y-119380000D03*
X111760000Y-119380000D03*
D21*
X107325000Y-68805000D03*
D22*
X109395000Y-70075000D03*
X107325000Y-71345000D03*
D25*
X50160000Y-123415000D03*
X73660000Y-123415000D03*
D26*
X73660000Y-99695000D03*
D27*
X60960000Y-99695000D03*
%LPD*%
M02*
