M48
; DRILL file {KiCad 7.0.7} date Thu Sep 14 12:10:11 2023
; FORMAT={-:-/ absolute / metric / decimal}
; #@! TF.CreationDate,2023-09-14T12:10:11+02:00
; #@! TF.GenerationSoftware,Kicad,Pcbnew,7.0.7
; #@! TF.FileFunction,Plated,1,2,PTH
FMAT,2
METRIC
; #@! TA.AperFunction,Plated,PTH,ComponentDrill
T1C0.700
; #@! TA.AperFunction,Plated,PTH,ComponentDrill
T2C0.750
; #@! TA.AperFunction,Plated,PTH,ComponentDrill
T3C0.800
; #@! TA.AperFunction,Plated,PTH,ComponentDrill
T4C1.000
; #@! TA.AperFunction,Plated,PTH,ComponentDrill
T5C1.020
; #@! TA.AperFunction,Plated,PTH,ComponentDrill
T6C1.100
%
G90
G05
T1
X98.835Y-75.155
X101.375Y-64.995
X101.6Y-138.43
X106.455Y-75.155
X108.995Y-64.995
X109.22Y-138.43
X109.22Y-143.51
X109.22Y-148.59
X113.03Y-138.43
X114.075Y-73.66
X114.3Y-143.51
X114.3Y-148.59
X120.65Y-138.43
X121.695Y-73.66
X124.46Y-76.2
X129.54Y-76.2
T2
X98.835Y-68.805
X98.835Y-71.345
X100.105Y-70.075
X107.725Y-68.805
X107.725Y-71.345
X108.995Y-70.075
T3
X101.64Y-146.05
X104.14Y-146.05
X119.42Y-146.05
X121.92Y-146.05
X127.0Y-71.12
X129.5Y-71.12
T4
X83.185Y-119.38
X85.725Y-119.38
X88.265Y-119.38
X90.805Y-119.38
X91.44Y-81.28
X91.44Y-114.3
X93.345Y-119.38
X93.98Y-81.28
X93.98Y-114.3
X96.52Y-81.28
X96.52Y-114.3
X99.06Y-81.28
X99.06Y-114.3
X101.6Y-81.28
X101.6Y-114.3
X104.14Y-81.28
X104.14Y-114.3
X106.68Y-81.28
X106.68Y-114.3
X109.22Y-81.28
X109.22Y-114.3
X111.76Y-81.28
X111.76Y-114.3
X111.76Y-119.38
X114.3Y-81.28
X114.3Y-114.3
X114.3Y-119.38
X116.84Y-63.5
X116.84Y-68.58
X116.84Y-81.28
X116.84Y-114.3
X116.84Y-119.38
X119.38Y-63.5
X119.38Y-68.58
X119.38Y-81.28
X119.38Y-114.3
X119.38Y-119.38
X121.92Y-81.28
X121.92Y-114.3
X124.46Y-81.28
X124.46Y-114.3
X127.0Y-81.28
X127.0Y-114.3
X129.54Y-81.28
X129.54Y-114.3
X130.82Y-142.24
X132.08Y-81.28
X132.08Y-114.3
X134.62Y-81.28
X134.62Y-114.3
X137.16Y-81.28
X137.16Y-114.3
X138.42Y-142.24
X139.7Y-81.28
X139.7Y-114.3
T5
X91.44Y-88.9
X91.44Y-106.68
X93.98Y-88.9
X93.98Y-106.68
X96.52Y-88.9
X96.52Y-106.68
X99.06Y-88.9
X99.06Y-106.68
X101.6Y-88.9
X101.6Y-106.68
X104.14Y-88.9
X104.14Y-106.68
X106.68Y-88.9
X106.68Y-106.68
X109.22Y-88.9
X109.22Y-106.68
X111.76Y-88.9
X111.76Y-106.68
X114.3Y-88.9
X114.3Y-106.68
X116.84Y-88.9
X116.84Y-106.68
X119.38Y-88.9
X119.38Y-106.68
X121.17Y-92.126
X121.17Y-94.666
X121.17Y-97.206
X121.92Y-88.9
X121.92Y-106.68
X124.46Y-88.9
X124.46Y-106.68
X127.0Y-88.9
X127.0Y-106.68
X129.54Y-88.9
X129.54Y-106.68
X132.08Y-88.9
X132.08Y-106.68
X134.62Y-88.9
X134.62Y-106.68
X137.16Y-88.9
X137.16Y-106.68
X139.7Y-88.9
X139.7Y-106.68
T6
X60.96Y-99.695
X73.66Y-99.695
T0
M30
