G04 #@! TF.GenerationSoftware,KiCad,Pcbnew,7.0.7*
G04 #@! TF.CreationDate,2023-09-14T12:08:29+02:00*
G04 #@! TF.ProjectId,pulsoximeter,70756c73-6f78-4696-9d65-7465722e6b69,rev?*
G04 #@! TF.SameCoordinates,Original*
G04 #@! TF.FileFunction,Soldermask,Top*
G04 #@! TF.FilePolarity,Negative*
%FSLAX46Y46*%
G04 Gerber Fmt 4.6, Leading zero omitted, Abs format (unit mm)*
G04 Created by KiCad (PCBNEW 7.0.7) date 2023-09-14 12:08:29*
%MOMM*%
%LPD*%
G01*
G04 APERTURE LIST*
G04 Aperture macros list*
%AMRoundRect*
0 Rectangle with rounded corners*
0 $1 Rounding radius*
0 $2 $3 $4 $5 $6 $7 $8 $9 X,Y pos of 4 corners*
0 Add a 4 corners polygon primitive as box body*
4,1,4,$2,$3,$4,$5,$6,$7,$8,$9,$2,$3,0*
0 Add four circle primitives for the rounded corners*
1,1,$1+$1,$2,$3*
1,1,$1+$1,$4,$5*
1,1,$1+$1,$6,$7*
1,1,$1+$1,$8,$9*
0 Add four rect primitives between the rounded corners*
20,1,$1+$1,$2,$3,$4,$5,0*
20,1,$1+$1,$4,$5,$6,$7,0*
20,1,$1+$1,$6,$7,$8,$9,0*
20,1,$1+$1,$8,$9,$2,$3,0*%
G04 Aperture macros list end*
%ADD10R,1.700000X1.700000*%
%ADD11O,1.700000X1.700000*%
%ADD12C,1.400000*%
%ADD13O,1.400000X1.400000*%
%ADD14C,1.600000*%
%ADD15R,0.800000X1.900000*%
%ADD16O,1.800000X1.800000*%
%ADD17O,1.500000X1.500000*%
%ADD18R,1.700000X3.500000*%
%ADD19R,1.800000X1.100000*%
%ADD20RoundRect,0.275000X-0.625000X0.275000X-0.625000X-0.275000X0.625000X-0.275000X0.625000X0.275000X0*%
%ADD21R,2.000000X2.000000*%
%ADD22C,2.000000*%
%ADD23C,3.450000*%
%ADD24R,3.000000X3.000000*%
%ADD25C,3.000000*%
G04 APERTURE END LIST*
D10*
X93345000Y-119380000D03*
D11*
X90805000Y-119380000D03*
X88265000Y-119380000D03*
X85725000Y-119380000D03*
X83185000Y-119380000D03*
D10*
X139700000Y-114300000D03*
D11*
X137160000Y-114300000D03*
X134620000Y-114300000D03*
X132080000Y-114300000D03*
X129540000Y-114300000D03*
X127000000Y-114300000D03*
X124460000Y-114300000D03*
X121920000Y-114300000D03*
X119380000Y-114300000D03*
X116840000Y-114300000D03*
X114300000Y-114300000D03*
X111760000Y-114300000D03*
X109220000Y-114300000D03*
X106680000Y-114300000D03*
X104140000Y-114300000D03*
X101600000Y-114300000D03*
X99060000Y-114300000D03*
X96520000Y-114300000D03*
X93980000Y-114300000D03*
X91440000Y-114300000D03*
D12*
X109220000Y-138430000D03*
D13*
X101600000Y-138430000D03*
D12*
X98835000Y-75155000D03*
D13*
X106455000Y-75155000D03*
D12*
X114075000Y-73660000D03*
D13*
X121695000Y-73660000D03*
D12*
X114300000Y-143510000D03*
D13*
X114300000Y-148590000D03*
D14*
X101640000Y-146050000D03*
X104140000Y-146050000D03*
D15*
X80330000Y-93980000D03*
X82230000Y-93980000D03*
X81280000Y-90980000D03*
D12*
X109220000Y-143510000D03*
D13*
X109220000Y-148590000D03*
D16*
X91570000Y-100515000D03*
D17*
X94600000Y-100215000D03*
X94600000Y-95365000D03*
D16*
X91570000Y-95065000D03*
D11*
X91440000Y-106680000D03*
D18*
X91440000Y-107580000D03*
D11*
X93980000Y-106680000D03*
D18*
X93980000Y-107580000D03*
D10*
X96520000Y-106680000D03*
D18*
X96520000Y-107580000D03*
D11*
X99060000Y-106680000D03*
D18*
X99060000Y-107580000D03*
D11*
X101600000Y-106680000D03*
D18*
X101600000Y-107580000D03*
D11*
X104140000Y-106680000D03*
D18*
X104140000Y-107580000D03*
D11*
X106680000Y-106680000D03*
D18*
X106680000Y-107580000D03*
D10*
X109220000Y-106680000D03*
D18*
X109220000Y-107580000D03*
D11*
X111760000Y-106680000D03*
D18*
X111760000Y-107580000D03*
D11*
X114300000Y-106680000D03*
D18*
X114300000Y-107580000D03*
D11*
X116840000Y-106680000D03*
D18*
X116840000Y-107580000D03*
D11*
X119380000Y-106680000D03*
D18*
X119380000Y-107580000D03*
D10*
X121920000Y-106680000D03*
D18*
X121920000Y-107580000D03*
D11*
X124460000Y-106680000D03*
D18*
X124460000Y-107580000D03*
D11*
X127000000Y-106680000D03*
D18*
X127000000Y-107580000D03*
D11*
X129540000Y-106680000D03*
D18*
X129540000Y-107580000D03*
D11*
X132080000Y-106680000D03*
D18*
X132080000Y-107580000D03*
D10*
X134620000Y-106680000D03*
D18*
X134620000Y-107580000D03*
D11*
X137160000Y-106680000D03*
D18*
X137160000Y-107580000D03*
D11*
X139700000Y-106680000D03*
D18*
X139700000Y-107580000D03*
D11*
X139700000Y-88900000D03*
D18*
X139700000Y-88000000D03*
D11*
X137160000Y-88900000D03*
D18*
X137160000Y-88000000D03*
D10*
X134620000Y-88900000D03*
D18*
X134620000Y-88000000D03*
D11*
X132080000Y-88900000D03*
D18*
X132080000Y-88000000D03*
D11*
X129540000Y-88900000D03*
D18*
X129540000Y-88000000D03*
D11*
X127000000Y-88900000D03*
D18*
X127000000Y-88000000D03*
D11*
X124460000Y-88900000D03*
D18*
X124460000Y-88000000D03*
D10*
X121920000Y-88900000D03*
D18*
X121920000Y-88000000D03*
D11*
X119380000Y-88900000D03*
D18*
X119380000Y-88000000D03*
D11*
X116840000Y-88900000D03*
D18*
X116840000Y-88000000D03*
D11*
X114300000Y-88900000D03*
D18*
X114300000Y-88000000D03*
D11*
X111760000Y-88900000D03*
D18*
X111760000Y-88000000D03*
D10*
X109220000Y-88900000D03*
D18*
X109220000Y-88000000D03*
D11*
X106680000Y-88900000D03*
D18*
X106680000Y-88000000D03*
D11*
X104140000Y-88900000D03*
D18*
X104140000Y-88000000D03*
D11*
X101600000Y-88900000D03*
D18*
X101600000Y-88000000D03*
D11*
X99060000Y-88900000D03*
D18*
X99060000Y-88000000D03*
D10*
X96520000Y-88900000D03*
D18*
X96520000Y-88000000D03*
D11*
X93980000Y-88900000D03*
D18*
X93980000Y-88000000D03*
D11*
X91440000Y-88900000D03*
D18*
X91440000Y-88000000D03*
D11*
X121170000Y-97205900D03*
D10*
X121170000Y-94665900D03*
D11*
X121170000Y-92125900D03*
D10*
X91440000Y-81280000D03*
D11*
X93980000Y-81280000D03*
X96520000Y-81280000D03*
X99060000Y-81280000D03*
X101600000Y-81280000D03*
X104140000Y-81280000D03*
X106680000Y-81280000D03*
X109220000Y-81280000D03*
X111760000Y-81280000D03*
X114300000Y-81280000D03*
X116840000Y-81280000D03*
X119380000Y-81280000D03*
X121920000Y-81280000D03*
X124460000Y-81280000D03*
X127000000Y-81280000D03*
X129540000Y-81280000D03*
X132080000Y-81280000D03*
X134620000Y-81280000D03*
X137160000Y-81280000D03*
X139700000Y-81280000D03*
D10*
X119380000Y-68580000D03*
D11*
X116840000Y-68580000D03*
D14*
X129500000Y-71120000D03*
X127000000Y-71120000D03*
X119420000Y-146050000D03*
X121920000Y-146050000D03*
D19*
X98435000Y-68805000D03*
D20*
X100505000Y-70075000D03*
X98435000Y-71345000D03*
D21*
X138420000Y-142240000D03*
D22*
X130820000Y-142240000D03*
D12*
X120650000Y-138430000D03*
D13*
X113030000Y-138430000D03*
D10*
X116840000Y-63500000D03*
D11*
X119380000Y-63500000D03*
D12*
X101375000Y-64995000D03*
D13*
X108995000Y-64995000D03*
D12*
X129540000Y-76200000D03*
D13*
X124460000Y-76200000D03*
D10*
X119380000Y-119380000D03*
D11*
X116840000Y-119380000D03*
X114300000Y-119380000D03*
X111760000Y-119380000D03*
D19*
X107325000Y-68805000D03*
D20*
X109395000Y-70075000D03*
X107325000Y-71345000D03*
D23*
X50160000Y-123415000D03*
X73660000Y-123415000D03*
D24*
X73660000Y-99695000D03*
D25*
X60960000Y-99695000D03*
M02*
