%TF.GenerationSoftware,KiCad,Pcbnew,7.0.7*%
%TF.CreationDate,2023-09-14T12:10:46+02:00*%
%TF.ProjectId,pulsoximeter,70756c73-6f78-4696-9d65-7465722e6b69,rev?*%
%TF.SameCoordinates,Original*%
%TF.FileFunction,Drillmap*%
%TF.FilePolarity,Positive*%
%FSLAX45Y45*%
G04 Gerber Fmt 4.5, Leading zero omitted, Abs format (unit mm)*
G04 Created by KiCad (PCBNEW 7.0.7) date 2023-09-14 12:10:46*
%MOMM*%
%LPD*%
G01*
G04 APERTURE LIST*
%ADD10C,0.100000*%
%ADD11C,0.200000*%
%ADD12C,0.150000*%
%ADD13C,0.180000*%
%ADD14C,0.345000*%
G04 APERTURE END LIST*
D10*
X4224000Y-5080000D02*
X4224000Y-15080000D01*
X14224000Y-15080000D02*
X14224000Y-5080000D01*
X14224000Y-15080000D02*
X4224000Y-15080000D01*
X4224000Y-5080000D02*
X14224000Y-5080000D01*
D11*
D12*
X9385000Y-9461500D02*
X9535000Y-9611500D01*
X9535000Y-9461500D02*
X9385000Y-9611500D01*
X9385000Y-9946500D02*
X9535000Y-10096500D01*
X9535000Y-9946500D02*
X9385000Y-10096500D01*
D13*
X9247000Y-9506500D02*
G75*
G03*
X9247000Y-9506500I-90000J0D01*
G01*
X9247000Y-10051500D02*
G75*
G03*
X9247000Y-10051500I-90000J0D01*
G01*
D14*
X5016000Y-12169000D02*
X5016000Y-12514000D01*
X4843500Y-12341500D02*
X5188500Y-12341500D01*
X7366000Y-12169000D02*
X7366000Y-12514000D01*
X7193500Y-12341500D02*
X7538500Y-12341500D01*
D11*
X4479777Y-15396484D02*
X4479777Y-15196484D01*
X4479777Y-15196484D02*
X4527396Y-15196484D01*
X4527396Y-15196484D02*
X4555967Y-15206008D01*
X4555967Y-15206008D02*
X4575015Y-15225055D01*
X4575015Y-15225055D02*
X4584539Y-15244103D01*
X4584539Y-15244103D02*
X4594063Y-15282198D01*
X4594063Y-15282198D02*
X4594063Y-15310769D01*
X4594063Y-15310769D02*
X4584539Y-15348865D01*
X4584539Y-15348865D02*
X4575015Y-15367912D01*
X4575015Y-15367912D02*
X4555967Y-15386960D01*
X4555967Y-15386960D02*
X4527396Y-15396484D01*
X4527396Y-15396484D02*
X4479777Y-15396484D01*
X4679777Y-15396484D02*
X4679777Y-15263150D01*
X4679777Y-15301246D02*
X4689301Y-15282198D01*
X4689301Y-15282198D02*
X4698824Y-15272674D01*
X4698824Y-15272674D02*
X4717872Y-15263150D01*
X4717872Y-15263150D02*
X4736920Y-15263150D01*
X4803586Y-15396484D02*
X4803586Y-15263150D01*
X4803586Y-15196484D02*
X4794063Y-15206008D01*
X4794063Y-15206008D02*
X4803586Y-15215531D01*
X4803586Y-15215531D02*
X4813110Y-15206008D01*
X4813110Y-15206008D02*
X4803586Y-15196484D01*
X4803586Y-15196484D02*
X4803586Y-15215531D01*
X4927396Y-15396484D02*
X4908348Y-15386960D01*
X4908348Y-15386960D02*
X4898824Y-15367912D01*
X4898824Y-15367912D02*
X4898824Y-15196484D01*
X5032158Y-15396484D02*
X5013110Y-15386960D01*
X5013110Y-15386960D02*
X5003586Y-15367912D01*
X5003586Y-15367912D02*
X5003586Y-15196484D01*
X5260729Y-15396484D02*
X5260729Y-15196484D01*
X5260729Y-15196484D02*
X5327396Y-15339341D01*
X5327396Y-15339341D02*
X5394063Y-15196484D01*
X5394063Y-15196484D02*
X5394063Y-15396484D01*
X5575015Y-15396484D02*
X5575015Y-15291722D01*
X5575015Y-15291722D02*
X5565491Y-15272674D01*
X5565491Y-15272674D02*
X5546444Y-15263150D01*
X5546444Y-15263150D02*
X5508348Y-15263150D01*
X5508348Y-15263150D02*
X5489301Y-15272674D01*
X5575015Y-15386960D02*
X5555967Y-15396484D01*
X5555967Y-15396484D02*
X5508348Y-15396484D01*
X5508348Y-15396484D02*
X5489301Y-15386960D01*
X5489301Y-15386960D02*
X5479777Y-15367912D01*
X5479777Y-15367912D02*
X5479777Y-15348865D01*
X5479777Y-15348865D02*
X5489301Y-15329817D01*
X5489301Y-15329817D02*
X5508348Y-15320293D01*
X5508348Y-15320293D02*
X5555967Y-15320293D01*
X5555967Y-15320293D02*
X5575015Y-15310769D01*
X5670253Y-15263150D02*
X5670253Y-15463150D01*
X5670253Y-15272674D02*
X5689301Y-15263150D01*
X5689301Y-15263150D02*
X5727396Y-15263150D01*
X5727396Y-15263150D02*
X5746443Y-15272674D01*
X5746443Y-15272674D02*
X5755967Y-15282198D01*
X5755967Y-15282198D02*
X5765491Y-15301246D01*
X5765491Y-15301246D02*
X5765491Y-15358388D01*
X5765491Y-15358388D02*
X5755967Y-15377436D01*
X5755967Y-15377436D02*
X5746443Y-15386960D01*
X5746443Y-15386960D02*
X5727396Y-15396484D01*
X5727396Y-15396484D02*
X5689301Y-15396484D01*
X5689301Y-15396484D02*
X5670253Y-15386960D01*
X5851205Y-15377436D02*
X5860729Y-15386960D01*
X5860729Y-15386960D02*
X5851205Y-15396484D01*
X5851205Y-15396484D02*
X5841682Y-15386960D01*
X5841682Y-15386960D02*
X5851205Y-15377436D01*
X5851205Y-15377436D02*
X5851205Y-15396484D01*
X5851205Y-15272674D02*
X5860729Y-15282198D01*
X5860729Y-15282198D02*
X5851205Y-15291722D01*
X5851205Y-15291722D02*
X5841682Y-15282198D01*
X5841682Y-15282198D02*
X5851205Y-15272674D01*
X5851205Y-15272674D02*
X5851205Y-15291722D01*
D12*
X4069000Y-15650000D02*
X4219000Y-15800000D01*
X4219000Y-15650000D02*
X4069000Y-15800000D01*
D11*
X4584539Y-15816484D02*
X4470253Y-15816484D01*
X4527396Y-15816484D02*
X4527396Y-15616484D01*
X4527396Y-15616484D02*
X4508348Y-15645055D01*
X4508348Y-15645055D02*
X4489301Y-15664103D01*
X4489301Y-15664103D02*
X4470253Y-15673627D01*
X4670253Y-15797436D02*
X4679777Y-15806960D01*
X4679777Y-15806960D02*
X4670253Y-15816484D01*
X4670253Y-15816484D02*
X4660729Y-15806960D01*
X4660729Y-15806960D02*
X4670253Y-15797436D01*
X4670253Y-15797436D02*
X4670253Y-15816484D01*
X4860729Y-15616484D02*
X4765491Y-15616484D01*
X4765491Y-15616484D02*
X4755967Y-15711722D01*
X4755967Y-15711722D02*
X4765491Y-15702198D01*
X4765491Y-15702198D02*
X4784539Y-15692674D01*
X4784539Y-15692674D02*
X4832158Y-15692674D01*
X4832158Y-15692674D02*
X4851205Y-15702198D01*
X4851205Y-15702198D02*
X4860729Y-15711722D01*
X4860729Y-15711722D02*
X4870253Y-15730769D01*
X4870253Y-15730769D02*
X4870253Y-15778388D01*
X4870253Y-15778388D02*
X4860729Y-15797436D01*
X4860729Y-15797436D02*
X4851205Y-15806960D01*
X4851205Y-15806960D02*
X4832158Y-15816484D01*
X4832158Y-15816484D02*
X4784539Y-15816484D01*
X4784539Y-15816484D02*
X4765491Y-15806960D01*
X4765491Y-15806960D02*
X4755967Y-15797436D01*
X4994063Y-15616484D02*
X5013110Y-15616484D01*
X5013110Y-15616484D02*
X5032158Y-15626008D01*
X5032158Y-15626008D02*
X5041682Y-15635531D01*
X5041682Y-15635531D02*
X5051205Y-15654579D01*
X5051205Y-15654579D02*
X5060729Y-15692674D01*
X5060729Y-15692674D02*
X5060729Y-15740293D01*
X5060729Y-15740293D02*
X5051205Y-15778388D01*
X5051205Y-15778388D02*
X5041682Y-15797436D01*
X5041682Y-15797436D02*
X5032158Y-15806960D01*
X5032158Y-15806960D02*
X5013110Y-15816484D01*
X5013110Y-15816484D02*
X4994063Y-15816484D01*
X4994063Y-15816484D02*
X4975015Y-15806960D01*
X4975015Y-15806960D02*
X4965491Y-15797436D01*
X4965491Y-15797436D02*
X4955967Y-15778388D01*
X4955967Y-15778388D02*
X4946444Y-15740293D01*
X4946444Y-15740293D02*
X4946444Y-15692674D01*
X4946444Y-15692674D02*
X4955967Y-15654579D01*
X4955967Y-15654579D02*
X4965491Y-15635531D01*
X4965491Y-15635531D02*
X4975015Y-15626008D01*
X4975015Y-15626008D02*
X4994063Y-15616484D01*
X5184539Y-15616484D02*
X5203586Y-15616484D01*
X5203586Y-15616484D02*
X5222634Y-15626008D01*
X5222634Y-15626008D02*
X5232158Y-15635531D01*
X5232158Y-15635531D02*
X5241682Y-15654579D01*
X5241682Y-15654579D02*
X5251205Y-15692674D01*
X5251205Y-15692674D02*
X5251205Y-15740293D01*
X5251205Y-15740293D02*
X5241682Y-15778388D01*
X5241682Y-15778388D02*
X5232158Y-15797436D01*
X5232158Y-15797436D02*
X5222634Y-15806960D01*
X5222634Y-15806960D02*
X5203586Y-15816484D01*
X5203586Y-15816484D02*
X5184539Y-15816484D01*
X5184539Y-15816484D02*
X5165491Y-15806960D01*
X5165491Y-15806960D02*
X5155967Y-15797436D01*
X5155967Y-15797436D02*
X5146444Y-15778388D01*
X5146444Y-15778388D02*
X5136920Y-15740293D01*
X5136920Y-15740293D02*
X5136920Y-15692674D01*
X5136920Y-15692674D02*
X5146444Y-15654579D01*
X5146444Y-15654579D02*
X5155967Y-15635531D01*
X5155967Y-15635531D02*
X5165491Y-15626008D01*
X5165491Y-15626008D02*
X5184539Y-15616484D01*
X5336920Y-15816484D02*
X5336920Y-15683150D01*
X5336920Y-15702198D02*
X5346444Y-15692674D01*
X5346444Y-15692674D02*
X5365491Y-15683150D01*
X5365491Y-15683150D02*
X5394063Y-15683150D01*
X5394063Y-15683150D02*
X5413110Y-15692674D01*
X5413110Y-15692674D02*
X5422634Y-15711722D01*
X5422634Y-15711722D02*
X5422634Y-15816484D01*
X5422634Y-15711722D02*
X5432158Y-15692674D01*
X5432158Y-15692674D02*
X5451205Y-15683150D01*
X5451205Y-15683150D02*
X5479777Y-15683150D01*
X5479777Y-15683150D02*
X5498825Y-15692674D01*
X5498825Y-15692674D02*
X5508348Y-15711722D01*
X5508348Y-15711722D02*
X5508348Y-15816484D01*
X5603586Y-15816484D02*
X5603586Y-15683150D01*
X5603586Y-15702198D02*
X5613110Y-15692674D01*
X5613110Y-15692674D02*
X5632158Y-15683150D01*
X5632158Y-15683150D02*
X5660729Y-15683150D01*
X5660729Y-15683150D02*
X5679777Y-15692674D01*
X5679777Y-15692674D02*
X5689301Y-15711722D01*
X5689301Y-15711722D02*
X5689301Y-15816484D01*
X5689301Y-15711722D02*
X5698824Y-15692674D01*
X5698824Y-15692674D02*
X5717872Y-15683150D01*
X5717872Y-15683150D02*
X5746443Y-15683150D01*
X5746443Y-15683150D02*
X5765491Y-15692674D01*
X5765491Y-15692674D02*
X5775015Y-15711722D01*
X5775015Y-15711722D02*
X5775015Y-15816484D01*
X6165491Y-15606960D02*
X5994063Y-15864103D01*
X6422634Y-15616484D02*
X6441682Y-15616484D01*
X6441682Y-15616484D02*
X6460729Y-15626008D01*
X6460729Y-15626008D02*
X6470253Y-15635531D01*
X6470253Y-15635531D02*
X6479777Y-15654579D01*
X6479777Y-15654579D02*
X6489301Y-15692674D01*
X6489301Y-15692674D02*
X6489301Y-15740293D01*
X6489301Y-15740293D02*
X6479777Y-15778388D01*
X6479777Y-15778388D02*
X6470253Y-15797436D01*
X6470253Y-15797436D02*
X6460729Y-15806960D01*
X6460729Y-15806960D02*
X6441682Y-15816484D01*
X6441682Y-15816484D02*
X6422634Y-15816484D01*
X6422634Y-15816484D02*
X6403586Y-15806960D01*
X6403586Y-15806960D02*
X6394063Y-15797436D01*
X6394063Y-15797436D02*
X6384539Y-15778388D01*
X6384539Y-15778388D02*
X6375015Y-15740293D01*
X6375015Y-15740293D02*
X6375015Y-15692674D01*
X6375015Y-15692674D02*
X6384539Y-15654579D01*
X6384539Y-15654579D02*
X6394063Y-15635531D01*
X6394063Y-15635531D02*
X6403586Y-15626008D01*
X6403586Y-15626008D02*
X6422634Y-15616484D01*
X6575015Y-15797436D02*
X6584539Y-15806960D01*
X6584539Y-15806960D02*
X6575015Y-15816484D01*
X6575015Y-15816484D02*
X6565491Y-15806960D01*
X6565491Y-15806960D02*
X6575015Y-15797436D01*
X6575015Y-15797436D02*
X6575015Y-15816484D01*
X6708348Y-15616484D02*
X6727396Y-15616484D01*
X6727396Y-15616484D02*
X6746444Y-15626008D01*
X6746444Y-15626008D02*
X6755967Y-15635531D01*
X6755967Y-15635531D02*
X6765491Y-15654579D01*
X6765491Y-15654579D02*
X6775015Y-15692674D01*
X6775015Y-15692674D02*
X6775015Y-15740293D01*
X6775015Y-15740293D02*
X6765491Y-15778388D01*
X6765491Y-15778388D02*
X6755967Y-15797436D01*
X6755967Y-15797436D02*
X6746444Y-15806960D01*
X6746444Y-15806960D02*
X6727396Y-15816484D01*
X6727396Y-15816484D02*
X6708348Y-15816484D01*
X6708348Y-15816484D02*
X6689301Y-15806960D01*
X6689301Y-15806960D02*
X6679777Y-15797436D01*
X6679777Y-15797436D02*
X6670253Y-15778388D01*
X6670253Y-15778388D02*
X6660729Y-15740293D01*
X6660729Y-15740293D02*
X6660729Y-15692674D01*
X6660729Y-15692674D02*
X6670253Y-15654579D01*
X6670253Y-15654579D02*
X6679777Y-15635531D01*
X6679777Y-15635531D02*
X6689301Y-15626008D01*
X6689301Y-15626008D02*
X6708348Y-15616484D01*
X6955967Y-15616484D02*
X6860729Y-15616484D01*
X6860729Y-15616484D02*
X6851206Y-15711722D01*
X6851206Y-15711722D02*
X6860729Y-15702198D01*
X6860729Y-15702198D02*
X6879777Y-15692674D01*
X6879777Y-15692674D02*
X6927396Y-15692674D01*
X6927396Y-15692674D02*
X6946444Y-15702198D01*
X6946444Y-15702198D02*
X6955967Y-15711722D01*
X6955967Y-15711722D02*
X6965491Y-15730769D01*
X6965491Y-15730769D02*
X6965491Y-15778388D01*
X6965491Y-15778388D02*
X6955967Y-15797436D01*
X6955967Y-15797436D02*
X6946444Y-15806960D01*
X6946444Y-15806960D02*
X6927396Y-15816484D01*
X6927396Y-15816484D02*
X6879777Y-15816484D01*
X6879777Y-15816484D02*
X6860729Y-15806960D01*
X6860729Y-15806960D02*
X6851206Y-15797436D01*
X7060729Y-15816484D02*
X7098825Y-15816484D01*
X7098825Y-15816484D02*
X7117872Y-15806960D01*
X7117872Y-15806960D02*
X7127396Y-15797436D01*
X7127396Y-15797436D02*
X7146444Y-15768865D01*
X7146444Y-15768865D02*
X7155967Y-15730769D01*
X7155967Y-15730769D02*
X7155967Y-15654579D01*
X7155967Y-15654579D02*
X7146444Y-15635531D01*
X7146444Y-15635531D02*
X7136920Y-15626008D01*
X7136920Y-15626008D02*
X7117872Y-15616484D01*
X7117872Y-15616484D02*
X7079777Y-15616484D01*
X7079777Y-15616484D02*
X7060729Y-15626008D01*
X7060729Y-15626008D02*
X7051206Y-15635531D01*
X7051206Y-15635531D02*
X7041682Y-15654579D01*
X7041682Y-15654579D02*
X7041682Y-15702198D01*
X7041682Y-15702198D02*
X7051206Y-15721246D01*
X7051206Y-15721246D02*
X7060729Y-15730769D01*
X7060729Y-15730769D02*
X7079777Y-15740293D01*
X7079777Y-15740293D02*
X7117872Y-15740293D01*
X7117872Y-15740293D02*
X7136920Y-15730769D01*
X7136920Y-15730769D02*
X7146444Y-15721246D01*
X7146444Y-15721246D02*
X7155967Y-15702198D01*
X7346444Y-15816484D02*
X7232158Y-15816484D01*
X7289301Y-15816484D02*
X7289301Y-15616484D01*
X7289301Y-15616484D02*
X7270253Y-15645055D01*
X7270253Y-15645055D02*
X7251206Y-15664103D01*
X7251206Y-15664103D02*
X7232158Y-15673627D01*
X7422634Y-15616484D02*
X7422634Y-15654579D01*
X7498825Y-15616484D02*
X7498825Y-15654579D01*
X7794063Y-15892674D02*
X7784539Y-15883150D01*
X7784539Y-15883150D02*
X7765491Y-15854579D01*
X7765491Y-15854579D02*
X7755968Y-15835531D01*
X7755968Y-15835531D02*
X7746444Y-15806960D01*
X7746444Y-15806960D02*
X7736920Y-15759341D01*
X7736920Y-15759341D02*
X7736920Y-15721246D01*
X7736920Y-15721246D02*
X7746444Y-15673627D01*
X7746444Y-15673627D02*
X7755968Y-15645055D01*
X7755968Y-15645055D02*
X7765491Y-15626008D01*
X7765491Y-15626008D02*
X7784539Y-15597436D01*
X7784539Y-15597436D02*
X7794063Y-15587912D01*
X7860729Y-15635531D02*
X7870253Y-15626008D01*
X7870253Y-15626008D02*
X7889301Y-15616484D01*
X7889301Y-15616484D02*
X7936920Y-15616484D01*
X7936920Y-15616484D02*
X7955968Y-15626008D01*
X7955968Y-15626008D02*
X7965491Y-15635531D01*
X7965491Y-15635531D02*
X7975015Y-15654579D01*
X7975015Y-15654579D02*
X7975015Y-15673627D01*
X7975015Y-15673627D02*
X7965491Y-15702198D01*
X7965491Y-15702198D02*
X7851206Y-15816484D01*
X7851206Y-15816484D02*
X7975015Y-15816484D01*
X8213110Y-15816484D02*
X8213110Y-15616484D01*
X8298825Y-15816484D02*
X8298825Y-15711722D01*
X8298825Y-15711722D02*
X8289301Y-15692674D01*
X8289301Y-15692674D02*
X8270253Y-15683150D01*
X8270253Y-15683150D02*
X8241682Y-15683150D01*
X8241682Y-15683150D02*
X8222634Y-15692674D01*
X8222634Y-15692674D02*
X8213110Y-15702198D01*
X8422634Y-15816484D02*
X8403587Y-15806960D01*
X8403587Y-15806960D02*
X8394063Y-15797436D01*
X8394063Y-15797436D02*
X8384539Y-15778388D01*
X8384539Y-15778388D02*
X8384539Y-15721246D01*
X8384539Y-15721246D02*
X8394063Y-15702198D01*
X8394063Y-15702198D02*
X8403587Y-15692674D01*
X8403587Y-15692674D02*
X8422634Y-15683150D01*
X8422634Y-15683150D02*
X8451206Y-15683150D01*
X8451206Y-15683150D02*
X8470253Y-15692674D01*
X8470253Y-15692674D02*
X8479777Y-15702198D01*
X8479777Y-15702198D02*
X8489301Y-15721246D01*
X8489301Y-15721246D02*
X8489301Y-15778388D01*
X8489301Y-15778388D02*
X8479777Y-15797436D01*
X8479777Y-15797436D02*
X8470253Y-15806960D01*
X8470253Y-15806960D02*
X8451206Y-15816484D01*
X8451206Y-15816484D02*
X8422634Y-15816484D01*
X8603587Y-15816484D02*
X8584539Y-15806960D01*
X8584539Y-15806960D02*
X8575015Y-15787912D01*
X8575015Y-15787912D02*
X8575015Y-15616484D01*
X8755968Y-15806960D02*
X8736920Y-15816484D01*
X8736920Y-15816484D02*
X8698825Y-15816484D01*
X8698825Y-15816484D02*
X8679777Y-15806960D01*
X8679777Y-15806960D02*
X8670253Y-15787912D01*
X8670253Y-15787912D02*
X8670253Y-15711722D01*
X8670253Y-15711722D02*
X8679777Y-15692674D01*
X8679777Y-15692674D02*
X8698825Y-15683150D01*
X8698825Y-15683150D02*
X8736920Y-15683150D01*
X8736920Y-15683150D02*
X8755968Y-15692674D01*
X8755968Y-15692674D02*
X8765492Y-15711722D01*
X8765492Y-15711722D02*
X8765492Y-15730769D01*
X8765492Y-15730769D02*
X8670253Y-15749817D01*
X8841682Y-15806960D02*
X8860730Y-15816484D01*
X8860730Y-15816484D02*
X8898825Y-15816484D01*
X8898825Y-15816484D02*
X8917873Y-15806960D01*
X8917873Y-15806960D02*
X8927396Y-15787912D01*
X8927396Y-15787912D02*
X8927396Y-15778388D01*
X8927396Y-15778388D02*
X8917873Y-15759341D01*
X8917873Y-15759341D02*
X8898825Y-15749817D01*
X8898825Y-15749817D02*
X8870253Y-15749817D01*
X8870253Y-15749817D02*
X8851206Y-15740293D01*
X8851206Y-15740293D02*
X8841682Y-15721246D01*
X8841682Y-15721246D02*
X8841682Y-15711722D01*
X8841682Y-15711722D02*
X8851206Y-15692674D01*
X8851206Y-15692674D02*
X8870253Y-15683150D01*
X8870253Y-15683150D02*
X8898825Y-15683150D01*
X8898825Y-15683150D02*
X8917873Y-15692674D01*
X8994063Y-15892674D02*
X9003587Y-15883150D01*
X9003587Y-15883150D02*
X9022634Y-15854579D01*
X9022634Y-15854579D02*
X9032158Y-15835531D01*
X9032158Y-15835531D02*
X9041682Y-15806960D01*
X9041682Y-15806960D02*
X9051206Y-15759341D01*
X9051206Y-15759341D02*
X9051206Y-15721246D01*
X9051206Y-15721246D02*
X9041682Y-15673627D01*
X9041682Y-15673627D02*
X9032158Y-15645055D01*
X9032158Y-15645055D02*
X9022634Y-15626008D01*
X9022634Y-15626008D02*
X9003587Y-15597436D01*
X9003587Y-15597436D02*
X8994063Y-15587912D01*
X9355968Y-15892674D02*
X9346444Y-15883150D01*
X9346444Y-15883150D02*
X9327396Y-15854579D01*
X9327396Y-15854579D02*
X9317873Y-15835531D01*
X9317873Y-15835531D02*
X9308349Y-15806960D01*
X9308349Y-15806960D02*
X9298825Y-15759341D01*
X9298825Y-15759341D02*
X9298825Y-15721246D01*
X9298825Y-15721246D02*
X9308349Y-15673627D01*
X9308349Y-15673627D02*
X9317873Y-15645055D01*
X9317873Y-15645055D02*
X9327396Y-15626008D01*
X9327396Y-15626008D02*
X9346444Y-15597436D01*
X9346444Y-15597436D02*
X9355968Y-15587912D01*
X9432158Y-15683150D02*
X9432158Y-15816484D01*
X9432158Y-15702198D02*
X9441682Y-15692674D01*
X9441682Y-15692674D02*
X9460730Y-15683150D01*
X9460730Y-15683150D02*
X9489301Y-15683150D01*
X9489301Y-15683150D02*
X9508349Y-15692674D01*
X9508349Y-15692674D02*
X9517873Y-15711722D01*
X9517873Y-15711722D02*
X9517873Y-15816484D01*
X9641682Y-15816484D02*
X9622634Y-15806960D01*
X9622634Y-15806960D02*
X9613111Y-15797436D01*
X9613111Y-15797436D02*
X9603587Y-15778388D01*
X9603587Y-15778388D02*
X9603587Y-15721246D01*
X9603587Y-15721246D02*
X9613111Y-15702198D01*
X9613111Y-15702198D02*
X9622634Y-15692674D01*
X9622634Y-15692674D02*
X9641682Y-15683150D01*
X9641682Y-15683150D02*
X9670254Y-15683150D01*
X9670254Y-15683150D02*
X9689301Y-15692674D01*
X9689301Y-15692674D02*
X9698825Y-15702198D01*
X9698825Y-15702198D02*
X9708349Y-15721246D01*
X9708349Y-15721246D02*
X9708349Y-15778388D01*
X9708349Y-15778388D02*
X9698825Y-15797436D01*
X9698825Y-15797436D02*
X9689301Y-15806960D01*
X9689301Y-15806960D02*
X9670254Y-15816484D01*
X9670254Y-15816484D02*
X9641682Y-15816484D01*
X9765492Y-15683150D02*
X9841682Y-15683150D01*
X9794063Y-15616484D02*
X9794063Y-15787912D01*
X9794063Y-15787912D02*
X9803587Y-15806960D01*
X9803587Y-15806960D02*
X9822634Y-15816484D01*
X9822634Y-15816484D02*
X9841682Y-15816484D01*
X10060730Y-15683150D02*
X10060730Y-15883150D01*
X10060730Y-15692674D02*
X10079777Y-15683150D01*
X10079777Y-15683150D02*
X10117873Y-15683150D01*
X10117873Y-15683150D02*
X10136920Y-15692674D01*
X10136920Y-15692674D02*
X10146444Y-15702198D01*
X10146444Y-15702198D02*
X10155968Y-15721246D01*
X10155968Y-15721246D02*
X10155968Y-15778388D01*
X10155968Y-15778388D02*
X10146444Y-15797436D01*
X10146444Y-15797436D02*
X10136920Y-15806960D01*
X10136920Y-15806960D02*
X10117873Y-15816484D01*
X10117873Y-15816484D02*
X10079777Y-15816484D01*
X10079777Y-15816484D02*
X10060730Y-15806960D01*
X10270254Y-15816484D02*
X10251206Y-15806960D01*
X10251206Y-15806960D02*
X10241682Y-15787912D01*
X10241682Y-15787912D02*
X10241682Y-15616484D01*
X10432158Y-15816484D02*
X10432158Y-15711722D01*
X10432158Y-15711722D02*
X10422635Y-15692674D01*
X10422635Y-15692674D02*
X10403587Y-15683150D01*
X10403587Y-15683150D02*
X10365492Y-15683150D01*
X10365492Y-15683150D02*
X10346444Y-15692674D01*
X10432158Y-15806960D02*
X10413111Y-15816484D01*
X10413111Y-15816484D02*
X10365492Y-15816484D01*
X10365492Y-15816484D02*
X10346444Y-15806960D01*
X10346444Y-15806960D02*
X10336920Y-15787912D01*
X10336920Y-15787912D02*
X10336920Y-15768865D01*
X10336920Y-15768865D02*
X10346444Y-15749817D01*
X10346444Y-15749817D02*
X10365492Y-15740293D01*
X10365492Y-15740293D02*
X10413111Y-15740293D01*
X10413111Y-15740293D02*
X10432158Y-15730769D01*
X10498825Y-15683150D02*
X10575015Y-15683150D01*
X10527396Y-15616484D02*
X10527396Y-15787912D01*
X10527396Y-15787912D02*
X10536920Y-15806960D01*
X10536920Y-15806960D02*
X10555968Y-15816484D01*
X10555968Y-15816484D02*
X10575015Y-15816484D01*
X10717873Y-15806960D02*
X10698825Y-15816484D01*
X10698825Y-15816484D02*
X10660730Y-15816484D01*
X10660730Y-15816484D02*
X10641682Y-15806960D01*
X10641682Y-15806960D02*
X10632158Y-15787912D01*
X10632158Y-15787912D02*
X10632158Y-15711722D01*
X10632158Y-15711722D02*
X10641682Y-15692674D01*
X10641682Y-15692674D02*
X10660730Y-15683150D01*
X10660730Y-15683150D02*
X10698825Y-15683150D01*
X10698825Y-15683150D02*
X10717873Y-15692674D01*
X10717873Y-15692674D02*
X10727396Y-15711722D01*
X10727396Y-15711722D02*
X10727396Y-15730769D01*
X10727396Y-15730769D02*
X10632158Y-15749817D01*
X10898825Y-15816484D02*
X10898825Y-15616484D01*
X10898825Y-15806960D02*
X10879777Y-15816484D01*
X10879777Y-15816484D02*
X10841682Y-15816484D01*
X10841682Y-15816484D02*
X10822635Y-15806960D01*
X10822635Y-15806960D02*
X10813111Y-15797436D01*
X10813111Y-15797436D02*
X10803587Y-15778388D01*
X10803587Y-15778388D02*
X10803587Y-15721246D01*
X10803587Y-15721246D02*
X10813111Y-15702198D01*
X10813111Y-15702198D02*
X10822635Y-15692674D01*
X10822635Y-15692674D02*
X10841682Y-15683150D01*
X10841682Y-15683150D02*
X10879777Y-15683150D01*
X10879777Y-15683150D02*
X10898825Y-15692674D01*
X10975016Y-15892674D02*
X10984539Y-15883150D01*
X10984539Y-15883150D02*
X11003587Y-15854579D01*
X11003587Y-15854579D02*
X11013111Y-15835531D01*
X11013111Y-15835531D02*
X11022635Y-15806960D01*
X11022635Y-15806960D02*
X11032158Y-15759341D01*
X11032158Y-15759341D02*
X11032158Y-15721246D01*
X11032158Y-15721246D02*
X11022635Y-15673627D01*
X11022635Y-15673627D02*
X11013111Y-15645055D01*
X11013111Y-15645055D02*
X11003587Y-15626008D01*
X11003587Y-15626008D02*
X10984539Y-15597436D01*
X10984539Y-15597436D02*
X10975016Y-15587912D01*
D13*
X4219000Y-15995000D02*
G75*
G03*
X4219000Y-15995000I-90000J0D01*
G01*
D11*
X4584539Y-16086484D02*
X4470253Y-16086484D01*
X4527396Y-16086484D02*
X4527396Y-15886484D01*
X4527396Y-15886484D02*
X4508348Y-15915055D01*
X4508348Y-15915055D02*
X4489301Y-15934103D01*
X4489301Y-15934103D02*
X4470253Y-15943627D01*
X4670253Y-16067436D02*
X4679777Y-16076960D01*
X4679777Y-16076960D02*
X4670253Y-16086484D01*
X4670253Y-16086484D02*
X4660729Y-16076960D01*
X4660729Y-16076960D02*
X4670253Y-16067436D01*
X4670253Y-16067436D02*
X4670253Y-16086484D01*
X4794063Y-15972198D02*
X4775015Y-15962674D01*
X4775015Y-15962674D02*
X4765491Y-15953150D01*
X4765491Y-15953150D02*
X4755967Y-15934103D01*
X4755967Y-15934103D02*
X4755967Y-15924579D01*
X4755967Y-15924579D02*
X4765491Y-15905531D01*
X4765491Y-15905531D02*
X4775015Y-15896008D01*
X4775015Y-15896008D02*
X4794063Y-15886484D01*
X4794063Y-15886484D02*
X4832158Y-15886484D01*
X4832158Y-15886484D02*
X4851205Y-15896008D01*
X4851205Y-15896008D02*
X4860729Y-15905531D01*
X4860729Y-15905531D02*
X4870253Y-15924579D01*
X4870253Y-15924579D02*
X4870253Y-15934103D01*
X4870253Y-15934103D02*
X4860729Y-15953150D01*
X4860729Y-15953150D02*
X4851205Y-15962674D01*
X4851205Y-15962674D02*
X4832158Y-15972198D01*
X4832158Y-15972198D02*
X4794063Y-15972198D01*
X4794063Y-15972198D02*
X4775015Y-15981722D01*
X4775015Y-15981722D02*
X4765491Y-15991246D01*
X4765491Y-15991246D02*
X4755967Y-16010293D01*
X4755967Y-16010293D02*
X4755967Y-16048388D01*
X4755967Y-16048388D02*
X4765491Y-16067436D01*
X4765491Y-16067436D02*
X4775015Y-16076960D01*
X4775015Y-16076960D02*
X4794063Y-16086484D01*
X4794063Y-16086484D02*
X4832158Y-16086484D01*
X4832158Y-16086484D02*
X4851205Y-16076960D01*
X4851205Y-16076960D02*
X4860729Y-16067436D01*
X4860729Y-16067436D02*
X4870253Y-16048388D01*
X4870253Y-16048388D02*
X4870253Y-16010293D01*
X4870253Y-16010293D02*
X4860729Y-15991246D01*
X4860729Y-15991246D02*
X4851205Y-15981722D01*
X4851205Y-15981722D02*
X4832158Y-15972198D01*
X4994063Y-15886484D02*
X5013110Y-15886484D01*
X5013110Y-15886484D02*
X5032158Y-15896008D01*
X5032158Y-15896008D02*
X5041682Y-15905531D01*
X5041682Y-15905531D02*
X5051205Y-15924579D01*
X5051205Y-15924579D02*
X5060729Y-15962674D01*
X5060729Y-15962674D02*
X5060729Y-16010293D01*
X5060729Y-16010293D02*
X5051205Y-16048388D01*
X5051205Y-16048388D02*
X5041682Y-16067436D01*
X5041682Y-16067436D02*
X5032158Y-16076960D01*
X5032158Y-16076960D02*
X5013110Y-16086484D01*
X5013110Y-16086484D02*
X4994063Y-16086484D01*
X4994063Y-16086484D02*
X4975015Y-16076960D01*
X4975015Y-16076960D02*
X4965491Y-16067436D01*
X4965491Y-16067436D02*
X4955967Y-16048388D01*
X4955967Y-16048388D02*
X4946444Y-16010293D01*
X4946444Y-16010293D02*
X4946444Y-15962674D01*
X4946444Y-15962674D02*
X4955967Y-15924579D01*
X4955967Y-15924579D02*
X4965491Y-15905531D01*
X4965491Y-15905531D02*
X4975015Y-15896008D01*
X4975015Y-15896008D02*
X4994063Y-15886484D01*
X5184539Y-15886484D02*
X5203586Y-15886484D01*
X5203586Y-15886484D02*
X5222634Y-15896008D01*
X5222634Y-15896008D02*
X5232158Y-15905531D01*
X5232158Y-15905531D02*
X5241682Y-15924579D01*
X5241682Y-15924579D02*
X5251205Y-15962674D01*
X5251205Y-15962674D02*
X5251205Y-16010293D01*
X5251205Y-16010293D02*
X5241682Y-16048388D01*
X5241682Y-16048388D02*
X5232158Y-16067436D01*
X5232158Y-16067436D02*
X5222634Y-16076960D01*
X5222634Y-16076960D02*
X5203586Y-16086484D01*
X5203586Y-16086484D02*
X5184539Y-16086484D01*
X5184539Y-16086484D02*
X5165491Y-16076960D01*
X5165491Y-16076960D02*
X5155967Y-16067436D01*
X5155967Y-16067436D02*
X5146444Y-16048388D01*
X5146444Y-16048388D02*
X5136920Y-16010293D01*
X5136920Y-16010293D02*
X5136920Y-15962674D01*
X5136920Y-15962674D02*
X5146444Y-15924579D01*
X5146444Y-15924579D02*
X5155967Y-15905531D01*
X5155967Y-15905531D02*
X5165491Y-15896008D01*
X5165491Y-15896008D02*
X5184539Y-15886484D01*
X5336920Y-16086484D02*
X5336920Y-15953150D01*
X5336920Y-15972198D02*
X5346444Y-15962674D01*
X5346444Y-15962674D02*
X5365491Y-15953150D01*
X5365491Y-15953150D02*
X5394063Y-15953150D01*
X5394063Y-15953150D02*
X5413110Y-15962674D01*
X5413110Y-15962674D02*
X5422634Y-15981722D01*
X5422634Y-15981722D02*
X5422634Y-16086484D01*
X5422634Y-15981722D02*
X5432158Y-15962674D01*
X5432158Y-15962674D02*
X5451205Y-15953150D01*
X5451205Y-15953150D02*
X5479777Y-15953150D01*
X5479777Y-15953150D02*
X5498825Y-15962674D01*
X5498825Y-15962674D02*
X5508348Y-15981722D01*
X5508348Y-15981722D02*
X5508348Y-16086484D01*
X5603586Y-16086484D02*
X5603586Y-15953150D01*
X5603586Y-15972198D02*
X5613110Y-15962674D01*
X5613110Y-15962674D02*
X5632158Y-15953150D01*
X5632158Y-15953150D02*
X5660729Y-15953150D01*
X5660729Y-15953150D02*
X5679777Y-15962674D01*
X5679777Y-15962674D02*
X5689301Y-15981722D01*
X5689301Y-15981722D02*
X5689301Y-16086484D01*
X5689301Y-15981722D02*
X5698824Y-15962674D01*
X5698824Y-15962674D02*
X5717872Y-15953150D01*
X5717872Y-15953150D02*
X5746443Y-15953150D01*
X5746443Y-15953150D02*
X5765491Y-15962674D01*
X5765491Y-15962674D02*
X5775015Y-15981722D01*
X5775015Y-15981722D02*
X5775015Y-16086484D01*
X6165491Y-15876960D02*
X5994063Y-16134103D01*
X6422634Y-15886484D02*
X6441682Y-15886484D01*
X6441682Y-15886484D02*
X6460729Y-15896008D01*
X6460729Y-15896008D02*
X6470253Y-15905531D01*
X6470253Y-15905531D02*
X6479777Y-15924579D01*
X6479777Y-15924579D02*
X6489301Y-15962674D01*
X6489301Y-15962674D02*
X6489301Y-16010293D01*
X6489301Y-16010293D02*
X6479777Y-16048388D01*
X6479777Y-16048388D02*
X6470253Y-16067436D01*
X6470253Y-16067436D02*
X6460729Y-16076960D01*
X6460729Y-16076960D02*
X6441682Y-16086484D01*
X6441682Y-16086484D02*
X6422634Y-16086484D01*
X6422634Y-16086484D02*
X6403586Y-16076960D01*
X6403586Y-16076960D02*
X6394063Y-16067436D01*
X6394063Y-16067436D02*
X6384539Y-16048388D01*
X6384539Y-16048388D02*
X6375015Y-16010293D01*
X6375015Y-16010293D02*
X6375015Y-15962674D01*
X6375015Y-15962674D02*
X6384539Y-15924579D01*
X6384539Y-15924579D02*
X6394063Y-15905531D01*
X6394063Y-15905531D02*
X6403586Y-15896008D01*
X6403586Y-15896008D02*
X6422634Y-15886484D01*
X6575015Y-16067436D02*
X6584539Y-16076960D01*
X6584539Y-16076960D02*
X6575015Y-16086484D01*
X6575015Y-16086484D02*
X6565491Y-16076960D01*
X6565491Y-16076960D02*
X6575015Y-16067436D01*
X6575015Y-16067436D02*
X6575015Y-16086484D01*
X6708348Y-15886484D02*
X6727396Y-15886484D01*
X6727396Y-15886484D02*
X6746444Y-15896008D01*
X6746444Y-15896008D02*
X6755967Y-15905531D01*
X6755967Y-15905531D02*
X6765491Y-15924579D01*
X6765491Y-15924579D02*
X6775015Y-15962674D01*
X6775015Y-15962674D02*
X6775015Y-16010293D01*
X6775015Y-16010293D02*
X6765491Y-16048388D01*
X6765491Y-16048388D02*
X6755967Y-16067436D01*
X6755967Y-16067436D02*
X6746444Y-16076960D01*
X6746444Y-16076960D02*
X6727396Y-16086484D01*
X6727396Y-16086484D02*
X6708348Y-16086484D01*
X6708348Y-16086484D02*
X6689301Y-16076960D01*
X6689301Y-16076960D02*
X6679777Y-16067436D01*
X6679777Y-16067436D02*
X6670253Y-16048388D01*
X6670253Y-16048388D02*
X6660729Y-16010293D01*
X6660729Y-16010293D02*
X6660729Y-15962674D01*
X6660729Y-15962674D02*
X6670253Y-15924579D01*
X6670253Y-15924579D02*
X6679777Y-15905531D01*
X6679777Y-15905531D02*
X6689301Y-15896008D01*
X6689301Y-15896008D02*
X6708348Y-15886484D01*
X6841682Y-15886484D02*
X6975015Y-15886484D01*
X6975015Y-15886484D02*
X6889301Y-16086484D01*
X7089301Y-15886484D02*
X7108348Y-15886484D01*
X7108348Y-15886484D02*
X7127396Y-15896008D01*
X7127396Y-15896008D02*
X7136920Y-15905531D01*
X7136920Y-15905531D02*
X7146444Y-15924579D01*
X7146444Y-15924579D02*
X7155967Y-15962674D01*
X7155967Y-15962674D02*
X7155967Y-16010293D01*
X7155967Y-16010293D02*
X7146444Y-16048388D01*
X7146444Y-16048388D02*
X7136920Y-16067436D01*
X7136920Y-16067436D02*
X7127396Y-16076960D01*
X7127396Y-16076960D02*
X7108348Y-16086484D01*
X7108348Y-16086484D02*
X7089301Y-16086484D01*
X7089301Y-16086484D02*
X7070253Y-16076960D01*
X7070253Y-16076960D02*
X7060729Y-16067436D01*
X7060729Y-16067436D02*
X7051206Y-16048388D01*
X7051206Y-16048388D02*
X7041682Y-16010293D01*
X7041682Y-16010293D02*
X7041682Y-15962674D01*
X7041682Y-15962674D02*
X7051206Y-15924579D01*
X7051206Y-15924579D02*
X7060729Y-15905531D01*
X7060729Y-15905531D02*
X7070253Y-15896008D01*
X7070253Y-15896008D02*
X7089301Y-15886484D01*
X7251206Y-16086484D02*
X7289301Y-16086484D01*
X7289301Y-16086484D02*
X7308348Y-16076960D01*
X7308348Y-16076960D02*
X7317872Y-16067436D01*
X7317872Y-16067436D02*
X7336920Y-16038865D01*
X7336920Y-16038865D02*
X7346444Y-16000769D01*
X7346444Y-16000769D02*
X7346444Y-15924579D01*
X7346444Y-15924579D02*
X7336920Y-15905531D01*
X7336920Y-15905531D02*
X7327396Y-15896008D01*
X7327396Y-15896008D02*
X7308348Y-15886484D01*
X7308348Y-15886484D02*
X7270253Y-15886484D01*
X7270253Y-15886484D02*
X7251206Y-15896008D01*
X7251206Y-15896008D02*
X7241682Y-15905531D01*
X7241682Y-15905531D02*
X7232158Y-15924579D01*
X7232158Y-15924579D02*
X7232158Y-15972198D01*
X7232158Y-15972198D02*
X7241682Y-15991246D01*
X7241682Y-15991246D02*
X7251206Y-16000769D01*
X7251206Y-16000769D02*
X7270253Y-16010293D01*
X7270253Y-16010293D02*
X7308348Y-16010293D01*
X7308348Y-16010293D02*
X7327396Y-16000769D01*
X7327396Y-16000769D02*
X7336920Y-15991246D01*
X7336920Y-15991246D02*
X7346444Y-15972198D01*
X7422634Y-15886484D02*
X7422634Y-15924579D01*
X7498825Y-15886484D02*
X7498825Y-15924579D01*
X7794063Y-16162674D02*
X7784539Y-16153150D01*
X7784539Y-16153150D02*
X7765491Y-16124579D01*
X7765491Y-16124579D02*
X7755968Y-16105531D01*
X7755968Y-16105531D02*
X7746444Y-16076960D01*
X7746444Y-16076960D02*
X7736920Y-16029341D01*
X7736920Y-16029341D02*
X7736920Y-15991246D01*
X7736920Y-15991246D02*
X7746444Y-15943627D01*
X7746444Y-15943627D02*
X7755968Y-15915055D01*
X7755968Y-15915055D02*
X7765491Y-15896008D01*
X7765491Y-15896008D02*
X7784539Y-15867436D01*
X7784539Y-15867436D02*
X7794063Y-15857912D01*
X7860729Y-15905531D02*
X7870253Y-15896008D01*
X7870253Y-15896008D02*
X7889301Y-15886484D01*
X7889301Y-15886484D02*
X7936920Y-15886484D01*
X7936920Y-15886484D02*
X7955968Y-15896008D01*
X7955968Y-15896008D02*
X7965491Y-15905531D01*
X7965491Y-15905531D02*
X7975015Y-15924579D01*
X7975015Y-15924579D02*
X7975015Y-15943627D01*
X7975015Y-15943627D02*
X7965491Y-15972198D01*
X7965491Y-15972198D02*
X7851206Y-16086484D01*
X7851206Y-16086484D02*
X7975015Y-16086484D01*
X8213110Y-16086484D02*
X8213110Y-15886484D01*
X8298825Y-16086484D02*
X8298825Y-15981722D01*
X8298825Y-15981722D02*
X8289301Y-15962674D01*
X8289301Y-15962674D02*
X8270253Y-15953150D01*
X8270253Y-15953150D02*
X8241682Y-15953150D01*
X8241682Y-15953150D02*
X8222634Y-15962674D01*
X8222634Y-15962674D02*
X8213110Y-15972198D01*
X8422634Y-16086484D02*
X8403587Y-16076960D01*
X8403587Y-16076960D02*
X8394063Y-16067436D01*
X8394063Y-16067436D02*
X8384539Y-16048388D01*
X8384539Y-16048388D02*
X8384539Y-15991246D01*
X8384539Y-15991246D02*
X8394063Y-15972198D01*
X8394063Y-15972198D02*
X8403587Y-15962674D01*
X8403587Y-15962674D02*
X8422634Y-15953150D01*
X8422634Y-15953150D02*
X8451206Y-15953150D01*
X8451206Y-15953150D02*
X8470253Y-15962674D01*
X8470253Y-15962674D02*
X8479777Y-15972198D01*
X8479777Y-15972198D02*
X8489301Y-15991246D01*
X8489301Y-15991246D02*
X8489301Y-16048388D01*
X8489301Y-16048388D02*
X8479777Y-16067436D01*
X8479777Y-16067436D02*
X8470253Y-16076960D01*
X8470253Y-16076960D02*
X8451206Y-16086484D01*
X8451206Y-16086484D02*
X8422634Y-16086484D01*
X8603587Y-16086484D02*
X8584539Y-16076960D01*
X8584539Y-16076960D02*
X8575015Y-16057912D01*
X8575015Y-16057912D02*
X8575015Y-15886484D01*
X8755968Y-16076960D02*
X8736920Y-16086484D01*
X8736920Y-16086484D02*
X8698825Y-16086484D01*
X8698825Y-16086484D02*
X8679777Y-16076960D01*
X8679777Y-16076960D02*
X8670253Y-16057912D01*
X8670253Y-16057912D02*
X8670253Y-15981722D01*
X8670253Y-15981722D02*
X8679777Y-15962674D01*
X8679777Y-15962674D02*
X8698825Y-15953150D01*
X8698825Y-15953150D02*
X8736920Y-15953150D01*
X8736920Y-15953150D02*
X8755968Y-15962674D01*
X8755968Y-15962674D02*
X8765492Y-15981722D01*
X8765492Y-15981722D02*
X8765492Y-16000769D01*
X8765492Y-16000769D02*
X8670253Y-16019817D01*
X8841682Y-16076960D02*
X8860730Y-16086484D01*
X8860730Y-16086484D02*
X8898825Y-16086484D01*
X8898825Y-16086484D02*
X8917873Y-16076960D01*
X8917873Y-16076960D02*
X8927396Y-16057912D01*
X8927396Y-16057912D02*
X8927396Y-16048388D01*
X8927396Y-16048388D02*
X8917873Y-16029341D01*
X8917873Y-16029341D02*
X8898825Y-16019817D01*
X8898825Y-16019817D02*
X8870253Y-16019817D01*
X8870253Y-16019817D02*
X8851206Y-16010293D01*
X8851206Y-16010293D02*
X8841682Y-15991246D01*
X8841682Y-15991246D02*
X8841682Y-15981722D01*
X8841682Y-15981722D02*
X8851206Y-15962674D01*
X8851206Y-15962674D02*
X8870253Y-15953150D01*
X8870253Y-15953150D02*
X8898825Y-15953150D01*
X8898825Y-15953150D02*
X8917873Y-15962674D01*
X8994063Y-16162674D02*
X9003587Y-16153150D01*
X9003587Y-16153150D02*
X9022634Y-16124579D01*
X9022634Y-16124579D02*
X9032158Y-16105531D01*
X9032158Y-16105531D02*
X9041682Y-16076960D01*
X9041682Y-16076960D02*
X9051206Y-16029341D01*
X9051206Y-16029341D02*
X9051206Y-15991246D01*
X9051206Y-15991246D02*
X9041682Y-15943627D01*
X9041682Y-15943627D02*
X9032158Y-15915055D01*
X9032158Y-15915055D02*
X9022634Y-15896008D01*
X9022634Y-15896008D02*
X9003587Y-15867436D01*
X9003587Y-15867436D02*
X8994063Y-15857912D01*
X9355968Y-16162674D02*
X9346444Y-16153150D01*
X9346444Y-16153150D02*
X9327396Y-16124579D01*
X9327396Y-16124579D02*
X9317873Y-16105531D01*
X9317873Y-16105531D02*
X9308349Y-16076960D01*
X9308349Y-16076960D02*
X9298825Y-16029341D01*
X9298825Y-16029341D02*
X9298825Y-15991246D01*
X9298825Y-15991246D02*
X9308349Y-15943627D01*
X9308349Y-15943627D02*
X9317873Y-15915055D01*
X9317873Y-15915055D02*
X9327396Y-15896008D01*
X9327396Y-15896008D02*
X9346444Y-15867436D01*
X9346444Y-15867436D02*
X9355968Y-15857912D01*
X9432158Y-15953150D02*
X9432158Y-16086484D01*
X9432158Y-15972198D02*
X9441682Y-15962674D01*
X9441682Y-15962674D02*
X9460730Y-15953150D01*
X9460730Y-15953150D02*
X9489301Y-15953150D01*
X9489301Y-15953150D02*
X9508349Y-15962674D01*
X9508349Y-15962674D02*
X9517873Y-15981722D01*
X9517873Y-15981722D02*
X9517873Y-16086484D01*
X9641682Y-16086484D02*
X9622634Y-16076960D01*
X9622634Y-16076960D02*
X9613111Y-16067436D01*
X9613111Y-16067436D02*
X9603587Y-16048388D01*
X9603587Y-16048388D02*
X9603587Y-15991246D01*
X9603587Y-15991246D02*
X9613111Y-15972198D01*
X9613111Y-15972198D02*
X9622634Y-15962674D01*
X9622634Y-15962674D02*
X9641682Y-15953150D01*
X9641682Y-15953150D02*
X9670254Y-15953150D01*
X9670254Y-15953150D02*
X9689301Y-15962674D01*
X9689301Y-15962674D02*
X9698825Y-15972198D01*
X9698825Y-15972198D02*
X9708349Y-15991246D01*
X9708349Y-15991246D02*
X9708349Y-16048388D01*
X9708349Y-16048388D02*
X9698825Y-16067436D01*
X9698825Y-16067436D02*
X9689301Y-16076960D01*
X9689301Y-16076960D02*
X9670254Y-16086484D01*
X9670254Y-16086484D02*
X9641682Y-16086484D01*
X9765492Y-15953150D02*
X9841682Y-15953150D01*
X9794063Y-15886484D02*
X9794063Y-16057912D01*
X9794063Y-16057912D02*
X9803587Y-16076960D01*
X9803587Y-16076960D02*
X9822634Y-16086484D01*
X9822634Y-16086484D02*
X9841682Y-16086484D01*
X10060730Y-15953150D02*
X10060730Y-16153150D01*
X10060730Y-15962674D02*
X10079777Y-15953150D01*
X10079777Y-15953150D02*
X10117873Y-15953150D01*
X10117873Y-15953150D02*
X10136920Y-15962674D01*
X10136920Y-15962674D02*
X10146444Y-15972198D01*
X10146444Y-15972198D02*
X10155968Y-15991246D01*
X10155968Y-15991246D02*
X10155968Y-16048388D01*
X10155968Y-16048388D02*
X10146444Y-16067436D01*
X10146444Y-16067436D02*
X10136920Y-16076960D01*
X10136920Y-16076960D02*
X10117873Y-16086484D01*
X10117873Y-16086484D02*
X10079777Y-16086484D01*
X10079777Y-16086484D02*
X10060730Y-16076960D01*
X10270254Y-16086484D02*
X10251206Y-16076960D01*
X10251206Y-16076960D02*
X10241682Y-16057912D01*
X10241682Y-16057912D02*
X10241682Y-15886484D01*
X10432158Y-16086484D02*
X10432158Y-15981722D01*
X10432158Y-15981722D02*
X10422635Y-15962674D01*
X10422635Y-15962674D02*
X10403587Y-15953150D01*
X10403587Y-15953150D02*
X10365492Y-15953150D01*
X10365492Y-15953150D02*
X10346444Y-15962674D01*
X10432158Y-16076960D02*
X10413111Y-16086484D01*
X10413111Y-16086484D02*
X10365492Y-16086484D01*
X10365492Y-16086484D02*
X10346444Y-16076960D01*
X10346444Y-16076960D02*
X10336920Y-16057912D01*
X10336920Y-16057912D02*
X10336920Y-16038865D01*
X10336920Y-16038865D02*
X10346444Y-16019817D01*
X10346444Y-16019817D02*
X10365492Y-16010293D01*
X10365492Y-16010293D02*
X10413111Y-16010293D01*
X10413111Y-16010293D02*
X10432158Y-16000769D01*
X10498825Y-15953150D02*
X10575015Y-15953150D01*
X10527396Y-15886484D02*
X10527396Y-16057912D01*
X10527396Y-16057912D02*
X10536920Y-16076960D01*
X10536920Y-16076960D02*
X10555968Y-16086484D01*
X10555968Y-16086484D02*
X10575015Y-16086484D01*
X10717873Y-16076960D02*
X10698825Y-16086484D01*
X10698825Y-16086484D02*
X10660730Y-16086484D01*
X10660730Y-16086484D02*
X10641682Y-16076960D01*
X10641682Y-16076960D02*
X10632158Y-16057912D01*
X10632158Y-16057912D02*
X10632158Y-15981722D01*
X10632158Y-15981722D02*
X10641682Y-15962674D01*
X10641682Y-15962674D02*
X10660730Y-15953150D01*
X10660730Y-15953150D02*
X10698825Y-15953150D01*
X10698825Y-15953150D02*
X10717873Y-15962674D01*
X10717873Y-15962674D02*
X10727396Y-15981722D01*
X10727396Y-15981722D02*
X10727396Y-16000769D01*
X10727396Y-16000769D02*
X10632158Y-16019817D01*
X10898825Y-16086484D02*
X10898825Y-15886484D01*
X10898825Y-16076960D02*
X10879777Y-16086484D01*
X10879777Y-16086484D02*
X10841682Y-16086484D01*
X10841682Y-16086484D02*
X10822635Y-16076960D01*
X10822635Y-16076960D02*
X10813111Y-16067436D01*
X10813111Y-16067436D02*
X10803587Y-16048388D01*
X10803587Y-16048388D02*
X10803587Y-15991246D01*
X10803587Y-15991246D02*
X10813111Y-15972198D01*
X10813111Y-15972198D02*
X10822635Y-15962674D01*
X10822635Y-15962674D02*
X10841682Y-15953150D01*
X10841682Y-15953150D02*
X10879777Y-15953150D01*
X10879777Y-15953150D02*
X10898825Y-15962674D01*
X10975016Y-16162674D02*
X10984539Y-16153150D01*
X10984539Y-16153150D02*
X11003587Y-16124579D01*
X11003587Y-16124579D02*
X11013111Y-16105531D01*
X11013111Y-16105531D02*
X11022635Y-16076960D01*
X11022635Y-16076960D02*
X11032158Y-16029341D01*
X11032158Y-16029341D02*
X11032158Y-15991246D01*
X11032158Y-15991246D02*
X11022635Y-15943627D01*
X11022635Y-15943627D02*
X11013111Y-15915055D01*
X11013111Y-15915055D02*
X11003587Y-15896008D01*
X11003587Y-15896008D02*
X10984539Y-15867436D01*
X10984539Y-15867436D02*
X10975016Y-15857912D01*
X4119000Y-16195000D02*
X4119000Y-16395000D01*
X4019000Y-16295000D02*
X4219000Y-16295000D01*
X4460729Y-16186484D02*
X4584539Y-16186484D01*
X4584539Y-16186484D02*
X4517872Y-16262674D01*
X4517872Y-16262674D02*
X4546444Y-16262674D01*
X4546444Y-16262674D02*
X4565491Y-16272198D01*
X4565491Y-16272198D02*
X4575015Y-16281722D01*
X4575015Y-16281722D02*
X4584539Y-16300769D01*
X4584539Y-16300769D02*
X4584539Y-16348388D01*
X4584539Y-16348388D02*
X4575015Y-16367436D01*
X4575015Y-16367436D02*
X4565491Y-16376960D01*
X4565491Y-16376960D02*
X4546444Y-16386484D01*
X4546444Y-16386484D02*
X4489301Y-16386484D01*
X4489301Y-16386484D02*
X4470253Y-16376960D01*
X4470253Y-16376960D02*
X4460729Y-16367436D01*
X4670253Y-16367436D02*
X4679777Y-16376960D01*
X4679777Y-16376960D02*
X4670253Y-16386484D01*
X4670253Y-16386484D02*
X4660729Y-16376960D01*
X4660729Y-16376960D02*
X4670253Y-16367436D01*
X4670253Y-16367436D02*
X4670253Y-16386484D01*
X4851205Y-16253150D02*
X4851205Y-16386484D01*
X4803586Y-16176960D02*
X4755967Y-16319817D01*
X4755967Y-16319817D02*
X4879777Y-16319817D01*
X5051205Y-16186484D02*
X4955967Y-16186484D01*
X4955967Y-16186484D02*
X4946444Y-16281722D01*
X4946444Y-16281722D02*
X4955967Y-16272198D01*
X4955967Y-16272198D02*
X4975015Y-16262674D01*
X4975015Y-16262674D02*
X5022634Y-16262674D01*
X5022634Y-16262674D02*
X5041682Y-16272198D01*
X5041682Y-16272198D02*
X5051205Y-16281722D01*
X5051205Y-16281722D02*
X5060729Y-16300769D01*
X5060729Y-16300769D02*
X5060729Y-16348388D01*
X5060729Y-16348388D02*
X5051205Y-16367436D01*
X5051205Y-16367436D02*
X5041682Y-16376960D01*
X5041682Y-16376960D02*
X5022634Y-16386484D01*
X5022634Y-16386484D02*
X4975015Y-16386484D01*
X4975015Y-16386484D02*
X4955967Y-16376960D01*
X4955967Y-16376960D02*
X4946444Y-16367436D01*
X5184539Y-16186484D02*
X5203586Y-16186484D01*
X5203586Y-16186484D02*
X5222634Y-16196008D01*
X5222634Y-16196008D02*
X5232158Y-16205531D01*
X5232158Y-16205531D02*
X5241682Y-16224579D01*
X5241682Y-16224579D02*
X5251205Y-16262674D01*
X5251205Y-16262674D02*
X5251205Y-16310293D01*
X5251205Y-16310293D02*
X5241682Y-16348388D01*
X5241682Y-16348388D02*
X5232158Y-16367436D01*
X5232158Y-16367436D02*
X5222634Y-16376960D01*
X5222634Y-16376960D02*
X5203586Y-16386484D01*
X5203586Y-16386484D02*
X5184539Y-16386484D01*
X5184539Y-16386484D02*
X5165491Y-16376960D01*
X5165491Y-16376960D02*
X5155967Y-16367436D01*
X5155967Y-16367436D02*
X5146444Y-16348388D01*
X5146444Y-16348388D02*
X5136920Y-16310293D01*
X5136920Y-16310293D02*
X5136920Y-16262674D01*
X5136920Y-16262674D02*
X5146444Y-16224579D01*
X5146444Y-16224579D02*
X5155967Y-16205531D01*
X5155967Y-16205531D02*
X5165491Y-16196008D01*
X5165491Y-16196008D02*
X5184539Y-16186484D01*
X5336920Y-16386484D02*
X5336920Y-16253150D01*
X5336920Y-16272198D02*
X5346444Y-16262674D01*
X5346444Y-16262674D02*
X5365491Y-16253150D01*
X5365491Y-16253150D02*
X5394063Y-16253150D01*
X5394063Y-16253150D02*
X5413110Y-16262674D01*
X5413110Y-16262674D02*
X5422634Y-16281722D01*
X5422634Y-16281722D02*
X5422634Y-16386484D01*
X5422634Y-16281722D02*
X5432158Y-16262674D01*
X5432158Y-16262674D02*
X5451205Y-16253150D01*
X5451205Y-16253150D02*
X5479777Y-16253150D01*
X5479777Y-16253150D02*
X5498825Y-16262674D01*
X5498825Y-16262674D02*
X5508348Y-16281722D01*
X5508348Y-16281722D02*
X5508348Y-16386484D01*
X5603586Y-16386484D02*
X5603586Y-16253150D01*
X5603586Y-16272198D02*
X5613110Y-16262674D01*
X5613110Y-16262674D02*
X5632158Y-16253150D01*
X5632158Y-16253150D02*
X5660729Y-16253150D01*
X5660729Y-16253150D02*
X5679777Y-16262674D01*
X5679777Y-16262674D02*
X5689301Y-16281722D01*
X5689301Y-16281722D02*
X5689301Y-16386484D01*
X5689301Y-16281722D02*
X5698824Y-16262674D01*
X5698824Y-16262674D02*
X5717872Y-16253150D01*
X5717872Y-16253150D02*
X5746443Y-16253150D01*
X5746443Y-16253150D02*
X5765491Y-16262674D01*
X5765491Y-16262674D02*
X5775015Y-16281722D01*
X5775015Y-16281722D02*
X5775015Y-16386484D01*
X6165491Y-16176960D02*
X5994063Y-16434103D01*
X6422634Y-16186484D02*
X6441682Y-16186484D01*
X6441682Y-16186484D02*
X6460729Y-16196008D01*
X6460729Y-16196008D02*
X6470253Y-16205531D01*
X6470253Y-16205531D02*
X6479777Y-16224579D01*
X6479777Y-16224579D02*
X6489301Y-16262674D01*
X6489301Y-16262674D02*
X6489301Y-16310293D01*
X6489301Y-16310293D02*
X6479777Y-16348388D01*
X6479777Y-16348388D02*
X6470253Y-16367436D01*
X6470253Y-16367436D02*
X6460729Y-16376960D01*
X6460729Y-16376960D02*
X6441682Y-16386484D01*
X6441682Y-16386484D02*
X6422634Y-16386484D01*
X6422634Y-16386484D02*
X6403586Y-16376960D01*
X6403586Y-16376960D02*
X6394063Y-16367436D01*
X6394063Y-16367436D02*
X6384539Y-16348388D01*
X6384539Y-16348388D02*
X6375015Y-16310293D01*
X6375015Y-16310293D02*
X6375015Y-16262674D01*
X6375015Y-16262674D02*
X6384539Y-16224579D01*
X6384539Y-16224579D02*
X6394063Y-16205531D01*
X6394063Y-16205531D02*
X6403586Y-16196008D01*
X6403586Y-16196008D02*
X6422634Y-16186484D01*
X6575015Y-16367436D02*
X6584539Y-16376960D01*
X6584539Y-16376960D02*
X6575015Y-16386484D01*
X6575015Y-16386484D02*
X6565491Y-16376960D01*
X6565491Y-16376960D02*
X6575015Y-16367436D01*
X6575015Y-16367436D02*
X6575015Y-16386484D01*
X6775015Y-16386484D02*
X6660729Y-16386484D01*
X6717872Y-16386484D02*
X6717872Y-16186484D01*
X6717872Y-16186484D02*
X6698825Y-16215055D01*
X6698825Y-16215055D02*
X6679777Y-16234103D01*
X6679777Y-16234103D02*
X6660729Y-16243627D01*
X6841682Y-16186484D02*
X6965491Y-16186484D01*
X6965491Y-16186484D02*
X6898825Y-16262674D01*
X6898825Y-16262674D02*
X6927396Y-16262674D01*
X6927396Y-16262674D02*
X6946444Y-16272198D01*
X6946444Y-16272198D02*
X6955967Y-16281722D01*
X6955967Y-16281722D02*
X6965491Y-16300769D01*
X6965491Y-16300769D02*
X6965491Y-16348388D01*
X6965491Y-16348388D02*
X6955967Y-16367436D01*
X6955967Y-16367436D02*
X6946444Y-16376960D01*
X6946444Y-16376960D02*
X6927396Y-16386484D01*
X6927396Y-16386484D02*
X6870253Y-16386484D01*
X6870253Y-16386484D02*
X6851206Y-16376960D01*
X6851206Y-16376960D02*
X6841682Y-16367436D01*
X7146444Y-16186484D02*
X7051206Y-16186484D01*
X7051206Y-16186484D02*
X7041682Y-16281722D01*
X7041682Y-16281722D02*
X7051206Y-16272198D01*
X7051206Y-16272198D02*
X7070253Y-16262674D01*
X7070253Y-16262674D02*
X7117872Y-16262674D01*
X7117872Y-16262674D02*
X7136920Y-16272198D01*
X7136920Y-16272198D02*
X7146444Y-16281722D01*
X7146444Y-16281722D02*
X7155967Y-16300769D01*
X7155967Y-16300769D02*
X7155967Y-16348388D01*
X7155967Y-16348388D02*
X7146444Y-16367436D01*
X7146444Y-16367436D02*
X7136920Y-16376960D01*
X7136920Y-16376960D02*
X7117872Y-16386484D01*
X7117872Y-16386484D02*
X7070253Y-16386484D01*
X7070253Y-16386484D02*
X7051206Y-16376960D01*
X7051206Y-16376960D02*
X7041682Y-16367436D01*
X7270253Y-16272198D02*
X7251206Y-16262674D01*
X7251206Y-16262674D02*
X7241682Y-16253150D01*
X7241682Y-16253150D02*
X7232158Y-16234103D01*
X7232158Y-16234103D02*
X7232158Y-16224579D01*
X7232158Y-16224579D02*
X7241682Y-16205531D01*
X7241682Y-16205531D02*
X7251206Y-16196008D01*
X7251206Y-16196008D02*
X7270253Y-16186484D01*
X7270253Y-16186484D02*
X7308348Y-16186484D01*
X7308348Y-16186484D02*
X7327396Y-16196008D01*
X7327396Y-16196008D02*
X7336920Y-16205531D01*
X7336920Y-16205531D02*
X7346444Y-16224579D01*
X7346444Y-16224579D02*
X7346444Y-16234103D01*
X7346444Y-16234103D02*
X7336920Y-16253150D01*
X7336920Y-16253150D02*
X7327396Y-16262674D01*
X7327396Y-16262674D02*
X7308348Y-16272198D01*
X7308348Y-16272198D02*
X7270253Y-16272198D01*
X7270253Y-16272198D02*
X7251206Y-16281722D01*
X7251206Y-16281722D02*
X7241682Y-16291246D01*
X7241682Y-16291246D02*
X7232158Y-16310293D01*
X7232158Y-16310293D02*
X7232158Y-16348388D01*
X7232158Y-16348388D02*
X7241682Y-16367436D01*
X7241682Y-16367436D02*
X7251206Y-16376960D01*
X7251206Y-16376960D02*
X7270253Y-16386484D01*
X7270253Y-16386484D02*
X7308348Y-16386484D01*
X7308348Y-16386484D02*
X7327396Y-16376960D01*
X7327396Y-16376960D02*
X7336920Y-16367436D01*
X7336920Y-16367436D02*
X7346444Y-16348388D01*
X7346444Y-16348388D02*
X7346444Y-16310293D01*
X7346444Y-16310293D02*
X7336920Y-16291246D01*
X7336920Y-16291246D02*
X7327396Y-16281722D01*
X7327396Y-16281722D02*
X7308348Y-16272198D01*
X7422634Y-16186484D02*
X7422634Y-16224579D01*
X7498825Y-16186484D02*
X7498825Y-16224579D01*
X7794063Y-16462674D02*
X7784539Y-16453150D01*
X7784539Y-16453150D02*
X7765491Y-16424579D01*
X7765491Y-16424579D02*
X7755968Y-16405531D01*
X7755968Y-16405531D02*
X7746444Y-16376960D01*
X7746444Y-16376960D02*
X7736920Y-16329341D01*
X7736920Y-16329341D02*
X7736920Y-16291246D01*
X7736920Y-16291246D02*
X7746444Y-16243627D01*
X7746444Y-16243627D02*
X7755968Y-16215055D01*
X7755968Y-16215055D02*
X7765491Y-16196008D01*
X7765491Y-16196008D02*
X7784539Y-16167436D01*
X7784539Y-16167436D02*
X7794063Y-16157912D01*
X7860729Y-16205531D02*
X7870253Y-16196008D01*
X7870253Y-16196008D02*
X7889301Y-16186484D01*
X7889301Y-16186484D02*
X7936920Y-16186484D01*
X7936920Y-16186484D02*
X7955968Y-16196008D01*
X7955968Y-16196008D02*
X7965491Y-16205531D01*
X7965491Y-16205531D02*
X7975015Y-16224579D01*
X7975015Y-16224579D02*
X7975015Y-16243627D01*
X7975015Y-16243627D02*
X7965491Y-16272198D01*
X7965491Y-16272198D02*
X7851206Y-16386484D01*
X7851206Y-16386484D02*
X7975015Y-16386484D01*
X8213110Y-16386484D02*
X8213110Y-16186484D01*
X8298825Y-16386484D02*
X8298825Y-16281722D01*
X8298825Y-16281722D02*
X8289301Y-16262674D01*
X8289301Y-16262674D02*
X8270253Y-16253150D01*
X8270253Y-16253150D02*
X8241682Y-16253150D01*
X8241682Y-16253150D02*
X8222634Y-16262674D01*
X8222634Y-16262674D02*
X8213110Y-16272198D01*
X8422634Y-16386484D02*
X8403587Y-16376960D01*
X8403587Y-16376960D02*
X8394063Y-16367436D01*
X8394063Y-16367436D02*
X8384539Y-16348388D01*
X8384539Y-16348388D02*
X8384539Y-16291246D01*
X8384539Y-16291246D02*
X8394063Y-16272198D01*
X8394063Y-16272198D02*
X8403587Y-16262674D01*
X8403587Y-16262674D02*
X8422634Y-16253150D01*
X8422634Y-16253150D02*
X8451206Y-16253150D01*
X8451206Y-16253150D02*
X8470253Y-16262674D01*
X8470253Y-16262674D02*
X8479777Y-16272198D01*
X8479777Y-16272198D02*
X8489301Y-16291246D01*
X8489301Y-16291246D02*
X8489301Y-16348388D01*
X8489301Y-16348388D02*
X8479777Y-16367436D01*
X8479777Y-16367436D02*
X8470253Y-16376960D01*
X8470253Y-16376960D02*
X8451206Y-16386484D01*
X8451206Y-16386484D02*
X8422634Y-16386484D01*
X8603587Y-16386484D02*
X8584539Y-16376960D01*
X8584539Y-16376960D02*
X8575015Y-16357912D01*
X8575015Y-16357912D02*
X8575015Y-16186484D01*
X8755968Y-16376960D02*
X8736920Y-16386484D01*
X8736920Y-16386484D02*
X8698825Y-16386484D01*
X8698825Y-16386484D02*
X8679777Y-16376960D01*
X8679777Y-16376960D02*
X8670253Y-16357912D01*
X8670253Y-16357912D02*
X8670253Y-16281722D01*
X8670253Y-16281722D02*
X8679777Y-16262674D01*
X8679777Y-16262674D02*
X8698825Y-16253150D01*
X8698825Y-16253150D02*
X8736920Y-16253150D01*
X8736920Y-16253150D02*
X8755968Y-16262674D01*
X8755968Y-16262674D02*
X8765492Y-16281722D01*
X8765492Y-16281722D02*
X8765492Y-16300769D01*
X8765492Y-16300769D02*
X8670253Y-16319817D01*
X8841682Y-16376960D02*
X8860730Y-16386484D01*
X8860730Y-16386484D02*
X8898825Y-16386484D01*
X8898825Y-16386484D02*
X8917873Y-16376960D01*
X8917873Y-16376960D02*
X8927396Y-16357912D01*
X8927396Y-16357912D02*
X8927396Y-16348388D01*
X8927396Y-16348388D02*
X8917873Y-16329341D01*
X8917873Y-16329341D02*
X8898825Y-16319817D01*
X8898825Y-16319817D02*
X8870253Y-16319817D01*
X8870253Y-16319817D02*
X8851206Y-16310293D01*
X8851206Y-16310293D02*
X8841682Y-16291246D01*
X8841682Y-16291246D02*
X8841682Y-16281722D01*
X8841682Y-16281722D02*
X8851206Y-16262674D01*
X8851206Y-16262674D02*
X8870253Y-16253150D01*
X8870253Y-16253150D02*
X8898825Y-16253150D01*
X8898825Y-16253150D02*
X8917873Y-16262674D01*
X8994063Y-16462674D02*
X9003587Y-16453150D01*
X9003587Y-16453150D02*
X9022634Y-16424579D01*
X9022634Y-16424579D02*
X9032158Y-16405531D01*
X9032158Y-16405531D02*
X9041682Y-16376960D01*
X9041682Y-16376960D02*
X9051206Y-16329341D01*
X9051206Y-16329341D02*
X9051206Y-16291246D01*
X9051206Y-16291246D02*
X9041682Y-16243627D01*
X9041682Y-16243627D02*
X9032158Y-16215055D01*
X9032158Y-16215055D02*
X9022634Y-16196008D01*
X9022634Y-16196008D02*
X9003587Y-16167436D01*
X9003587Y-16167436D02*
X8994063Y-16157912D01*
X9355968Y-16462674D02*
X9346444Y-16453150D01*
X9346444Y-16453150D02*
X9327396Y-16424579D01*
X9327396Y-16424579D02*
X9317873Y-16405531D01*
X9317873Y-16405531D02*
X9308349Y-16376960D01*
X9308349Y-16376960D02*
X9298825Y-16329341D01*
X9298825Y-16329341D02*
X9298825Y-16291246D01*
X9298825Y-16291246D02*
X9308349Y-16243627D01*
X9308349Y-16243627D02*
X9317873Y-16215055D01*
X9317873Y-16215055D02*
X9327396Y-16196008D01*
X9327396Y-16196008D02*
X9346444Y-16167436D01*
X9346444Y-16167436D02*
X9355968Y-16157912D01*
X9432158Y-16253150D02*
X9432158Y-16386484D01*
X9432158Y-16272198D02*
X9441682Y-16262674D01*
X9441682Y-16262674D02*
X9460730Y-16253150D01*
X9460730Y-16253150D02*
X9489301Y-16253150D01*
X9489301Y-16253150D02*
X9508349Y-16262674D01*
X9508349Y-16262674D02*
X9517873Y-16281722D01*
X9517873Y-16281722D02*
X9517873Y-16386484D01*
X9641682Y-16386484D02*
X9622634Y-16376960D01*
X9622634Y-16376960D02*
X9613111Y-16367436D01*
X9613111Y-16367436D02*
X9603587Y-16348388D01*
X9603587Y-16348388D02*
X9603587Y-16291246D01*
X9603587Y-16291246D02*
X9613111Y-16272198D01*
X9613111Y-16272198D02*
X9622634Y-16262674D01*
X9622634Y-16262674D02*
X9641682Y-16253150D01*
X9641682Y-16253150D02*
X9670254Y-16253150D01*
X9670254Y-16253150D02*
X9689301Y-16262674D01*
X9689301Y-16262674D02*
X9698825Y-16272198D01*
X9698825Y-16272198D02*
X9708349Y-16291246D01*
X9708349Y-16291246D02*
X9708349Y-16348388D01*
X9708349Y-16348388D02*
X9698825Y-16367436D01*
X9698825Y-16367436D02*
X9689301Y-16376960D01*
X9689301Y-16376960D02*
X9670254Y-16386484D01*
X9670254Y-16386484D02*
X9641682Y-16386484D01*
X9765492Y-16253150D02*
X9841682Y-16253150D01*
X9794063Y-16186484D02*
X9794063Y-16357912D01*
X9794063Y-16357912D02*
X9803587Y-16376960D01*
X9803587Y-16376960D02*
X9822634Y-16386484D01*
X9822634Y-16386484D02*
X9841682Y-16386484D01*
X10060730Y-16253150D02*
X10060730Y-16453150D01*
X10060730Y-16262674D02*
X10079777Y-16253150D01*
X10079777Y-16253150D02*
X10117873Y-16253150D01*
X10117873Y-16253150D02*
X10136920Y-16262674D01*
X10136920Y-16262674D02*
X10146444Y-16272198D01*
X10146444Y-16272198D02*
X10155968Y-16291246D01*
X10155968Y-16291246D02*
X10155968Y-16348388D01*
X10155968Y-16348388D02*
X10146444Y-16367436D01*
X10146444Y-16367436D02*
X10136920Y-16376960D01*
X10136920Y-16376960D02*
X10117873Y-16386484D01*
X10117873Y-16386484D02*
X10079777Y-16386484D01*
X10079777Y-16386484D02*
X10060730Y-16376960D01*
X10270254Y-16386484D02*
X10251206Y-16376960D01*
X10251206Y-16376960D02*
X10241682Y-16357912D01*
X10241682Y-16357912D02*
X10241682Y-16186484D01*
X10432158Y-16386484D02*
X10432158Y-16281722D01*
X10432158Y-16281722D02*
X10422635Y-16262674D01*
X10422635Y-16262674D02*
X10403587Y-16253150D01*
X10403587Y-16253150D02*
X10365492Y-16253150D01*
X10365492Y-16253150D02*
X10346444Y-16262674D01*
X10432158Y-16376960D02*
X10413111Y-16386484D01*
X10413111Y-16386484D02*
X10365492Y-16386484D01*
X10365492Y-16386484D02*
X10346444Y-16376960D01*
X10346444Y-16376960D02*
X10336920Y-16357912D01*
X10336920Y-16357912D02*
X10336920Y-16338865D01*
X10336920Y-16338865D02*
X10346444Y-16319817D01*
X10346444Y-16319817D02*
X10365492Y-16310293D01*
X10365492Y-16310293D02*
X10413111Y-16310293D01*
X10413111Y-16310293D02*
X10432158Y-16300769D01*
X10498825Y-16253150D02*
X10575015Y-16253150D01*
X10527396Y-16186484D02*
X10527396Y-16357912D01*
X10527396Y-16357912D02*
X10536920Y-16376960D01*
X10536920Y-16376960D02*
X10555968Y-16386484D01*
X10555968Y-16386484D02*
X10575015Y-16386484D01*
X10717873Y-16376960D02*
X10698825Y-16386484D01*
X10698825Y-16386484D02*
X10660730Y-16386484D01*
X10660730Y-16386484D02*
X10641682Y-16376960D01*
X10641682Y-16376960D02*
X10632158Y-16357912D01*
X10632158Y-16357912D02*
X10632158Y-16281722D01*
X10632158Y-16281722D02*
X10641682Y-16262674D01*
X10641682Y-16262674D02*
X10660730Y-16253150D01*
X10660730Y-16253150D02*
X10698825Y-16253150D01*
X10698825Y-16253150D02*
X10717873Y-16262674D01*
X10717873Y-16262674D02*
X10727396Y-16281722D01*
X10727396Y-16281722D02*
X10727396Y-16300769D01*
X10727396Y-16300769D02*
X10632158Y-16319817D01*
X10898825Y-16386484D02*
X10898825Y-16186484D01*
X10898825Y-16376960D02*
X10879777Y-16386484D01*
X10879777Y-16386484D02*
X10841682Y-16386484D01*
X10841682Y-16386484D02*
X10822635Y-16376960D01*
X10822635Y-16376960D02*
X10813111Y-16367436D01*
X10813111Y-16367436D02*
X10803587Y-16348388D01*
X10803587Y-16348388D02*
X10803587Y-16291246D01*
X10803587Y-16291246D02*
X10813111Y-16272198D01*
X10813111Y-16272198D02*
X10822635Y-16262674D01*
X10822635Y-16262674D02*
X10841682Y-16253150D01*
X10841682Y-16253150D02*
X10879777Y-16253150D01*
X10879777Y-16253150D02*
X10898825Y-16262674D01*
X10975016Y-16462674D02*
X10984539Y-16453150D01*
X10984539Y-16453150D02*
X11003587Y-16424579D01*
X11003587Y-16424579D02*
X11013111Y-16405531D01*
X11013111Y-16405531D02*
X11022635Y-16376960D01*
X11022635Y-16376960D02*
X11032158Y-16329341D01*
X11032158Y-16329341D02*
X11032158Y-16291246D01*
X11032158Y-16291246D02*
X11022635Y-16243627D01*
X11022635Y-16243627D02*
X11013111Y-16215055D01*
X11013111Y-16215055D02*
X11003587Y-16196008D01*
X11003587Y-16196008D02*
X10984539Y-16167436D01*
X10984539Y-16167436D02*
X10975016Y-16157912D01*
M02*
